G04 #@! TF.GenerationSoftware,KiCad,Pcbnew,(5.99.0-2119-g1c72042fc)*
G04 #@! TF.CreationDate,2020-07-24T01:25:01+02:00*
G04 #@! TF.ProjectId,ledCollar_PCB,6c656443-6f6c-46c6-9172-5f5043422e6b,rev?*
G04 #@! TF.SameCoordinates,Original*
G04 #@! TF.FileFunction,Legend,Top*
G04 #@! TF.FilePolarity,Positive*
%FSLAX46Y46*%
G04 Gerber Fmt 4.6, Leading zero omitted, Abs format (unit mm)*
G04 Created by KiCad (PCBNEW (5.99.0-2119-g1c72042fc)) date 2020-07-24 01:25:01*
%MOMM*%
%LPD*%
G01*
G04 APERTURE LIST*
%ADD10C,0.127000*%
%ADD11C,0.150000*%
%ADD12C,0.120000*%
G04 APERTURE END LIST*
D10*
X129721428Y-111397142D02*
X129757714Y-111288285D01*
X129757714Y-111106857D01*
X129721428Y-111034285D01*
X129685142Y-110998000D01*
X129612571Y-110961714D01*
X129540000Y-110961714D01*
X129467428Y-110998000D01*
X129431142Y-111034285D01*
X129394857Y-111106857D01*
X129358571Y-111252000D01*
X129322285Y-111324571D01*
X129286000Y-111360857D01*
X129213428Y-111397142D01*
X129140857Y-111397142D01*
X129068285Y-111360857D01*
X129032000Y-111324571D01*
X128995714Y-111252000D01*
X128995714Y-111070571D01*
X129032000Y-110961714D01*
X128995714Y-110707714D02*
X129757714Y-110526285D01*
X129213428Y-110381142D01*
X129757714Y-110236000D01*
X128995714Y-110054571D01*
X129757714Y-109764285D02*
X128995714Y-109764285D01*
X128995714Y-109582857D01*
X129032000Y-109474000D01*
X129104571Y-109401428D01*
X129177142Y-109365142D01*
X129322285Y-109328857D01*
X129431142Y-109328857D01*
X129576285Y-109365142D01*
X129648857Y-109401428D01*
X129721428Y-109474000D01*
X129757714Y-109582857D01*
X129757714Y-109764285D01*
D11*
X122976047Y-101544380D02*
X122499857Y-101544380D01*
X122499857Y-100544380D01*
X123309380Y-101020571D02*
X123642714Y-101020571D01*
X123785571Y-101544380D02*
X123309380Y-101544380D01*
X123309380Y-100544380D01*
X123785571Y-100544380D01*
X124214142Y-101544380D02*
X124214142Y-100544380D01*
X124452238Y-100544380D01*
X124595095Y-100592000D01*
X124690333Y-100687238D01*
X124737952Y-100782476D01*
X124785571Y-100972952D01*
X124785571Y-101115809D01*
X124737952Y-101306285D01*
X124690333Y-101401523D01*
X124595095Y-101496761D01*
X124452238Y-101544380D01*
X124214142Y-101544380D01*
X125785571Y-101449142D02*
X125737952Y-101496761D01*
X125595095Y-101544380D01*
X125499857Y-101544380D01*
X125357000Y-101496761D01*
X125261761Y-101401523D01*
X125214142Y-101306285D01*
X125166523Y-101115809D01*
X125166523Y-100972952D01*
X125214142Y-100782476D01*
X125261761Y-100687238D01*
X125357000Y-100592000D01*
X125499857Y-100544380D01*
X125595095Y-100544380D01*
X125737952Y-100592000D01*
X125785571Y-100639619D01*
X126357000Y-101544380D02*
X126261761Y-101496761D01*
X126214142Y-101449142D01*
X126166523Y-101353904D01*
X126166523Y-101068190D01*
X126214142Y-100972952D01*
X126261761Y-100925333D01*
X126357000Y-100877714D01*
X126499857Y-100877714D01*
X126595095Y-100925333D01*
X126642714Y-100972952D01*
X126690333Y-101068190D01*
X126690333Y-101353904D01*
X126642714Y-101449142D01*
X126595095Y-101496761D01*
X126499857Y-101544380D01*
X126357000Y-101544380D01*
X127261761Y-101544380D02*
X127166523Y-101496761D01*
X127118904Y-101401523D01*
X127118904Y-100544380D01*
X127785571Y-101544380D02*
X127690333Y-101496761D01*
X127642714Y-101401523D01*
X127642714Y-100544380D01*
X128595095Y-101544380D02*
X128595095Y-101020571D01*
X128547476Y-100925333D01*
X128452238Y-100877714D01*
X128261761Y-100877714D01*
X128166523Y-100925333D01*
X128595095Y-101496761D02*
X128499857Y-101544380D01*
X128261761Y-101544380D01*
X128166523Y-101496761D01*
X128118904Y-101401523D01*
X128118904Y-101306285D01*
X128166523Y-101211047D01*
X128261761Y-101163428D01*
X128499857Y-101163428D01*
X128595095Y-101115809D01*
X129071285Y-101544380D02*
X129071285Y-100877714D01*
X129071285Y-101068190D02*
X129118904Y-100972952D01*
X129166523Y-100925333D01*
X129261761Y-100877714D01*
X129357000Y-100877714D01*
D10*
X127196835Y-102190571D02*
X127387311Y-102723904D01*
X127577788Y-102190571D01*
X128301597Y-102723904D02*
X127844454Y-102723904D01*
X128073026Y-102723904D02*
X128073026Y-101923904D01*
X127996835Y-102038190D01*
X127920645Y-102114380D01*
X127844454Y-102152476D01*
X128644454Y-102647714D02*
X128682550Y-102685809D01*
X128644454Y-102723904D01*
X128606359Y-102685809D01*
X128644454Y-102647714D01*
X128644454Y-102723904D01*
X129177788Y-101923904D02*
X129253978Y-101923904D01*
X129330169Y-101962000D01*
X129368264Y-102000095D01*
X129406359Y-102076285D01*
X129444454Y-102228666D01*
X129444454Y-102419142D01*
X129406359Y-102571523D01*
X129368264Y-102647714D01*
X129330169Y-102685809D01*
X129253978Y-102723904D01*
X129177788Y-102723904D01*
X129101597Y-102685809D01*
X129063502Y-102647714D01*
X129025407Y-102571523D01*
X128987311Y-102419142D01*
X128987311Y-102228666D01*
X129025407Y-102076285D01*
X129063502Y-102000095D01*
X129101597Y-101962000D01*
X129177788Y-101923904D01*
X126044778Y-113406704D02*
X126044778Y-112606704D01*
X126226207Y-112606704D01*
X126335064Y-112644800D01*
X126407635Y-112720990D01*
X126443921Y-112797180D01*
X126480207Y-112949561D01*
X126480207Y-113063847D01*
X126443921Y-113216228D01*
X126407635Y-113292419D01*
X126335064Y-113368609D01*
X126226207Y-113406704D01*
X126044778Y-113406704D01*
X126480207Y-115906514D02*
X126443921Y-115944609D01*
X126335064Y-115982704D01*
X126262492Y-115982704D01*
X126153635Y-115944609D01*
X126081064Y-115868419D01*
X126044778Y-115792228D01*
X126008492Y-115639847D01*
X126008492Y-115525561D01*
X126044778Y-115373180D01*
X126081064Y-115296990D01*
X126153635Y-115220800D01*
X126262492Y-115182704D01*
X126335064Y-115182704D01*
X126443921Y-115220800D01*
X126480207Y-115258895D01*
X126443921Y-117796800D02*
X126371350Y-117758704D01*
X126262492Y-117758704D01*
X126153635Y-117796800D01*
X126081064Y-117872990D01*
X126044778Y-117949180D01*
X126008492Y-118101561D01*
X126008492Y-118215847D01*
X126044778Y-118368228D01*
X126081064Y-118444419D01*
X126153635Y-118520609D01*
X126262492Y-118558704D01*
X126335064Y-118558704D01*
X126443921Y-118520609D01*
X126480207Y-118482514D01*
X126480207Y-118215847D01*
X126335064Y-118215847D01*
D11*
X108839047Y-119476828D02*
X109600952Y-119476828D01*
X111379047Y-119476828D02*
X112140952Y-119476828D01*
X111760000Y-119857780D02*
X111760000Y-119095876D01*
D10*
X101882121Y-105860680D02*
X102136121Y-106650680D01*
X102390121Y-105860680D01*
X103079550Y-106575442D02*
X103043264Y-106613061D01*
X102934407Y-106650680D01*
X102861835Y-106650680D01*
X102752978Y-106613061D01*
X102680407Y-106537823D01*
X102644121Y-106462585D01*
X102607835Y-106312109D01*
X102607835Y-106199252D01*
X102644121Y-106048776D01*
X102680407Y-105973538D01*
X102752978Y-105898300D01*
X102861835Y-105860680D01*
X102934407Y-105860680D01*
X103043264Y-105898300D01*
X103079550Y-105935919D01*
X103841550Y-106575442D02*
X103805264Y-106613061D01*
X103696407Y-106650680D01*
X103623835Y-106650680D01*
X103514978Y-106613061D01*
X103442407Y-106537823D01*
X103406121Y-106462585D01*
X103369835Y-106312109D01*
X103369835Y-106199252D01*
X103406121Y-106048776D01*
X103442407Y-105973538D01*
X103514978Y-105898300D01*
X103623835Y-105860680D01*
X103696407Y-105860680D01*
X103805264Y-105898300D01*
X103841550Y-105935919D01*
X101990978Y-109194480D02*
X101990978Y-108404480D01*
X102172407Y-108404480D01*
X102281264Y-108442100D01*
X102353835Y-108517338D01*
X102390121Y-108592576D01*
X102426407Y-108743052D01*
X102426407Y-108855909D01*
X102390121Y-109006385D01*
X102353835Y-109081623D01*
X102281264Y-109156861D01*
X102172407Y-109194480D01*
X101990978Y-109194480D01*
X102716692Y-108968766D02*
X103079550Y-108968766D01*
X102644121Y-109194480D02*
X102898121Y-108404480D01*
X103152121Y-109194480D01*
X103297264Y-108404480D02*
X103732692Y-108404480D01*
X103514978Y-109194480D02*
X103514978Y-108404480D01*
X103950407Y-108968766D02*
X104313264Y-108968766D01*
X103877835Y-109194480D02*
X104131835Y-108404480D01*
X104385835Y-109194480D01*
X102426407Y-111663042D02*
X102390121Y-111700661D01*
X102281264Y-111738280D01*
X102208692Y-111738280D01*
X102099835Y-111700661D01*
X102027264Y-111625423D01*
X101990978Y-111550185D01*
X101954692Y-111399709D01*
X101954692Y-111286852D01*
X101990978Y-111136376D01*
X102027264Y-111061138D01*
X102099835Y-110985900D01*
X102208692Y-110948280D01*
X102281264Y-110948280D01*
X102390121Y-110985900D01*
X102426407Y-111023519D01*
X103115835Y-111738280D02*
X102752978Y-111738280D01*
X102752978Y-110948280D01*
X103369835Y-111738280D02*
X103369835Y-110948280D01*
X103805264Y-111738280D02*
X103478692Y-111286852D01*
X103805264Y-110948280D02*
X103369835Y-111399709D01*
X102390121Y-113529700D02*
X102317550Y-113492080D01*
X102208692Y-113492080D01*
X102099835Y-113529700D01*
X102027264Y-113604938D01*
X101990978Y-113680176D01*
X101954692Y-113830652D01*
X101954692Y-113943509D01*
X101990978Y-114093985D01*
X102027264Y-114169223D01*
X102099835Y-114244461D01*
X102208692Y-114282080D01*
X102281264Y-114282080D01*
X102390121Y-114244461D01*
X102426407Y-114206842D01*
X102426407Y-113943509D01*
X102281264Y-113943509D01*
X102752978Y-114282080D02*
X102752978Y-113492080D01*
X103188407Y-114282080D01*
X103188407Y-113492080D01*
X103551264Y-114282080D02*
X103551264Y-113492080D01*
X103732692Y-113492080D01*
X103841550Y-113529700D01*
X103914121Y-113604938D01*
X103950407Y-113680176D01*
X103986692Y-113830652D01*
X103986692Y-113943509D01*
X103950407Y-114093985D01*
X103914121Y-114169223D01*
X103841550Y-114244461D01*
X103732692Y-114282080D01*
X103551264Y-114282080D01*
X108476142Y-110598857D02*
X108512428Y-110635142D01*
X108548714Y-110744000D01*
X108548714Y-110816571D01*
X108512428Y-110925428D01*
X108439857Y-110998000D01*
X108367285Y-111034285D01*
X108222142Y-111070571D01*
X108113285Y-111070571D01*
X107968142Y-111034285D01*
X107895571Y-110998000D01*
X107823000Y-110925428D01*
X107786714Y-110816571D01*
X107786714Y-110744000D01*
X107823000Y-110635142D01*
X107859285Y-110598857D01*
X108548714Y-109873142D02*
X108548714Y-110308571D01*
X108548714Y-110090857D02*
X107786714Y-110090857D01*
X107895571Y-110163428D01*
X107968142Y-110236000D01*
X108004428Y-110308571D01*
X107786714Y-109220000D02*
X107786714Y-109365142D01*
X107823000Y-109437714D01*
X107859285Y-109474000D01*
X107968142Y-109546571D01*
X108113285Y-109582857D01*
X108403571Y-109582857D01*
X108476142Y-109546571D01*
X108512428Y-109510285D01*
X108548714Y-109437714D01*
X108548714Y-109292571D01*
X108512428Y-109220000D01*
X108476142Y-109183714D01*
X108403571Y-109147428D01*
X108222142Y-109147428D01*
X108149571Y-109183714D01*
X108113285Y-109220000D01*
X108077000Y-109292571D01*
X108077000Y-109437714D01*
X108113285Y-109510285D01*
X108149571Y-109546571D01*
X108222142Y-109582857D01*
X108730142Y-116477142D02*
X108693857Y-116513428D01*
X108585000Y-116549714D01*
X108512428Y-116549714D01*
X108403571Y-116513428D01*
X108331000Y-116440857D01*
X108294714Y-116368285D01*
X108258428Y-116223142D01*
X108258428Y-116114285D01*
X108294714Y-115969142D01*
X108331000Y-115896571D01*
X108403571Y-115824000D01*
X108512428Y-115787714D01*
X108585000Y-115787714D01*
X108693857Y-115824000D01*
X108730142Y-115860285D01*
X109455857Y-116549714D02*
X109020428Y-116549714D01*
X109238142Y-116549714D02*
X109238142Y-115787714D01*
X109165571Y-115896571D01*
X109093000Y-115969142D01*
X109020428Y-116005428D01*
X110145285Y-115787714D02*
X109782428Y-115787714D01*
X109746142Y-116150571D01*
X109782428Y-116114285D01*
X109855000Y-116078000D01*
X110036428Y-116078000D01*
X110109000Y-116114285D01*
X110145285Y-116150571D01*
X110181571Y-116223142D01*
X110181571Y-116404571D01*
X110145285Y-116477142D01*
X110109000Y-116513428D01*
X110036428Y-116549714D01*
X109855000Y-116549714D01*
X109782428Y-116513428D01*
X109746142Y-116477142D01*
X118686942Y-105859942D02*
X118650657Y-105896228D01*
X118541800Y-105932514D01*
X118469228Y-105932514D01*
X118360371Y-105896228D01*
X118287800Y-105823657D01*
X118251514Y-105751085D01*
X118215228Y-105605942D01*
X118215228Y-105497085D01*
X118251514Y-105351942D01*
X118287800Y-105279371D01*
X118360371Y-105206800D01*
X118469228Y-105170514D01*
X118541800Y-105170514D01*
X118650657Y-105206800D01*
X118686942Y-105243085D01*
X119412657Y-105932514D02*
X118977228Y-105932514D01*
X119194942Y-105932514D02*
X119194942Y-105170514D01*
X119122371Y-105279371D01*
X119049800Y-105351942D01*
X118977228Y-105388228D01*
X120065800Y-105424514D02*
X120065800Y-105932514D01*
X119884371Y-105134228D02*
X119702942Y-105678514D01*
X120174657Y-105678514D01*
X102735742Y-103824314D02*
X102481742Y-103461457D01*
X102300314Y-103824314D02*
X102300314Y-103062314D01*
X102590600Y-103062314D01*
X102663171Y-103098600D01*
X102699457Y-103134885D01*
X102735742Y-103207457D01*
X102735742Y-103316314D01*
X102699457Y-103388885D01*
X102663171Y-103425171D01*
X102590600Y-103461457D01*
X102300314Y-103461457D01*
X103461457Y-103824314D02*
X103026028Y-103824314D01*
X103243742Y-103824314D02*
X103243742Y-103062314D01*
X103171171Y-103171171D01*
X103098600Y-103243742D01*
X103026028Y-103280028D01*
X103933171Y-103062314D02*
X104005742Y-103062314D01*
X104078314Y-103098600D01*
X104114600Y-103134885D01*
X104150885Y-103207457D01*
X104187171Y-103352600D01*
X104187171Y-103534028D01*
X104150885Y-103679171D01*
X104114600Y-103751742D01*
X104078314Y-103788028D01*
X104005742Y-103824314D01*
X103933171Y-103824314D01*
X103860600Y-103788028D01*
X103824314Y-103751742D01*
X103788028Y-103679171D01*
X103751742Y-103534028D01*
X103751742Y-103352600D01*
X103788028Y-103207457D01*
X103824314Y-103134885D01*
X103860600Y-103098600D01*
X103933171Y-103062314D01*
X119724714Y-101092000D02*
X119361857Y-101346000D01*
X119724714Y-101527428D02*
X118962714Y-101527428D01*
X118962714Y-101237142D01*
X118999000Y-101164571D01*
X119035285Y-101128285D01*
X119107857Y-101092000D01*
X119216714Y-101092000D01*
X119289285Y-101128285D01*
X119325571Y-101164571D01*
X119361857Y-101237142D01*
X119361857Y-101527428D01*
X119724714Y-100729142D02*
X119724714Y-100584000D01*
X119688428Y-100511428D01*
X119652142Y-100475142D01*
X119543285Y-100402571D01*
X119398142Y-100366285D01*
X119107857Y-100366285D01*
X119035285Y-100402571D01*
X118999000Y-100438857D01*
X118962714Y-100511428D01*
X118962714Y-100656571D01*
X118999000Y-100729142D01*
X119035285Y-100765428D01*
X119107857Y-100801714D01*
X119289285Y-100801714D01*
X119361857Y-100765428D01*
X119398142Y-100729142D01*
X119434428Y-100656571D01*
X119434428Y-100511428D01*
X119398142Y-100438857D01*
X119361857Y-100402571D01*
X119289285Y-100366285D01*
X121248714Y-101092000D02*
X120885857Y-101346000D01*
X121248714Y-101527428D02*
X120486714Y-101527428D01*
X120486714Y-101237142D01*
X120523000Y-101164571D01*
X120559285Y-101128285D01*
X120631857Y-101092000D01*
X120740714Y-101092000D01*
X120813285Y-101128285D01*
X120849571Y-101164571D01*
X120885857Y-101237142D01*
X120885857Y-101527428D01*
X120813285Y-100656571D02*
X120777000Y-100729142D01*
X120740714Y-100765428D01*
X120668142Y-100801714D01*
X120631857Y-100801714D01*
X120559285Y-100765428D01*
X120523000Y-100729142D01*
X120486714Y-100656571D01*
X120486714Y-100511428D01*
X120523000Y-100438857D01*
X120559285Y-100402571D01*
X120631857Y-100366285D01*
X120668142Y-100366285D01*
X120740714Y-100402571D01*
X120777000Y-100438857D01*
X120813285Y-100511428D01*
X120813285Y-100656571D01*
X120849571Y-100729142D01*
X120885857Y-100765428D01*
X120958428Y-100801714D01*
X121103571Y-100801714D01*
X121176142Y-100765428D01*
X121212428Y-100729142D01*
X121248714Y-100656571D01*
X121248714Y-100511428D01*
X121212428Y-100438857D01*
X121176142Y-100402571D01*
X121103571Y-100366285D01*
X120958428Y-100366285D01*
X120885857Y-100402571D01*
X120849571Y-100438857D01*
X120813285Y-100511428D01*
X127907142Y-104031142D02*
X127870857Y-104067428D01*
X127762000Y-104103714D01*
X127689428Y-104103714D01*
X127580571Y-104067428D01*
X127508000Y-103994857D01*
X127471714Y-103922285D01*
X127435428Y-103777142D01*
X127435428Y-103668285D01*
X127471714Y-103523142D01*
X127508000Y-103450571D01*
X127580571Y-103378000D01*
X127689428Y-103341714D01*
X127762000Y-103341714D01*
X127870857Y-103378000D01*
X127907142Y-103414285D01*
X128632857Y-104103714D02*
X128197428Y-104103714D01*
X128415142Y-104103714D02*
X128415142Y-103341714D01*
X128342571Y-103450571D01*
X128270000Y-103523142D01*
X128197428Y-103559428D01*
X128886857Y-103341714D02*
X129358571Y-103341714D01*
X129104571Y-103632000D01*
X129213428Y-103632000D01*
X129286000Y-103668285D01*
X129322285Y-103704571D01*
X129358571Y-103777142D01*
X129358571Y-103958571D01*
X129322285Y-104031142D01*
X129286000Y-104067428D01*
X129213428Y-104103714D01*
X128995714Y-104103714D01*
X128923142Y-104067428D01*
X128886857Y-104031142D01*
X121557142Y-105301142D02*
X121520857Y-105337428D01*
X121412000Y-105373714D01*
X121339428Y-105373714D01*
X121230571Y-105337428D01*
X121158000Y-105264857D01*
X121121714Y-105192285D01*
X121085428Y-105047142D01*
X121085428Y-104938285D01*
X121121714Y-104793142D01*
X121158000Y-104720571D01*
X121230571Y-104648000D01*
X121339428Y-104611714D01*
X121412000Y-104611714D01*
X121520857Y-104648000D01*
X121557142Y-104684285D01*
X122282857Y-105373714D02*
X121847428Y-105373714D01*
X122065142Y-105373714D02*
X122065142Y-104611714D01*
X121992571Y-104720571D01*
X121920000Y-104793142D01*
X121847428Y-104829428D01*
X122573142Y-104684285D02*
X122609428Y-104648000D01*
X122682000Y-104611714D01*
X122863428Y-104611714D01*
X122936000Y-104648000D01*
X122972285Y-104684285D01*
X123008571Y-104756857D01*
X123008571Y-104829428D01*
X122972285Y-104938285D01*
X122536857Y-105373714D01*
X123008571Y-105373714D01*
X124986142Y-111778142D02*
X124949857Y-111814428D01*
X124841000Y-111850714D01*
X124768428Y-111850714D01*
X124659571Y-111814428D01*
X124587000Y-111741857D01*
X124550714Y-111669285D01*
X124514428Y-111524142D01*
X124514428Y-111415285D01*
X124550714Y-111270142D01*
X124587000Y-111197571D01*
X124659571Y-111125000D01*
X124768428Y-111088714D01*
X124841000Y-111088714D01*
X124949857Y-111125000D01*
X124986142Y-111161285D01*
X125711857Y-111850714D02*
X125276428Y-111850714D01*
X125494142Y-111850714D02*
X125494142Y-111088714D01*
X125421571Y-111197571D01*
X125349000Y-111270142D01*
X125276428Y-111306428D01*
X126437571Y-111850714D02*
X126002142Y-111850714D01*
X126219857Y-111850714D02*
X126219857Y-111088714D01*
X126147285Y-111197571D01*
X126074714Y-111270142D01*
X126002142Y-111306428D01*
X123081142Y-114662857D02*
X123117428Y-114699142D01*
X123153714Y-114808000D01*
X123153714Y-114880571D01*
X123117428Y-114989428D01*
X123044857Y-115062000D01*
X122972285Y-115098285D01*
X122827142Y-115134571D01*
X122718285Y-115134571D01*
X122573142Y-115098285D01*
X122500571Y-115062000D01*
X122428000Y-114989428D01*
X122391714Y-114880571D01*
X122391714Y-114808000D01*
X122428000Y-114699142D01*
X122464285Y-114662857D01*
X123153714Y-113937142D02*
X123153714Y-114372571D01*
X123153714Y-114154857D02*
X122391714Y-114154857D01*
X122500571Y-114227428D01*
X122573142Y-114300000D01*
X122609428Y-114372571D01*
X122391714Y-113465428D02*
X122391714Y-113392857D01*
X122428000Y-113320285D01*
X122464285Y-113284000D01*
X122536857Y-113247714D01*
X122682000Y-113211428D01*
X122863428Y-113211428D01*
X123008571Y-113247714D01*
X123081142Y-113284000D01*
X123117428Y-113320285D01*
X123153714Y-113392857D01*
X123153714Y-113465428D01*
X123117428Y-113538000D01*
X123081142Y-113574285D01*
X123008571Y-113610571D01*
X122863428Y-113646857D01*
X122682000Y-113646857D01*
X122536857Y-113610571D01*
X122464285Y-113574285D01*
X122428000Y-113538000D01*
X122391714Y-113465428D01*
X121847428Y-108548714D02*
X121847428Y-109165571D01*
X121883714Y-109238142D01*
X121920000Y-109274428D01*
X121992571Y-109310714D01*
X122137714Y-109310714D01*
X122210285Y-109274428D01*
X122246571Y-109238142D01*
X122282857Y-109165571D01*
X122282857Y-108548714D01*
X123008571Y-108548714D02*
X122645714Y-108548714D01*
X122609428Y-108911571D01*
X122645714Y-108875285D01*
X122718285Y-108839000D01*
X122899714Y-108839000D01*
X122972285Y-108875285D01*
X123008571Y-108911571D01*
X123044857Y-108984142D01*
X123044857Y-109165571D01*
X123008571Y-109238142D01*
X122972285Y-109274428D01*
X122899714Y-109310714D01*
X122718285Y-109310714D01*
X122645714Y-109274428D01*
X122609428Y-109238142D01*
X108639428Y-107532714D02*
X108639428Y-108149571D01*
X108675714Y-108222142D01*
X108712000Y-108258428D01*
X108784571Y-108294714D01*
X108929714Y-108294714D01*
X109002285Y-108258428D01*
X109038571Y-108222142D01*
X109074857Y-108149571D01*
X109074857Y-107532714D01*
X109764285Y-107786714D02*
X109764285Y-108294714D01*
X109582857Y-107496428D02*
X109401428Y-108040714D01*
X109873142Y-108040714D01*
X112576428Y-108040714D02*
X112576428Y-108657571D01*
X112612714Y-108730142D01*
X112649000Y-108766428D01*
X112721571Y-108802714D01*
X112866714Y-108802714D01*
X112939285Y-108766428D01*
X112975571Y-108730142D01*
X113011857Y-108657571D01*
X113011857Y-108040714D01*
X113338428Y-108113285D02*
X113374714Y-108077000D01*
X113447285Y-108040714D01*
X113628714Y-108040714D01*
X113701285Y-108077000D01*
X113737571Y-108113285D01*
X113773857Y-108185857D01*
X113773857Y-108258428D01*
X113737571Y-108367285D01*
X113302142Y-108802714D01*
X113773857Y-108802714D01*
X103534028Y-112231714D02*
X103534028Y-112848571D01*
X103570314Y-112921142D01*
X103606600Y-112957428D01*
X103679171Y-112993714D01*
X103824314Y-112993714D01*
X103896885Y-112957428D01*
X103933171Y-112921142D01*
X103969457Y-112848571D01*
X103969457Y-112231714D01*
X104731457Y-112993714D02*
X104296028Y-112993714D01*
X104513742Y-112993714D02*
X104513742Y-112231714D01*
X104441171Y-112340571D01*
X104368600Y-112413142D01*
X104296028Y-112449428D01*
X117692714Y-104013000D02*
X117329857Y-104267000D01*
X117692714Y-104448428D02*
X116930714Y-104448428D01*
X116930714Y-104158142D01*
X116967000Y-104085571D01*
X117003285Y-104049285D01*
X117075857Y-104013000D01*
X117184714Y-104013000D01*
X117257285Y-104049285D01*
X117293571Y-104085571D01*
X117329857Y-104158142D01*
X117329857Y-104448428D01*
X116930714Y-103759000D02*
X116930714Y-103251000D01*
X117692714Y-103577571D01*
X116676714Y-104013000D02*
X116313857Y-104267000D01*
X116676714Y-104448428D02*
X115914714Y-104448428D01*
X115914714Y-104158142D01*
X115951000Y-104085571D01*
X115987285Y-104049285D01*
X116059857Y-104013000D01*
X116168714Y-104013000D01*
X116241285Y-104049285D01*
X116277571Y-104085571D01*
X116313857Y-104158142D01*
X116313857Y-104448428D01*
X115914714Y-103359857D02*
X115914714Y-103505000D01*
X115951000Y-103577571D01*
X115987285Y-103613857D01*
X116096142Y-103686428D01*
X116241285Y-103722714D01*
X116531571Y-103722714D01*
X116604142Y-103686428D01*
X116640428Y-103650142D01*
X116676714Y-103577571D01*
X116676714Y-103432428D01*
X116640428Y-103359857D01*
X116604142Y-103323571D01*
X116531571Y-103287285D01*
X116350142Y-103287285D01*
X116277571Y-103323571D01*
X116241285Y-103359857D01*
X116205000Y-103432428D01*
X116205000Y-103577571D01*
X116241285Y-103650142D01*
X116277571Y-103686428D01*
X116350142Y-103722714D01*
X111215714Y-101854000D02*
X110852857Y-102108000D01*
X111215714Y-102289428D02*
X110453714Y-102289428D01*
X110453714Y-101999142D01*
X110490000Y-101926571D01*
X110526285Y-101890285D01*
X110598857Y-101854000D01*
X110707714Y-101854000D01*
X110780285Y-101890285D01*
X110816571Y-101926571D01*
X110852857Y-101999142D01*
X110852857Y-102289428D01*
X110453714Y-101164571D02*
X110453714Y-101527428D01*
X110816571Y-101563714D01*
X110780285Y-101527428D01*
X110744000Y-101454857D01*
X110744000Y-101273428D01*
X110780285Y-101200857D01*
X110816571Y-101164571D01*
X110889142Y-101128285D01*
X111070571Y-101128285D01*
X111143142Y-101164571D01*
X111179428Y-101200857D01*
X111215714Y-101273428D01*
X111215714Y-101454857D01*
X111179428Y-101527428D01*
X111143142Y-101563714D01*
X124129800Y-117083114D02*
X123875800Y-116720257D01*
X123694371Y-117083114D02*
X123694371Y-116321114D01*
X123984657Y-116321114D01*
X124057228Y-116357400D01*
X124093514Y-116393685D01*
X124129800Y-116466257D01*
X124129800Y-116575114D01*
X124093514Y-116647685D01*
X124057228Y-116683971D01*
X123984657Y-116720257D01*
X123694371Y-116720257D01*
X124782942Y-116575114D02*
X124782942Y-117083114D01*
X124601514Y-116284828D02*
X124420085Y-116829114D01*
X124891800Y-116829114D01*
X112104714Y-110363000D02*
X111741857Y-110617000D01*
X112104714Y-110798428D02*
X111342714Y-110798428D01*
X111342714Y-110508142D01*
X111379000Y-110435571D01*
X111415285Y-110399285D01*
X111487857Y-110363000D01*
X111596714Y-110363000D01*
X111669285Y-110399285D01*
X111705571Y-110435571D01*
X111741857Y-110508142D01*
X111741857Y-110798428D01*
X111342714Y-110109000D02*
X111342714Y-109637285D01*
X111633000Y-109891285D01*
X111633000Y-109782428D01*
X111669285Y-109709857D01*
X111705571Y-109673571D01*
X111778142Y-109637285D01*
X111959571Y-109637285D01*
X112032142Y-109673571D01*
X112068428Y-109709857D01*
X112104714Y-109782428D01*
X112104714Y-110000142D01*
X112068428Y-110072714D01*
X112032142Y-110109000D01*
X112104714Y-113411000D02*
X111741857Y-113665000D01*
X112104714Y-113846428D02*
X111342714Y-113846428D01*
X111342714Y-113556142D01*
X111379000Y-113483571D01*
X111415285Y-113447285D01*
X111487857Y-113411000D01*
X111596714Y-113411000D01*
X111669285Y-113447285D01*
X111705571Y-113483571D01*
X111741857Y-113556142D01*
X111741857Y-113846428D01*
X111415285Y-113120714D02*
X111379000Y-113084428D01*
X111342714Y-113011857D01*
X111342714Y-112830428D01*
X111379000Y-112757857D01*
X111415285Y-112721571D01*
X111487857Y-112685285D01*
X111560428Y-112685285D01*
X111669285Y-112721571D01*
X112104714Y-113157000D01*
X112104714Y-112685285D01*
X101346000Y-119089714D02*
X101092000Y-118726857D01*
X100910571Y-119089714D02*
X100910571Y-118327714D01*
X101200857Y-118327714D01*
X101273428Y-118364000D01*
X101309714Y-118400285D01*
X101346000Y-118472857D01*
X101346000Y-118581714D01*
X101309714Y-118654285D01*
X101273428Y-118690571D01*
X101200857Y-118726857D01*
X100910571Y-118726857D01*
X102071714Y-119089714D02*
X101636285Y-119089714D01*
X101854000Y-119089714D02*
X101854000Y-118327714D01*
X101781428Y-118436571D01*
X101708857Y-118509142D01*
X101636285Y-118545428D01*
X101273428Y-116876285D02*
X101200857Y-116840000D01*
X101128285Y-116767428D01*
X101019428Y-116658571D01*
X100946857Y-116622285D01*
X100874285Y-116622285D01*
X100910571Y-116803714D02*
X100838000Y-116767428D01*
X100765428Y-116694857D01*
X100729142Y-116549714D01*
X100729142Y-116295714D01*
X100765428Y-116150571D01*
X100838000Y-116078000D01*
X100910571Y-116041714D01*
X101055714Y-116041714D01*
X101128285Y-116078000D01*
X101200857Y-116150571D01*
X101237142Y-116295714D01*
X101237142Y-116549714D01*
X101200857Y-116694857D01*
X101128285Y-116767428D01*
X101055714Y-116803714D01*
X100910571Y-116803714D01*
X101962857Y-116803714D02*
X101527428Y-116803714D01*
X101745142Y-116803714D02*
X101745142Y-116041714D01*
X101672571Y-116150571D01*
X101600000Y-116223142D01*
X101527428Y-116259428D01*
X105682142Y-103860600D02*
X105718428Y-103896885D01*
X105754714Y-104005742D01*
X105754714Y-104078314D01*
X105718428Y-104187171D01*
X105645857Y-104259742D01*
X105573285Y-104296028D01*
X105428142Y-104332314D01*
X105319285Y-104332314D01*
X105174142Y-104296028D01*
X105101571Y-104259742D01*
X105029000Y-104187171D01*
X104992714Y-104078314D01*
X104992714Y-104005742D01*
X105029000Y-103896885D01*
X105065285Y-103860600D01*
X105754714Y-103497742D02*
X105754714Y-103352600D01*
X105718428Y-103280028D01*
X105682142Y-103243742D01*
X105573285Y-103171171D01*
X105428142Y-103134885D01*
X105137857Y-103134885D01*
X105065285Y-103171171D01*
X105029000Y-103207457D01*
X104992714Y-103280028D01*
X104992714Y-103425171D01*
X105029000Y-103497742D01*
X105065285Y-103534028D01*
X105137857Y-103570314D01*
X105319285Y-103570314D01*
X105391857Y-103534028D01*
X105428142Y-103497742D01*
X105464428Y-103425171D01*
X105464428Y-103280028D01*
X105428142Y-103207457D01*
X105391857Y-103171171D01*
X105319285Y-103134885D01*
X105631342Y-106349800D02*
X105667628Y-106386085D01*
X105703914Y-106494942D01*
X105703914Y-106567514D01*
X105667628Y-106676371D01*
X105595057Y-106748942D01*
X105522485Y-106785228D01*
X105377342Y-106821514D01*
X105268485Y-106821514D01*
X105123342Y-106785228D01*
X105050771Y-106748942D01*
X104978200Y-106676371D01*
X104941914Y-106567514D01*
X104941914Y-106494942D01*
X104978200Y-106386085D01*
X105014485Y-106349800D01*
X105268485Y-105914371D02*
X105232200Y-105986942D01*
X105195914Y-106023228D01*
X105123342Y-106059514D01*
X105087057Y-106059514D01*
X105014485Y-106023228D01*
X104978200Y-105986942D01*
X104941914Y-105914371D01*
X104941914Y-105769228D01*
X104978200Y-105696657D01*
X105014485Y-105660371D01*
X105087057Y-105624085D01*
X105123342Y-105624085D01*
X105195914Y-105660371D01*
X105232200Y-105696657D01*
X105268485Y-105769228D01*
X105268485Y-105914371D01*
X105304771Y-105986942D01*
X105341057Y-106023228D01*
X105413628Y-106059514D01*
X105558771Y-106059514D01*
X105631342Y-106023228D01*
X105667628Y-105986942D01*
X105703914Y-105914371D01*
X105703914Y-105769228D01*
X105667628Y-105696657D01*
X105631342Y-105660371D01*
X105558771Y-105624085D01*
X105413628Y-105624085D01*
X105341057Y-105660371D01*
X105304771Y-105696657D01*
X105268485Y-105769228D01*
X108534200Y-103777142D02*
X108497914Y-103813428D01*
X108389057Y-103849714D01*
X108316485Y-103849714D01*
X108207628Y-103813428D01*
X108135057Y-103740857D01*
X108098771Y-103668285D01*
X108062485Y-103523142D01*
X108062485Y-103414285D01*
X108098771Y-103269142D01*
X108135057Y-103196571D01*
X108207628Y-103124000D01*
X108316485Y-103087714D01*
X108389057Y-103087714D01*
X108497914Y-103124000D01*
X108534200Y-103160285D01*
X108788200Y-103087714D02*
X109296200Y-103087714D01*
X108969628Y-103849714D01*
X114147600Y-105986942D02*
X114111314Y-106023228D01*
X114002457Y-106059514D01*
X113929885Y-106059514D01*
X113821028Y-106023228D01*
X113748457Y-105950657D01*
X113712171Y-105878085D01*
X113675885Y-105732942D01*
X113675885Y-105624085D01*
X113712171Y-105478942D01*
X113748457Y-105406371D01*
X113821028Y-105333800D01*
X113929885Y-105297514D01*
X114002457Y-105297514D01*
X114111314Y-105333800D01*
X114147600Y-105370085D01*
X114800742Y-105297514D02*
X114655600Y-105297514D01*
X114583028Y-105333800D01*
X114546742Y-105370085D01*
X114474171Y-105478942D01*
X114437885Y-105624085D01*
X114437885Y-105914371D01*
X114474171Y-105986942D01*
X114510457Y-106023228D01*
X114583028Y-106059514D01*
X114728171Y-106059514D01*
X114800742Y-106023228D01*
X114837028Y-105986942D01*
X114873314Y-105914371D01*
X114873314Y-105732942D01*
X114837028Y-105660371D01*
X114800742Y-105624085D01*
X114728171Y-105587800D01*
X114583028Y-105587800D01*
X114510457Y-105624085D01*
X114474171Y-105660371D01*
X114437885Y-105732942D01*
X118636142Y-104013000D02*
X118672428Y-104049285D01*
X118708714Y-104158142D01*
X118708714Y-104230714D01*
X118672428Y-104339571D01*
X118599857Y-104412142D01*
X118527285Y-104448428D01*
X118382142Y-104484714D01*
X118273285Y-104484714D01*
X118128142Y-104448428D01*
X118055571Y-104412142D01*
X117983000Y-104339571D01*
X117946714Y-104230714D01*
X117946714Y-104158142D01*
X117983000Y-104049285D01*
X118019285Y-104013000D01*
X117946714Y-103323571D02*
X117946714Y-103686428D01*
X118309571Y-103722714D01*
X118273285Y-103686428D01*
X118237000Y-103613857D01*
X118237000Y-103432428D01*
X118273285Y-103359857D01*
X118309571Y-103323571D01*
X118382142Y-103287285D01*
X118563571Y-103287285D01*
X118636142Y-103323571D01*
X118672428Y-103359857D01*
X118708714Y-103432428D01*
X118708714Y-103613857D01*
X118672428Y-103686428D01*
X118636142Y-103722714D01*
X121920000Y-118001142D02*
X121883714Y-118037428D01*
X121774857Y-118073714D01*
X121702285Y-118073714D01*
X121593428Y-118037428D01*
X121520857Y-117964857D01*
X121484571Y-117892285D01*
X121448285Y-117747142D01*
X121448285Y-117638285D01*
X121484571Y-117493142D01*
X121520857Y-117420571D01*
X121593428Y-117348000D01*
X121702285Y-117311714D01*
X121774857Y-117311714D01*
X121883714Y-117348000D01*
X121920000Y-117384285D01*
X122573142Y-117565714D02*
X122573142Y-118073714D01*
X122391714Y-117275428D02*
X122210285Y-117819714D01*
X122682000Y-117819714D01*
X116146942Y-106324400D02*
X116183228Y-106360685D01*
X116219514Y-106469542D01*
X116219514Y-106542114D01*
X116183228Y-106650971D01*
X116110657Y-106723542D01*
X116038085Y-106759828D01*
X115892942Y-106796114D01*
X115784085Y-106796114D01*
X115638942Y-106759828D01*
X115566371Y-106723542D01*
X115493800Y-106650971D01*
X115457514Y-106542114D01*
X115457514Y-106469542D01*
X115493800Y-106360685D01*
X115530085Y-106324400D01*
X115457514Y-106070400D02*
X115457514Y-105598685D01*
X115747800Y-105852685D01*
X115747800Y-105743828D01*
X115784085Y-105671257D01*
X115820371Y-105634971D01*
X115892942Y-105598685D01*
X116074371Y-105598685D01*
X116146942Y-105634971D01*
X116183228Y-105671257D01*
X116219514Y-105743828D01*
X116219514Y-105961542D01*
X116183228Y-106034114D01*
X116146942Y-106070400D01*
X106172000Y-108679342D02*
X106135714Y-108715628D01*
X106026857Y-108751914D01*
X105954285Y-108751914D01*
X105845428Y-108715628D01*
X105772857Y-108643057D01*
X105736571Y-108570485D01*
X105700285Y-108425342D01*
X105700285Y-108316485D01*
X105736571Y-108171342D01*
X105772857Y-108098771D01*
X105845428Y-108026200D01*
X105954285Y-107989914D01*
X106026857Y-107989914D01*
X106135714Y-108026200D01*
X106172000Y-108062485D01*
X106462285Y-108062485D02*
X106498571Y-108026200D01*
X106571142Y-107989914D01*
X106752571Y-107989914D01*
X106825142Y-108026200D01*
X106861428Y-108062485D01*
X106897714Y-108135057D01*
X106897714Y-108207628D01*
X106861428Y-108316485D01*
X106426000Y-108751914D01*
X106897714Y-108751914D01*
X104800400Y-114953142D02*
X104764114Y-114989428D01*
X104655257Y-115025714D01*
X104582685Y-115025714D01*
X104473828Y-114989428D01*
X104401257Y-114916857D01*
X104364971Y-114844285D01*
X104328685Y-114699142D01*
X104328685Y-114590285D01*
X104364971Y-114445142D01*
X104401257Y-114372571D01*
X104473828Y-114300000D01*
X104582685Y-114263714D01*
X104655257Y-114263714D01*
X104764114Y-114300000D01*
X104800400Y-114336285D01*
X105526114Y-115025714D02*
X105090685Y-115025714D01*
X105308400Y-115025714D02*
X105308400Y-114263714D01*
X105235828Y-114372571D01*
X105163257Y-114445142D01*
X105090685Y-114481428D01*
D12*
X109780800Y-111414779D02*
X109780800Y-111089221D01*
X108760800Y-111414779D02*
X108760800Y-111089221D01*
X109780800Y-114437479D02*
X109780800Y-114111921D01*
X108760800Y-114437479D02*
X108760800Y-114111921D01*
X119415779Y-106170000D02*
X119090221Y-106170000D01*
X119415779Y-107190000D02*
X119090221Y-107190000D01*
X103049721Y-102760000D02*
X103375279Y-102760000D01*
X103049721Y-101740000D02*
X103375279Y-101740000D01*
X108270000Y-117033000D02*
X110170000Y-117033000D01*
X110170000Y-117033000D02*
X110170000Y-118933000D01*
X110170000Y-118933000D02*
X108270000Y-118933000D01*
X108270000Y-118933000D02*
X108270000Y-117033000D01*
X110810000Y-118933000D02*
X110810000Y-117033000D01*
X112710000Y-118933000D02*
X110810000Y-118933000D01*
X112710000Y-117033000D02*
X112710000Y-118933000D01*
X110810000Y-117033000D02*
X112710000Y-117033000D01*
X118870000Y-102986721D02*
X118870000Y-103312279D01*
X119890000Y-102986721D02*
X119890000Y-103312279D01*
X120394000Y-102986721D02*
X120394000Y-103312279D01*
X121414000Y-102986721D02*
X121414000Y-103312279D01*
X127917239Y-104388673D02*
X127591681Y-104388673D01*
X127917239Y-105408673D02*
X127591681Y-105408673D01*
X124322721Y-105405813D02*
X124648279Y-105405813D01*
X124322721Y-104385813D02*
X124648279Y-104385813D01*
X124777089Y-112012000D02*
X124451531Y-112012000D01*
X124777089Y-113032000D02*
X124451531Y-113032000D01*
X124772201Y-113536000D02*
X124446643Y-113536000D01*
X124772201Y-114556000D02*
X124446643Y-114556000D01*
D11*
X123600000Y-106432366D02*
X123600000Y-106957366D01*
X127900000Y-106432366D02*
X127900000Y-106957366D01*
X127900000Y-110732366D02*
X127900000Y-110207366D01*
X123600000Y-110732366D02*
X123600000Y-110207366D01*
X127900000Y-106432366D02*
X127375000Y-106432366D01*
X127900000Y-110732366D02*
X127375000Y-110732366D01*
X123600000Y-106432366D02*
X124125000Y-106432366D01*
X108306000Y-107092000D02*
X111306000Y-107092000D01*
X109806000Y-103842000D02*
X111306000Y-103842000D01*
D12*
X120254000Y-109166000D02*
X120254000Y-107876000D01*
X120704000Y-109166000D02*
X120254000Y-109166000D01*
X120704000Y-109616000D02*
X120704000Y-109166000D01*
X120704000Y-116386000D02*
X120254000Y-116386000D01*
X120704000Y-115936000D02*
X120704000Y-116386000D01*
X113484000Y-109166000D02*
X113934000Y-109166000D01*
X113484000Y-109616000D02*
X113484000Y-109166000D01*
X113484000Y-116386000D02*
X113934000Y-116386000D01*
X113484000Y-115936000D02*
X113484000Y-116386000D01*
X105610000Y-114081200D02*
X107410000Y-114081200D01*
X107410000Y-110861200D02*
X104960000Y-110861200D01*
X115572000Y-101991279D02*
X115572000Y-101665721D01*
X114552000Y-101991279D02*
X114552000Y-101665721D01*
X113028000Y-101665721D02*
X113028000Y-101991279D01*
X114048000Y-101665721D02*
X114048000Y-101991279D01*
X112524000Y-101991279D02*
X112524000Y-101665721D01*
X111504000Y-101991279D02*
X111504000Y-101665721D01*
X124453494Y-116083506D02*
X124779052Y-116083506D01*
X124453494Y-115063506D02*
X124779052Y-115063506D01*
X111304800Y-111414579D02*
X111304800Y-111089021D01*
X110284800Y-111414579D02*
X110284800Y-111089021D01*
X111304800Y-114462779D02*
X111304800Y-114137221D01*
X110284800Y-114462779D02*
X110284800Y-114137221D01*
X103594244Y-118190000D02*
X103919802Y-118190000D01*
X103594244Y-119210000D02*
X103919802Y-119210000D01*
X105339673Y-115342726D02*
X105339673Y-116802726D01*
X102179673Y-115342726D02*
X102179673Y-117502726D01*
X102179673Y-115342726D02*
X103109673Y-115342726D01*
X105339673Y-115342726D02*
X104409673Y-115342726D01*
X129346000Y-119510498D02*
X128016000Y-119510498D01*
X129346000Y-118180498D02*
X129346000Y-119510498D01*
X129346000Y-116910498D02*
X126686000Y-116910498D01*
X126686000Y-116910498D02*
X126686000Y-111770498D01*
X129346000Y-116910498D02*
X129346000Y-111770498D01*
X129346000Y-111770498D02*
X126686000Y-111770498D01*
X106936000Y-103261279D02*
X106936000Y-102935721D01*
X105916000Y-103261279D02*
X105916000Y-102935721D01*
X105916000Y-105983721D02*
X105916000Y-106309279D01*
X106936000Y-105983721D02*
X106936000Y-106309279D01*
X108523721Y-102821000D02*
X108849279Y-102821000D01*
X108523721Y-101801000D02*
X108849279Y-101801000D01*
X114264221Y-105031000D02*
X114589779Y-105031000D01*
X114264221Y-104011000D02*
X114589779Y-104011000D01*
X116076000Y-101665721D02*
X116076000Y-101991279D01*
X117096000Y-101665721D02*
X117096000Y-101991279D01*
X122336779Y-118362000D02*
X122011221Y-118362000D01*
X122336779Y-119382000D02*
X122011221Y-119382000D01*
X116457000Y-105755221D02*
X116457000Y-106080779D01*
X117477000Y-105755221D02*
X117477000Y-106080779D01*
X106360279Y-110059200D02*
X106034721Y-110059200D01*
X106360279Y-109039200D02*
X106034721Y-109039200D01*
X106872821Y-114501200D02*
X107198379Y-114501200D01*
X106872821Y-115521200D02*
X107198379Y-115521200D01*
M02*
