G04 #@! TF.GenerationSoftware,KiCad,Pcbnew,(5.99.0-2119-g1c72042fc)*
G04 #@! TF.CreationDate,2020-07-20T23:30:33+02:00*
G04 #@! TF.ProjectId,ledCollar_PCB,6c656443-6f6c-46c6-9172-5f5043422e6b,rev?*
G04 #@! TF.SameCoordinates,Original*
G04 #@! TF.FileFunction,Legend,Top*
G04 #@! TF.FilePolarity,Positive*
%FSLAX46Y46*%
G04 Gerber Fmt 4.6, Leading zero omitted, Abs format (unit mm)*
G04 Created by KiCad (PCBNEW (5.99.0-2119-g1c72042fc)) date 2020-07-20 23:30:33*
%MOMM*%
%LPD*%
G01*
G04 APERTURE LIST*
%ADD10C,0.127000*%
%ADD11C,0.150000*%
%ADD12C,0.120000*%
G04 APERTURE END LIST*
D10*
X129721428Y-111397142D02*
X129757714Y-111288285D01*
X129757714Y-111106857D01*
X129721428Y-111034285D01*
X129685142Y-110998000D01*
X129612571Y-110961714D01*
X129540000Y-110961714D01*
X129467428Y-110998000D01*
X129431142Y-111034285D01*
X129394857Y-111106857D01*
X129358571Y-111252000D01*
X129322285Y-111324571D01*
X129286000Y-111360857D01*
X129213428Y-111397142D01*
X129140857Y-111397142D01*
X129068285Y-111360857D01*
X129032000Y-111324571D01*
X128995714Y-111252000D01*
X128995714Y-111070571D01*
X129032000Y-110961714D01*
X128995714Y-110707714D02*
X129757714Y-110526285D01*
X129213428Y-110381142D01*
X129757714Y-110236000D01*
X128995714Y-110054571D01*
X129757714Y-109764285D02*
X128995714Y-109764285D01*
X128995714Y-109582857D01*
X129032000Y-109474000D01*
X129104571Y-109401428D01*
X129177142Y-109365142D01*
X129322285Y-109328857D01*
X129431142Y-109328857D01*
X129576285Y-109365142D01*
X129648857Y-109401428D01*
X129721428Y-109474000D01*
X129757714Y-109582857D01*
X129757714Y-109764285D01*
D11*
X122976047Y-101544380D02*
X122499857Y-101544380D01*
X122499857Y-100544380D01*
X123309380Y-101020571D02*
X123642714Y-101020571D01*
X123785571Y-101544380D02*
X123309380Y-101544380D01*
X123309380Y-100544380D01*
X123785571Y-100544380D01*
X124214142Y-101544380D02*
X124214142Y-100544380D01*
X124452238Y-100544380D01*
X124595095Y-100592000D01*
X124690333Y-100687238D01*
X124737952Y-100782476D01*
X124785571Y-100972952D01*
X124785571Y-101115809D01*
X124737952Y-101306285D01*
X124690333Y-101401523D01*
X124595095Y-101496761D01*
X124452238Y-101544380D01*
X124214142Y-101544380D01*
X125785571Y-101449142D02*
X125737952Y-101496761D01*
X125595095Y-101544380D01*
X125499857Y-101544380D01*
X125357000Y-101496761D01*
X125261761Y-101401523D01*
X125214142Y-101306285D01*
X125166523Y-101115809D01*
X125166523Y-100972952D01*
X125214142Y-100782476D01*
X125261761Y-100687238D01*
X125357000Y-100592000D01*
X125499857Y-100544380D01*
X125595095Y-100544380D01*
X125737952Y-100592000D01*
X125785571Y-100639619D01*
X126357000Y-101544380D02*
X126261761Y-101496761D01*
X126214142Y-101449142D01*
X126166523Y-101353904D01*
X126166523Y-101068190D01*
X126214142Y-100972952D01*
X126261761Y-100925333D01*
X126357000Y-100877714D01*
X126499857Y-100877714D01*
X126595095Y-100925333D01*
X126642714Y-100972952D01*
X126690333Y-101068190D01*
X126690333Y-101353904D01*
X126642714Y-101449142D01*
X126595095Y-101496761D01*
X126499857Y-101544380D01*
X126357000Y-101544380D01*
X127261761Y-101544380D02*
X127166523Y-101496761D01*
X127118904Y-101401523D01*
X127118904Y-100544380D01*
X127785571Y-101544380D02*
X127690333Y-101496761D01*
X127642714Y-101401523D01*
X127642714Y-100544380D01*
X128595095Y-101544380D02*
X128595095Y-101020571D01*
X128547476Y-100925333D01*
X128452238Y-100877714D01*
X128261761Y-100877714D01*
X128166523Y-100925333D01*
X128595095Y-101496761D02*
X128499857Y-101544380D01*
X128261761Y-101544380D01*
X128166523Y-101496761D01*
X128118904Y-101401523D01*
X128118904Y-101306285D01*
X128166523Y-101211047D01*
X128261761Y-101163428D01*
X128499857Y-101163428D01*
X128595095Y-101115809D01*
X129071285Y-101544380D02*
X129071285Y-100877714D01*
X129071285Y-101068190D02*
X129118904Y-100972952D01*
X129166523Y-100925333D01*
X129261761Y-100877714D01*
X129357000Y-100877714D01*
D10*
X127196835Y-102190571D02*
X127387311Y-102723904D01*
X127577788Y-102190571D01*
X128301597Y-102723904D02*
X127844454Y-102723904D01*
X128073026Y-102723904D02*
X128073026Y-101923904D01*
X127996835Y-102038190D01*
X127920645Y-102114380D01*
X127844454Y-102152476D01*
X128644454Y-102647714D02*
X128682550Y-102685809D01*
X128644454Y-102723904D01*
X128606359Y-102685809D01*
X128644454Y-102647714D01*
X128644454Y-102723904D01*
X129177788Y-101923904D02*
X129253978Y-101923904D01*
X129330169Y-101962000D01*
X129368264Y-102000095D01*
X129406359Y-102076285D01*
X129444454Y-102228666D01*
X129444454Y-102419142D01*
X129406359Y-102571523D01*
X129368264Y-102647714D01*
X129330169Y-102685809D01*
X129253978Y-102723904D01*
X129177788Y-102723904D01*
X129101597Y-102685809D01*
X129063502Y-102647714D01*
X129025407Y-102571523D01*
X128987311Y-102419142D01*
X128987311Y-102228666D01*
X129025407Y-102076285D01*
X129063502Y-102000095D01*
X129101597Y-101962000D01*
X129177788Y-101923904D01*
X126044778Y-113406704D02*
X126044778Y-112606704D01*
X126226207Y-112606704D01*
X126335064Y-112644800D01*
X126407635Y-112720990D01*
X126443921Y-112797180D01*
X126480207Y-112949561D01*
X126480207Y-113063847D01*
X126443921Y-113216228D01*
X126407635Y-113292419D01*
X126335064Y-113368609D01*
X126226207Y-113406704D01*
X126044778Y-113406704D01*
X126480207Y-115906514D02*
X126443921Y-115944609D01*
X126335064Y-115982704D01*
X126262492Y-115982704D01*
X126153635Y-115944609D01*
X126081064Y-115868419D01*
X126044778Y-115792228D01*
X126008492Y-115639847D01*
X126008492Y-115525561D01*
X126044778Y-115373180D01*
X126081064Y-115296990D01*
X126153635Y-115220800D01*
X126262492Y-115182704D01*
X126335064Y-115182704D01*
X126443921Y-115220800D01*
X126480207Y-115258895D01*
X126443921Y-117796800D02*
X126371350Y-117758704D01*
X126262492Y-117758704D01*
X126153635Y-117796800D01*
X126081064Y-117872990D01*
X126044778Y-117949180D01*
X126008492Y-118101561D01*
X126008492Y-118215847D01*
X126044778Y-118368228D01*
X126081064Y-118444419D01*
X126153635Y-118520609D01*
X126262492Y-118558704D01*
X126335064Y-118558704D01*
X126443921Y-118520609D01*
X126480207Y-118482514D01*
X126480207Y-118215847D01*
X126335064Y-118215847D01*
D11*
X108839047Y-116403428D02*
X109600952Y-116403428D01*
X111379047Y-116403428D02*
X112140952Y-116403428D01*
X111760000Y-116784380D02*
X111760000Y-116022476D01*
D10*
X102796521Y-104641480D02*
X103050521Y-105431480D01*
X103304521Y-104641480D01*
X103993950Y-105356242D02*
X103957664Y-105393861D01*
X103848807Y-105431480D01*
X103776235Y-105431480D01*
X103667378Y-105393861D01*
X103594807Y-105318623D01*
X103558521Y-105243385D01*
X103522235Y-105092909D01*
X103522235Y-104980052D01*
X103558521Y-104829576D01*
X103594807Y-104754338D01*
X103667378Y-104679100D01*
X103776235Y-104641480D01*
X103848807Y-104641480D01*
X103957664Y-104679100D01*
X103993950Y-104716719D01*
X104755950Y-105356242D02*
X104719664Y-105393861D01*
X104610807Y-105431480D01*
X104538235Y-105431480D01*
X104429378Y-105393861D01*
X104356807Y-105318623D01*
X104320521Y-105243385D01*
X104284235Y-105092909D01*
X104284235Y-104980052D01*
X104320521Y-104829576D01*
X104356807Y-104754338D01*
X104429378Y-104679100D01*
X104538235Y-104641480D01*
X104610807Y-104641480D01*
X104719664Y-104679100D01*
X104755950Y-104716719D01*
X102905378Y-107975280D02*
X102905378Y-107185280D01*
X103086807Y-107185280D01*
X103195664Y-107222900D01*
X103268235Y-107298138D01*
X103304521Y-107373376D01*
X103340807Y-107523852D01*
X103340807Y-107636709D01*
X103304521Y-107787185D01*
X103268235Y-107862423D01*
X103195664Y-107937661D01*
X103086807Y-107975280D01*
X102905378Y-107975280D01*
X103631092Y-107749566D02*
X103993950Y-107749566D01*
X103558521Y-107975280D02*
X103812521Y-107185280D01*
X104066521Y-107975280D01*
X104211664Y-107185280D02*
X104647092Y-107185280D01*
X104429378Y-107975280D02*
X104429378Y-107185280D01*
X104864807Y-107749566D02*
X105227664Y-107749566D01*
X104792235Y-107975280D02*
X105046235Y-107185280D01*
X105300235Y-107975280D01*
X103340807Y-110443842D02*
X103304521Y-110481461D01*
X103195664Y-110519080D01*
X103123092Y-110519080D01*
X103014235Y-110481461D01*
X102941664Y-110406223D01*
X102905378Y-110330985D01*
X102869092Y-110180509D01*
X102869092Y-110067652D01*
X102905378Y-109917176D01*
X102941664Y-109841938D01*
X103014235Y-109766700D01*
X103123092Y-109729080D01*
X103195664Y-109729080D01*
X103304521Y-109766700D01*
X103340807Y-109804319D01*
X104030235Y-110519080D02*
X103667378Y-110519080D01*
X103667378Y-109729080D01*
X104284235Y-110519080D02*
X104284235Y-109729080D01*
X104719664Y-110519080D02*
X104393092Y-110067652D01*
X104719664Y-109729080D02*
X104284235Y-110180509D01*
X103304521Y-112310500D02*
X103231950Y-112272880D01*
X103123092Y-112272880D01*
X103014235Y-112310500D01*
X102941664Y-112385738D01*
X102905378Y-112460976D01*
X102869092Y-112611452D01*
X102869092Y-112724309D01*
X102905378Y-112874785D01*
X102941664Y-112950023D01*
X103014235Y-113025261D01*
X103123092Y-113062880D01*
X103195664Y-113062880D01*
X103304521Y-113025261D01*
X103340807Y-112987642D01*
X103340807Y-112724309D01*
X103195664Y-112724309D01*
X103667378Y-113062880D02*
X103667378Y-112272880D01*
X104102807Y-113062880D01*
X104102807Y-112272880D01*
X104465664Y-113062880D02*
X104465664Y-112272880D01*
X104647092Y-112272880D01*
X104755950Y-112310500D01*
X104828521Y-112385738D01*
X104864807Y-112460976D01*
X104901092Y-112611452D01*
X104901092Y-112724309D01*
X104864807Y-112874785D01*
X104828521Y-112950023D01*
X104755950Y-113025261D01*
X104647092Y-113062880D01*
X104465664Y-113062880D01*
X101346000Y-113755714D02*
X101346000Y-114300000D01*
X101309714Y-114408857D01*
X101237142Y-114481428D01*
X101128285Y-114517714D01*
X101055714Y-114517714D01*
X101636285Y-113755714D02*
X102108000Y-113755714D01*
X101854000Y-114046000D01*
X101962857Y-114046000D01*
X102035428Y-114082285D01*
X102071714Y-114118571D01*
X102108000Y-114191142D01*
X102108000Y-114372571D01*
X102071714Y-114445142D01*
X102035428Y-114481428D01*
X101962857Y-114517714D01*
X101745142Y-114517714D01*
X101672571Y-114481428D01*
X101636285Y-114445142D01*
X101144714Y-103489857D02*
X100781857Y-103743857D01*
X101144714Y-103925285D02*
X100382714Y-103925285D01*
X100382714Y-103635000D01*
X100419000Y-103562428D01*
X100455285Y-103526142D01*
X100527857Y-103489857D01*
X100636714Y-103489857D01*
X100709285Y-103526142D01*
X100745571Y-103562428D01*
X100781857Y-103635000D01*
X100781857Y-103925285D01*
X101144714Y-102764142D02*
X101144714Y-103199571D01*
X101144714Y-102981857D02*
X100382714Y-102981857D01*
X100491571Y-103054428D01*
X100564142Y-103127000D01*
X100600428Y-103199571D01*
X100382714Y-102292428D02*
X100382714Y-102219857D01*
X100419000Y-102147285D01*
X100455285Y-102111000D01*
X100527857Y-102074714D01*
X100673000Y-102038428D01*
X100854428Y-102038428D01*
X100999571Y-102074714D01*
X101072142Y-102111000D01*
X101108428Y-102147285D01*
X101144714Y-102219857D01*
X101144714Y-102292428D01*
X101108428Y-102365000D01*
X101072142Y-102401285D01*
X100999571Y-102437571D01*
X100854428Y-102473857D01*
X100673000Y-102473857D01*
X100527857Y-102437571D01*
X100455285Y-102401285D01*
X100419000Y-102365000D01*
X100382714Y-102292428D01*
X119724714Y-101092000D02*
X119361857Y-101346000D01*
X119724714Y-101527428D02*
X118962714Y-101527428D01*
X118962714Y-101237142D01*
X118999000Y-101164571D01*
X119035285Y-101128285D01*
X119107857Y-101092000D01*
X119216714Y-101092000D01*
X119289285Y-101128285D01*
X119325571Y-101164571D01*
X119361857Y-101237142D01*
X119361857Y-101527428D01*
X119724714Y-100729142D02*
X119724714Y-100584000D01*
X119688428Y-100511428D01*
X119652142Y-100475142D01*
X119543285Y-100402571D01*
X119398142Y-100366285D01*
X119107857Y-100366285D01*
X119035285Y-100402571D01*
X118999000Y-100438857D01*
X118962714Y-100511428D01*
X118962714Y-100656571D01*
X118999000Y-100729142D01*
X119035285Y-100765428D01*
X119107857Y-100801714D01*
X119289285Y-100801714D01*
X119361857Y-100765428D01*
X119398142Y-100729142D01*
X119434428Y-100656571D01*
X119434428Y-100511428D01*
X119398142Y-100438857D01*
X119361857Y-100402571D01*
X119289285Y-100366285D01*
X121248714Y-101092000D02*
X120885857Y-101346000D01*
X121248714Y-101527428D02*
X120486714Y-101527428D01*
X120486714Y-101237142D01*
X120523000Y-101164571D01*
X120559285Y-101128285D01*
X120631857Y-101092000D01*
X120740714Y-101092000D01*
X120813285Y-101128285D01*
X120849571Y-101164571D01*
X120885857Y-101237142D01*
X120885857Y-101527428D01*
X120813285Y-100656571D02*
X120777000Y-100729142D01*
X120740714Y-100765428D01*
X120668142Y-100801714D01*
X120631857Y-100801714D01*
X120559285Y-100765428D01*
X120523000Y-100729142D01*
X120486714Y-100656571D01*
X120486714Y-100511428D01*
X120523000Y-100438857D01*
X120559285Y-100402571D01*
X120631857Y-100366285D01*
X120668142Y-100366285D01*
X120740714Y-100402571D01*
X120777000Y-100438857D01*
X120813285Y-100511428D01*
X120813285Y-100656571D01*
X120849571Y-100729142D01*
X120885857Y-100765428D01*
X120958428Y-100801714D01*
X121103571Y-100801714D01*
X121176142Y-100765428D01*
X121212428Y-100729142D01*
X121248714Y-100656571D01*
X121248714Y-100511428D01*
X121212428Y-100438857D01*
X121176142Y-100402571D01*
X121103571Y-100366285D01*
X120958428Y-100366285D01*
X120885857Y-100402571D01*
X120849571Y-100438857D01*
X120813285Y-100511428D01*
X127907142Y-104031142D02*
X127870857Y-104067428D01*
X127762000Y-104103714D01*
X127689428Y-104103714D01*
X127580571Y-104067428D01*
X127508000Y-103994857D01*
X127471714Y-103922285D01*
X127435428Y-103777142D01*
X127435428Y-103668285D01*
X127471714Y-103523142D01*
X127508000Y-103450571D01*
X127580571Y-103378000D01*
X127689428Y-103341714D01*
X127762000Y-103341714D01*
X127870857Y-103378000D01*
X127907142Y-103414285D01*
X128632857Y-104103714D02*
X128197428Y-104103714D01*
X128415142Y-104103714D02*
X128415142Y-103341714D01*
X128342571Y-103450571D01*
X128270000Y-103523142D01*
X128197428Y-103559428D01*
X128886857Y-103341714D02*
X129358571Y-103341714D01*
X129104571Y-103632000D01*
X129213428Y-103632000D01*
X129286000Y-103668285D01*
X129322285Y-103704571D01*
X129358571Y-103777142D01*
X129358571Y-103958571D01*
X129322285Y-104031142D01*
X129286000Y-104067428D01*
X129213428Y-104103714D01*
X128995714Y-104103714D01*
X128923142Y-104067428D01*
X128886857Y-104031142D01*
X121557142Y-105301142D02*
X121520857Y-105337428D01*
X121412000Y-105373714D01*
X121339428Y-105373714D01*
X121230571Y-105337428D01*
X121158000Y-105264857D01*
X121121714Y-105192285D01*
X121085428Y-105047142D01*
X121085428Y-104938285D01*
X121121714Y-104793142D01*
X121158000Y-104720571D01*
X121230571Y-104648000D01*
X121339428Y-104611714D01*
X121412000Y-104611714D01*
X121520857Y-104648000D01*
X121557142Y-104684285D01*
X122282857Y-105373714D02*
X121847428Y-105373714D01*
X122065142Y-105373714D02*
X122065142Y-104611714D01*
X121992571Y-104720571D01*
X121920000Y-104793142D01*
X121847428Y-104829428D01*
X122573142Y-104684285D02*
X122609428Y-104648000D01*
X122682000Y-104611714D01*
X122863428Y-104611714D01*
X122936000Y-104648000D01*
X122972285Y-104684285D01*
X123008571Y-104756857D01*
X123008571Y-104829428D01*
X122972285Y-104938285D01*
X122536857Y-105373714D01*
X123008571Y-105373714D01*
X124986142Y-111778142D02*
X124949857Y-111814428D01*
X124841000Y-111850714D01*
X124768428Y-111850714D01*
X124659571Y-111814428D01*
X124587000Y-111741857D01*
X124550714Y-111669285D01*
X124514428Y-111524142D01*
X124514428Y-111415285D01*
X124550714Y-111270142D01*
X124587000Y-111197571D01*
X124659571Y-111125000D01*
X124768428Y-111088714D01*
X124841000Y-111088714D01*
X124949857Y-111125000D01*
X124986142Y-111161285D01*
X125711857Y-111850714D02*
X125276428Y-111850714D01*
X125494142Y-111850714D02*
X125494142Y-111088714D01*
X125421571Y-111197571D01*
X125349000Y-111270142D01*
X125276428Y-111306428D01*
X126437571Y-111850714D02*
X126002142Y-111850714D01*
X126219857Y-111850714D02*
X126219857Y-111088714D01*
X126147285Y-111197571D01*
X126074714Y-111270142D01*
X126002142Y-111306428D01*
X123081142Y-114662857D02*
X123117428Y-114699142D01*
X123153714Y-114808000D01*
X123153714Y-114880571D01*
X123117428Y-114989428D01*
X123044857Y-115062000D01*
X122972285Y-115098285D01*
X122827142Y-115134571D01*
X122718285Y-115134571D01*
X122573142Y-115098285D01*
X122500571Y-115062000D01*
X122428000Y-114989428D01*
X122391714Y-114880571D01*
X122391714Y-114808000D01*
X122428000Y-114699142D01*
X122464285Y-114662857D01*
X123153714Y-113937142D02*
X123153714Y-114372571D01*
X123153714Y-114154857D02*
X122391714Y-114154857D01*
X122500571Y-114227428D01*
X122573142Y-114300000D01*
X122609428Y-114372571D01*
X122391714Y-113465428D02*
X122391714Y-113392857D01*
X122428000Y-113320285D01*
X122464285Y-113284000D01*
X122536857Y-113247714D01*
X122682000Y-113211428D01*
X122863428Y-113211428D01*
X123008571Y-113247714D01*
X123081142Y-113284000D01*
X123117428Y-113320285D01*
X123153714Y-113392857D01*
X123153714Y-113465428D01*
X123117428Y-113538000D01*
X123081142Y-113574285D01*
X123008571Y-113610571D01*
X122863428Y-113646857D01*
X122682000Y-113646857D01*
X122536857Y-113610571D01*
X122464285Y-113574285D01*
X122428000Y-113538000D01*
X122391714Y-113465428D01*
X121847428Y-108548714D02*
X121847428Y-109165571D01*
X121883714Y-109238142D01*
X121920000Y-109274428D01*
X121992571Y-109310714D01*
X122137714Y-109310714D01*
X122210285Y-109274428D01*
X122246571Y-109238142D01*
X122282857Y-109165571D01*
X122282857Y-108548714D01*
X123008571Y-108548714D02*
X122645714Y-108548714D01*
X122609428Y-108911571D01*
X122645714Y-108875285D01*
X122718285Y-108839000D01*
X122899714Y-108839000D01*
X122972285Y-108875285D01*
X123008571Y-108911571D01*
X123044857Y-108984142D01*
X123044857Y-109165571D01*
X123008571Y-109238142D01*
X122972285Y-109274428D01*
X122899714Y-109310714D01*
X122718285Y-109310714D01*
X122645714Y-109274428D01*
X122609428Y-109238142D01*
X108639428Y-107532714D02*
X108639428Y-108149571D01*
X108675714Y-108222142D01*
X108712000Y-108258428D01*
X108784571Y-108294714D01*
X108929714Y-108294714D01*
X109002285Y-108258428D01*
X109038571Y-108222142D01*
X109074857Y-108149571D01*
X109074857Y-107532714D01*
X109764285Y-107786714D02*
X109764285Y-108294714D01*
X109582857Y-107496428D02*
X109401428Y-108040714D01*
X109873142Y-108040714D01*
X112576428Y-108040714D02*
X112576428Y-108657571D01*
X112612714Y-108730142D01*
X112649000Y-108766428D01*
X112721571Y-108802714D01*
X112866714Y-108802714D01*
X112939285Y-108766428D01*
X112975571Y-108730142D01*
X113011857Y-108657571D01*
X113011857Y-108040714D01*
X113338428Y-108113285D02*
X113374714Y-108077000D01*
X113447285Y-108040714D01*
X113628714Y-108040714D01*
X113701285Y-108077000D01*
X113737571Y-108113285D01*
X113773857Y-108185857D01*
X113773857Y-108258428D01*
X113737571Y-108367285D01*
X113302142Y-108802714D01*
X113773857Y-108802714D01*
X104550028Y-111012514D02*
X104550028Y-111629371D01*
X104586314Y-111701942D01*
X104622600Y-111738228D01*
X104695171Y-111774514D01*
X104840314Y-111774514D01*
X104912885Y-111738228D01*
X104949171Y-111701942D01*
X104985457Y-111629371D01*
X104985457Y-111012514D01*
X105747457Y-111774514D02*
X105312028Y-111774514D01*
X105529742Y-111774514D02*
X105529742Y-111012514D01*
X105457171Y-111121371D01*
X105384600Y-111193942D01*
X105312028Y-111230228D01*
X117692714Y-104013000D02*
X117329857Y-104267000D01*
X117692714Y-104448428D02*
X116930714Y-104448428D01*
X116930714Y-104158142D01*
X116967000Y-104085571D01*
X117003285Y-104049285D01*
X117075857Y-104013000D01*
X117184714Y-104013000D01*
X117257285Y-104049285D01*
X117293571Y-104085571D01*
X117329857Y-104158142D01*
X117329857Y-104448428D01*
X116930714Y-103759000D02*
X116930714Y-103251000D01*
X117692714Y-103577571D01*
X116676714Y-104013000D02*
X116313857Y-104267000D01*
X116676714Y-104448428D02*
X115914714Y-104448428D01*
X115914714Y-104158142D01*
X115951000Y-104085571D01*
X115987285Y-104049285D01*
X116059857Y-104013000D01*
X116168714Y-104013000D01*
X116241285Y-104049285D01*
X116277571Y-104085571D01*
X116313857Y-104158142D01*
X116313857Y-104448428D01*
X115914714Y-103359857D02*
X115914714Y-103505000D01*
X115951000Y-103577571D01*
X115987285Y-103613857D01*
X116096142Y-103686428D01*
X116241285Y-103722714D01*
X116531571Y-103722714D01*
X116604142Y-103686428D01*
X116640428Y-103650142D01*
X116676714Y-103577571D01*
X116676714Y-103432428D01*
X116640428Y-103359857D01*
X116604142Y-103323571D01*
X116531571Y-103287285D01*
X116350142Y-103287285D01*
X116277571Y-103323571D01*
X116241285Y-103359857D01*
X116205000Y-103432428D01*
X116205000Y-103577571D01*
X116241285Y-103650142D01*
X116277571Y-103686428D01*
X116350142Y-103722714D01*
X111215714Y-101854000D02*
X110852857Y-102108000D01*
X111215714Y-102289428D02*
X110453714Y-102289428D01*
X110453714Y-101999142D01*
X110490000Y-101926571D01*
X110526285Y-101890285D01*
X110598857Y-101854000D01*
X110707714Y-101854000D01*
X110780285Y-101890285D01*
X110816571Y-101926571D01*
X110852857Y-101999142D01*
X110852857Y-102289428D01*
X110453714Y-101164571D02*
X110453714Y-101527428D01*
X110816571Y-101563714D01*
X110780285Y-101527428D01*
X110744000Y-101454857D01*
X110744000Y-101273428D01*
X110780285Y-101200857D01*
X110816571Y-101164571D01*
X110889142Y-101128285D01*
X111070571Y-101128285D01*
X111143142Y-101164571D01*
X111179428Y-101200857D01*
X111215714Y-101273428D01*
X111215714Y-101454857D01*
X111179428Y-101527428D01*
X111143142Y-101563714D01*
X124129800Y-117083114D02*
X123875800Y-116720257D01*
X123694371Y-117083114D02*
X123694371Y-116321114D01*
X123984657Y-116321114D01*
X124057228Y-116357400D01*
X124093514Y-116393685D01*
X124129800Y-116466257D01*
X124129800Y-116575114D01*
X124093514Y-116647685D01*
X124057228Y-116683971D01*
X123984657Y-116720257D01*
X123694371Y-116720257D01*
X124782942Y-116575114D02*
X124782942Y-117083114D01*
X124601514Y-116284828D02*
X124420085Y-116829114D01*
X124891800Y-116829114D01*
X110072714Y-112395000D02*
X109709857Y-112649000D01*
X110072714Y-112830428D02*
X109310714Y-112830428D01*
X109310714Y-112540142D01*
X109347000Y-112467571D01*
X109383285Y-112431285D01*
X109455857Y-112395000D01*
X109564714Y-112395000D01*
X109637285Y-112431285D01*
X109673571Y-112467571D01*
X109709857Y-112540142D01*
X109709857Y-112830428D01*
X109310714Y-112141000D02*
X109310714Y-111669285D01*
X109601000Y-111923285D01*
X109601000Y-111814428D01*
X109637285Y-111741857D01*
X109673571Y-111705571D01*
X109746142Y-111669285D01*
X109927571Y-111669285D01*
X110000142Y-111705571D01*
X110036428Y-111741857D01*
X110072714Y-111814428D01*
X110072714Y-112032142D01*
X110036428Y-112104714D01*
X110000142Y-112141000D01*
X110072714Y-114808000D02*
X109709857Y-115062000D01*
X110072714Y-115243428D02*
X109310714Y-115243428D01*
X109310714Y-114953142D01*
X109347000Y-114880571D01*
X109383285Y-114844285D01*
X109455857Y-114808000D01*
X109564714Y-114808000D01*
X109637285Y-114844285D01*
X109673571Y-114880571D01*
X109709857Y-114953142D01*
X109709857Y-115243428D01*
X109383285Y-114517714D02*
X109347000Y-114481428D01*
X109310714Y-114408857D01*
X109310714Y-114227428D01*
X109347000Y-114154857D01*
X109383285Y-114118571D01*
X109455857Y-114082285D01*
X109528428Y-114082285D01*
X109637285Y-114118571D01*
X110072714Y-114554000D01*
X110072714Y-114082285D01*
X101346000Y-119089714D02*
X101092000Y-118726857D01*
X100910571Y-119089714D02*
X100910571Y-118327714D01*
X101200857Y-118327714D01*
X101273428Y-118364000D01*
X101309714Y-118400285D01*
X101346000Y-118472857D01*
X101346000Y-118581714D01*
X101309714Y-118654285D01*
X101273428Y-118690571D01*
X101200857Y-118726857D01*
X100910571Y-118726857D01*
X102071714Y-119089714D02*
X101636285Y-119089714D01*
X101854000Y-119089714D02*
X101854000Y-118327714D01*
X101781428Y-118436571D01*
X101708857Y-118509142D01*
X101636285Y-118545428D01*
X101273428Y-116876285D02*
X101200857Y-116840000D01*
X101128285Y-116767428D01*
X101019428Y-116658571D01*
X100946857Y-116622285D01*
X100874285Y-116622285D01*
X100910571Y-116803714D02*
X100838000Y-116767428D01*
X100765428Y-116694857D01*
X100729142Y-116549714D01*
X100729142Y-116295714D01*
X100765428Y-116150571D01*
X100838000Y-116078000D01*
X100910571Y-116041714D01*
X101055714Y-116041714D01*
X101128285Y-116078000D01*
X101200857Y-116150571D01*
X101237142Y-116295714D01*
X101237142Y-116549714D01*
X101200857Y-116694857D01*
X101128285Y-116767428D01*
X101055714Y-116803714D01*
X100910571Y-116803714D01*
X101962857Y-116803714D02*
X101527428Y-116803714D01*
X101745142Y-116803714D02*
X101745142Y-116041714D01*
X101672571Y-116150571D01*
X101600000Y-116223142D01*
X101527428Y-116259428D01*
X105682142Y-103860600D02*
X105718428Y-103896885D01*
X105754714Y-104005742D01*
X105754714Y-104078314D01*
X105718428Y-104187171D01*
X105645857Y-104259742D01*
X105573285Y-104296028D01*
X105428142Y-104332314D01*
X105319285Y-104332314D01*
X105174142Y-104296028D01*
X105101571Y-104259742D01*
X105029000Y-104187171D01*
X104992714Y-104078314D01*
X104992714Y-104005742D01*
X105029000Y-103896885D01*
X105065285Y-103860600D01*
X105754714Y-103497742D02*
X105754714Y-103352600D01*
X105718428Y-103280028D01*
X105682142Y-103243742D01*
X105573285Y-103171171D01*
X105428142Y-103134885D01*
X105137857Y-103134885D01*
X105065285Y-103171171D01*
X105029000Y-103207457D01*
X104992714Y-103280028D01*
X104992714Y-103425171D01*
X105029000Y-103497742D01*
X105065285Y-103534028D01*
X105137857Y-103570314D01*
X105319285Y-103570314D01*
X105391857Y-103534028D01*
X105428142Y-103497742D01*
X105464428Y-103425171D01*
X105464428Y-103280028D01*
X105428142Y-103207457D01*
X105391857Y-103171171D01*
X105319285Y-103134885D01*
X105631342Y-106451400D02*
X105667628Y-106487685D01*
X105703914Y-106596542D01*
X105703914Y-106669114D01*
X105667628Y-106777971D01*
X105595057Y-106850542D01*
X105522485Y-106886828D01*
X105377342Y-106923114D01*
X105268485Y-106923114D01*
X105123342Y-106886828D01*
X105050771Y-106850542D01*
X104978200Y-106777971D01*
X104941914Y-106669114D01*
X104941914Y-106596542D01*
X104978200Y-106487685D01*
X105014485Y-106451400D01*
X105268485Y-106015971D02*
X105232200Y-106088542D01*
X105195914Y-106124828D01*
X105123342Y-106161114D01*
X105087057Y-106161114D01*
X105014485Y-106124828D01*
X104978200Y-106088542D01*
X104941914Y-106015971D01*
X104941914Y-105870828D01*
X104978200Y-105798257D01*
X105014485Y-105761971D01*
X105087057Y-105725685D01*
X105123342Y-105725685D01*
X105195914Y-105761971D01*
X105232200Y-105798257D01*
X105268485Y-105870828D01*
X105268485Y-106015971D01*
X105304771Y-106088542D01*
X105341057Y-106124828D01*
X105413628Y-106161114D01*
X105558771Y-106161114D01*
X105631342Y-106124828D01*
X105667628Y-106088542D01*
X105703914Y-106015971D01*
X105703914Y-105870828D01*
X105667628Y-105798257D01*
X105631342Y-105761971D01*
X105558771Y-105725685D01*
X105413628Y-105725685D01*
X105341057Y-105761971D01*
X105304771Y-105798257D01*
X105268485Y-105870828D01*
X108534200Y-103777142D02*
X108497914Y-103813428D01*
X108389057Y-103849714D01*
X108316485Y-103849714D01*
X108207628Y-103813428D01*
X108135057Y-103740857D01*
X108098771Y-103668285D01*
X108062485Y-103523142D01*
X108062485Y-103414285D01*
X108098771Y-103269142D01*
X108135057Y-103196571D01*
X108207628Y-103124000D01*
X108316485Y-103087714D01*
X108389057Y-103087714D01*
X108497914Y-103124000D01*
X108534200Y-103160285D01*
X108788200Y-103087714D02*
X109296200Y-103087714D01*
X108969628Y-103849714D01*
X114325400Y-105986942D02*
X114289114Y-106023228D01*
X114180257Y-106059514D01*
X114107685Y-106059514D01*
X113998828Y-106023228D01*
X113926257Y-105950657D01*
X113889971Y-105878085D01*
X113853685Y-105732942D01*
X113853685Y-105624085D01*
X113889971Y-105478942D01*
X113926257Y-105406371D01*
X113998828Y-105333800D01*
X114107685Y-105297514D01*
X114180257Y-105297514D01*
X114289114Y-105333800D01*
X114325400Y-105370085D01*
X114978542Y-105297514D02*
X114833400Y-105297514D01*
X114760828Y-105333800D01*
X114724542Y-105370085D01*
X114651971Y-105478942D01*
X114615685Y-105624085D01*
X114615685Y-105914371D01*
X114651971Y-105986942D01*
X114688257Y-106023228D01*
X114760828Y-106059514D01*
X114905971Y-106059514D01*
X114978542Y-106023228D01*
X115014828Y-105986942D01*
X115051114Y-105914371D01*
X115051114Y-105732942D01*
X115014828Y-105660371D01*
X114978542Y-105624085D01*
X114905971Y-105587800D01*
X114760828Y-105587800D01*
X114688257Y-105624085D01*
X114651971Y-105660371D01*
X114615685Y-105732942D01*
X118636142Y-104013000D02*
X118672428Y-104049285D01*
X118708714Y-104158142D01*
X118708714Y-104230714D01*
X118672428Y-104339571D01*
X118599857Y-104412142D01*
X118527285Y-104448428D01*
X118382142Y-104484714D01*
X118273285Y-104484714D01*
X118128142Y-104448428D01*
X118055571Y-104412142D01*
X117983000Y-104339571D01*
X117946714Y-104230714D01*
X117946714Y-104158142D01*
X117983000Y-104049285D01*
X118019285Y-104013000D01*
X117946714Y-103323571D02*
X117946714Y-103686428D01*
X118309571Y-103722714D01*
X118273285Y-103686428D01*
X118237000Y-103613857D01*
X118237000Y-103432428D01*
X118273285Y-103359857D01*
X118309571Y-103323571D01*
X118382142Y-103287285D01*
X118563571Y-103287285D01*
X118636142Y-103323571D01*
X118672428Y-103359857D01*
X118708714Y-103432428D01*
X118708714Y-103613857D01*
X118672428Y-103686428D01*
X118636142Y-103722714D01*
X121920000Y-118001142D02*
X121883714Y-118037428D01*
X121774857Y-118073714D01*
X121702285Y-118073714D01*
X121593428Y-118037428D01*
X121520857Y-117964857D01*
X121484571Y-117892285D01*
X121448285Y-117747142D01*
X121448285Y-117638285D01*
X121484571Y-117493142D01*
X121520857Y-117420571D01*
X121593428Y-117348000D01*
X121702285Y-117311714D01*
X121774857Y-117311714D01*
X121883714Y-117348000D01*
X121920000Y-117384285D01*
X122573142Y-117565714D02*
X122573142Y-118073714D01*
X122391714Y-117275428D02*
X122210285Y-117819714D01*
X122682000Y-117819714D01*
X115824000Y-107079142D02*
X115787714Y-107115428D01*
X115678857Y-107151714D01*
X115606285Y-107151714D01*
X115497428Y-107115428D01*
X115424857Y-107042857D01*
X115388571Y-106970285D01*
X115352285Y-106825142D01*
X115352285Y-106716285D01*
X115388571Y-106571142D01*
X115424857Y-106498571D01*
X115497428Y-106426000D01*
X115606285Y-106389714D01*
X115678857Y-106389714D01*
X115787714Y-106426000D01*
X115824000Y-106462285D01*
X116078000Y-106389714D02*
X116549714Y-106389714D01*
X116295714Y-106680000D01*
X116404571Y-106680000D01*
X116477142Y-106716285D01*
X116513428Y-106752571D01*
X116549714Y-106825142D01*
X116549714Y-107006571D01*
X116513428Y-107079142D01*
X116477142Y-107115428D01*
X116404571Y-107151714D01*
X116186857Y-107151714D01*
X116114285Y-107115428D01*
X116078000Y-107079142D01*
X106197400Y-108730142D02*
X106161114Y-108766428D01*
X106052257Y-108802714D01*
X105979685Y-108802714D01*
X105870828Y-108766428D01*
X105798257Y-108693857D01*
X105761971Y-108621285D01*
X105725685Y-108476142D01*
X105725685Y-108367285D01*
X105761971Y-108222142D01*
X105798257Y-108149571D01*
X105870828Y-108077000D01*
X105979685Y-108040714D01*
X106052257Y-108040714D01*
X106161114Y-108077000D01*
X106197400Y-108113285D01*
X106487685Y-108113285D02*
X106523971Y-108077000D01*
X106596542Y-108040714D01*
X106777971Y-108040714D01*
X106850542Y-108077000D01*
X106886828Y-108113285D01*
X106923114Y-108185857D01*
X106923114Y-108258428D01*
X106886828Y-108367285D01*
X106451400Y-108802714D01*
X106923114Y-108802714D01*
X105664000Y-115080142D02*
X105627714Y-115116428D01*
X105518857Y-115152714D01*
X105446285Y-115152714D01*
X105337428Y-115116428D01*
X105264857Y-115043857D01*
X105228571Y-114971285D01*
X105192285Y-114826142D01*
X105192285Y-114717285D01*
X105228571Y-114572142D01*
X105264857Y-114499571D01*
X105337428Y-114427000D01*
X105446285Y-114390714D01*
X105518857Y-114390714D01*
X105627714Y-114427000D01*
X105664000Y-114463285D01*
X106389714Y-115152714D02*
X105954285Y-115152714D01*
X106172000Y-115152714D02*
X106172000Y-114390714D01*
X106099428Y-114499571D01*
X106026857Y-114572142D01*
X105954285Y-114608428D01*
D12*
X103049721Y-102760000D02*
X103375279Y-102760000D01*
X103049721Y-101740000D02*
X103375279Y-101740000D01*
X108270000Y-117033000D02*
X110170000Y-117033000D01*
X110170000Y-117033000D02*
X110170000Y-118933000D01*
X110170000Y-118933000D02*
X108270000Y-118933000D01*
X108270000Y-118933000D02*
X108270000Y-117033000D01*
X110810000Y-118933000D02*
X110810000Y-117033000D01*
X112710000Y-118933000D02*
X110810000Y-118933000D01*
X112710000Y-117033000D02*
X112710000Y-118933000D01*
X110810000Y-117033000D02*
X112710000Y-117033000D01*
X118870000Y-102986721D02*
X118870000Y-103312279D01*
X119890000Y-102986721D02*
X119890000Y-103312279D01*
X120394000Y-102986721D02*
X120394000Y-103312279D01*
X121414000Y-102986721D02*
X121414000Y-103312279D01*
X127917239Y-104388673D02*
X127591681Y-104388673D01*
X127917239Y-105408673D02*
X127591681Y-105408673D01*
X124322721Y-105405813D02*
X124648279Y-105405813D01*
X124322721Y-104385813D02*
X124648279Y-104385813D01*
X124777089Y-112012000D02*
X124451531Y-112012000D01*
X124777089Y-113032000D02*
X124451531Y-113032000D01*
X124772201Y-113536000D02*
X124446643Y-113536000D01*
X124772201Y-114556000D02*
X124446643Y-114556000D01*
D11*
X123600000Y-106432366D02*
X123600000Y-106957366D01*
X127900000Y-106432366D02*
X127900000Y-106957366D01*
X127900000Y-110732366D02*
X127900000Y-110207366D01*
X123600000Y-110732366D02*
X123600000Y-110207366D01*
X127900000Y-106432366D02*
X127375000Y-106432366D01*
X127900000Y-110732366D02*
X127375000Y-110732366D01*
X123600000Y-106432366D02*
X124125000Y-106432366D01*
X108306000Y-107092000D02*
X111306000Y-107092000D01*
X109806000Y-103842000D02*
X111306000Y-103842000D01*
D12*
X120254000Y-109166000D02*
X120254000Y-107876000D01*
X120704000Y-109166000D02*
X120254000Y-109166000D01*
X120704000Y-109616000D02*
X120704000Y-109166000D01*
X120704000Y-116386000D02*
X120254000Y-116386000D01*
X120704000Y-115936000D02*
X120704000Y-116386000D01*
X113484000Y-109166000D02*
X113934000Y-109166000D01*
X113484000Y-109616000D02*
X113484000Y-109166000D01*
X113484000Y-116386000D02*
X113934000Y-116386000D01*
X113484000Y-115936000D02*
X113484000Y-116386000D01*
X108426000Y-110912000D02*
X105976000Y-110912000D01*
X106626000Y-114132000D02*
X108426000Y-114132000D01*
X115572000Y-101991279D02*
X115572000Y-101665721D01*
X114552000Y-101991279D02*
X114552000Y-101665721D01*
X113028000Y-101665721D02*
X113028000Y-101991279D01*
X114048000Y-101665721D02*
X114048000Y-101991279D01*
X112524000Y-101991279D02*
X112524000Y-101665721D01*
X111504000Y-101991279D02*
X111504000Y-101665721D01*
X124453494Y-116083506D02*
X124779052Y-116083506D01*
X124453494Y-115063506D02*
X124779052Y-115063506D01*
X111254000Y-111948279D02*
X111254000Y-111622721D01*
X110234000Y-111948279D02*
X110234000Y-111622721D01*
X111254000Y-114996279D02*
X111254000Y-114670721D01*
X110234000Y-114996279D02*
X110234000Y-114670721D01*
X103594244Y-118190000D02*
X103919802Y-118190000D01*
X103594244Y-119210000D02*
X103919802Y-119210000D01*
X105339673Y-115342726D02*
X105339673Y-116802726D01*
X102179673Y-115342726D02*
X102179673Y-117502726D01*
X102179673Y-115342726D02*
X103109673Y-115342726D01*
X105339673Y-115342726D02*
X104409673Y-115342726D01*
X129346000Y-119510498D02*
X128016000Y-119510498D01*
X129346000Y-118180498D02*
X129346000Y-119510498D01*
X129346000Y-116910498D02*
X126686000Y-116910498D01*
X126686000Y-116910498D02*
X126686000Y-111770498D01*
X129346000Y-116910498D02*
X129346000Y-111770498D01*
X129346000Y-111770498D02*
X126686000Y-111770498D01*
X106936000Y-103261279D02*
X106936000Y-102935721D01*
X105916000Y-103261279D02*
X105916000Y-102935721D01*
X105916000Y-105983721D02*
X105916000Y-106309279D01*
X106936000Y-105983721D02*
X106936000Y-106309279D01*
X108523721Y-102821000D02*
X108849279Y-102821000D01*
X108523721Y-101801000D02*
X108849279Y-101801000D01*
X114264221Y-105031000D02*
X114589779Y-105031000D01*
X114264221Y-104011000D02*
X114589779Y-104011000D01*
X116076000Y-101665721D02*
X116076000Y-101991279D01*
X117096000Y-101665721D02*
X117096000Y-101991279D01*
X122336779Y-118362000D02*
X122011221Y-118362000D01*
X122336779Y-119382000D02*
X122011221Y-119382000D01*
X118177758Y-106170000D02*
X117852200Y-106170000D01*
X118177758Y-107190000D02*
X117852200Y-107190000D01*
X107376279Y-109090000D02*
X107050721Y-109090000D01*
X107376279Y-110110000D02*
X107050721Y-110110000D01*
X107761721Y-115572000D02*
X108087279Y-115572000D01*
X107761721Y-114552000D02*
X108087279Y-114552000D01*
M02*
