G04 #@! TF.GenerationSoftware,KiCad,Pcbnew,(5.99.0-2119-g1c72042fc)*
G04 #@! TF.CreationDate,2020-07-20T23:30:33+02:00*
G04 #@! TF.ProjectId,ledCollar_PCB,6c656443-6f6c-46c6-9172-5f5043422e6b,rev?*
G04 #@! TF.SameCoordinates,Original*
G04 #@! TF.FileFunction,Copper,L2,Bot*
G04 #@! TF.FilePolarity,Positive*
%FSLAX46Y46*%
G04 Gerber Fmt 4.6, Leading zero omitted, Abs format (unit mm)*
G04 Created by KiCad (PCBNEW (5.99.0-2119-g1c72042fc)) date 2020-07-20 23:30:33*
%MOMM*%
%LPD*%
G01*
G04 APERTURE LIST*
G04 #@! TA.AperFunction,SMDPad,CuDef*
%ADD10R,2.000000X1.000000*%
G04 #@! TD*
G04 #@! TA.AperFunction,ComponentPad*
%ADD11C,1.524000*%
G04 #@! TD*
G04 #@! TA.AperFunction,ComponentPad*
%ADD12R,1.524000X1.524000*%
G04 #@! TD*
G04 #@! TA.AperFunction,SMDPad,CuDef*
%ADD13R,1.700000X1.000000*%
G04 #@! TD*
G04 #@! TA.AperFunction,ComponentPad*
%ADD14O,1.700000X1.700000*%
G04 #@! TD*
G04 #@! TA.AperFunction,ComponentPad*
%ADD15R,1.700000X1.700000*%
G04 #@! TD*
G04 #@! TA.AperFunction,ViaPad*
%ADD16C,0.800000*%
G04 #@! TD*
G04 #@! TA.AperFunction,ViaPad*
%ADD17C,0.600000*%
G04 #@! TD*
G04 #@! TA.AperFunction,Conductor*
%ADD18C,0.250000*%
G04 #@! TD*
G04 #@! TA.AperFunction,Conductor*
%ADD19C,0.127000*%
G04 #@! TD*
G04 #@! TA.AperFunction,Conductor*
%ADD20C,0.500000*%
G04 #@! TD*
G04 #@! TA.AperFunction,Conductor*
%ADD21C,0.254000*%
G04 #@! TD*
G04 APERTURE END LIST*
D10*
X116650000Y-116865400D03*
X116650000Y-118135400D03*
X116650000Y-110515400D03*
X116650000Y-111785400D03*
X116650000Y-109290400D03*
X116650000Y-113055400D03*
X116650000Y-114325400D03*
X116650000Y-115595400D03*
X119380000Y-115570000D03*
X119380000Y-116840000D03*
X119380000Y-118110000D03*
X119380000Y-110490000D03*
X119380000Y-109265000D03*
X119380000Y-111760000D03*
X119380000Y-113030000D03*
X119380000Y-114300000D03*
G04 #@! TA.AperFunction,SMDPad,CuDef*
G36*
G01*
X102950000Y-103850000D02*
X102950000Y-104650000D01*
G75*
G02*
X102700000Y-104900000I-250000J0D01*
G01*
X101875000Y-104900000D01*
G75*
G02*
X101625000Y-104650000I0J250000D01*
G01*
X101625000Y-103850000D01*
G75*
G02*
X101875000Y-103600000I250000J0D01*
G01*
X102700000Y-103600000D01*
G75*
G02*
X102950000Y-103850000I0J-250000D01*
G01*
G37*
G04 #@! TD.AperFunction*
G04 #@! TA.AperFunction,SMDPad,CuDef*
G36*
G01*
X104875000Y-103850000D02*
X104875000Y-104650000D01*
G75*
G02*
X104625000Y-104900000I-250000J0D01*
G01*
X103800000Y-104900000D01*
G75*
G02*
X103550000Y-104650000I0J250000D01*
G01*
X103550000Y-103850000D01*
G75*
G02*
X103800000Y-103600000I250000J0D01*
G01*
X104625000Y-103600000D01*
G75*
G02*
X104875000Y-103850000I0J-250000D01*
G01*
G37*
G04 #@! TD.AperFunction*
D11*
X123444000Y-103124000D03*
D12*
X125984000Y-103124000D03*
D13*
X111760000Y-105654000D03*
X118060000Y-105654000D03*
X111760000Y-101854000D03*
X118060000Y-101854000D03*
D14*
X128016000Y-113100498D03*
X128016000Y-115640498D03*
D15*
X128016000Y-118180498D03*
D16*
X110490000Y-103632000D03*
X114935000Y-111506000D03*
X115050000Y-112649000D03*
X114300000Y-109982000D03*
D17*
X113792000Y-119474986D03*
X113538000Y-118618000D03*
D16*
X115697000Y-110490000D03*
X117610370Y-111633923D03*
X117348000Y-113225400D03*
X118361405Y-113200288D03*
X105410000Y-103750000D03*
X109347000Y-109500000D03*
X111887000Y-109347000D03*
X105250000Y-109000000D03*
X109500000Y-110500000D03*
X101500000Y-102250000D03*
X114971990Y-107188000D03*
X114554000Y-103759000D03*
D17*
X107569000Y-111760000D03*
X107569000Y-113411000D03*
X107406001Y-110652999D03*
D16*
X125349000Y-113284000D03*
X122936000Y-112649000D03*
X124460000Y-117221000D03*
X106807000Y-117475000D03*
X106807000Y-118491000D03*
X107823000Y-117475000D03*
X107823000Y-118491000D03*
D17*
X101600000Y-108712000D03*
X101600000Y-111379000D03*
D16*
X127889000Y-110871000D03*
D17*
X128474959Y-106553000D03*
X127749949Y-107061000D03*
D16*
X123698000Y-117983000D03*
X112014000Y-103505000D03*
X105283000Y-102616000D03*
X112014000Y-108204000D03*
X112268000Y-106754002D03*
X107823000Y-108204000D03*
X120777000Y-108712000D03*
X110871000Y-107569000D03*
X109791458Y-106905490D03*
X108077000Y-112522000D03*
X120396000Y-119253000D03*
X119380000Y-119253000D03*
X122723002Y-116389261D03*
X121412000Y-116332000D03*
X122686653Y-111510653D03*
X122324990Y-107422554D03*
D18*
X116650000Y-118135400D02*
X115650001Y-118135400D01*
X115650001Y-118135400D02*
X115050000Y-117535399D01*
X115050000Y-117535399D02*
X115050000Y-112649000D01*
D19*
X114300000Y-109416315D02*
X114300000Y-109982000D01*
X117241154Y-106475161D02*
X114300000Y-109416315D01*
X127164110Y-106475161D02*
X117241154Y-106475161D01*
X127749949Y-107061000D02*
X127164110Y-106475161D01*
X100965000Y-117729000D02*
X102915999Y-119679999D01*
X102915999Y-119679999D02*
X113586987Y-119679999D01*
X100965000Y-109347000D02*
X100965000Y-117729000D01*
X101600000Y-108712000D02*
X100965000Y-109347000D01*
X113586987Y-119679999D02*
X113792000Y-119474986D01*
X101600000Y-117729000D02*
X103177990Y-119306990D01*
X101600000Y-111379000D02*
X101600000Y-117729000D01*
X103177990Y-119306990D02*
X112849010Y-119306990D01*
X112849010Y-119306990D02*
X113538000Y-118618000D01*
D18*
X116801477Y-111633923D02*
X117610370Y-111633923D01*
X116650000Y-111785400D02*
X116801477Y-111633923D01*
X117348000Y-113225400D02*
X116820000Y-113225400D01*
X116820000Y-113225400D02*
X116650000Y-113055400D01*
X118361405Y-113200288D02*
X119209712Y-113200288D01*
X119209712Y-113200288D02*
X119380000Y-113030000D01*
D20*
X119380000Y-109265000D02*
X116675400Y-109265000D01*
X116675400Y-109265000D02*
X116650000Y-109290400D01*
D18*
X117394966Y-118135400D02*
X118690366Y-116840000D01*
X116650000Y-118135400D02*
X117394966Y-118135400D01*
X118690366Y-116840000D02*
X119380000Y-116840000D01*
X117394966Y-116865400D02*
X118690366Y-115570000D01*
X116650000Y-116865400D02*
X117394966Y-116865400D01*
X118690366Y-115570000D02*
X119380000Y-115570000D01*
X117394966Y-115595400D02*
X118690366Y-114300000D01*
X116650000Y-115595400D02*
X117394966Y-115595400D01*
X118690366Y-114300000D02*
X119380000Y-114300000D01*
X117394966Y-114325400D02*
X118690366Y-113030000D01*
X116650000Y-114325400D02*
X117394966Y-114325400D01*
X118690366Y-113030000D02*
X119380000Y-113030000D01*
X117394966Y-113055400D02*
X118690366Y-111760000D01*
X116650000Y-113055400D02*
X117394966Y-113055400D01*
X118690366Y-111760000D02*
X119380000Y-111760000D01*
X117339634Y-111785400D02*
X118635034Y-110490000D01*
X116650000Y-111785400D02*
X117339634Y-111785400D01*
X118635034Y-110490000D02*
X119380000Y-110490000D01*
X104893000Y-104267000D02*
X104229500Y-104267000D01*
X105410000Y-103750000D02*
X104893000Y-104267000D01*
X104229500Y-104267000D02*
X104212500Y-104250000D01*
D19*
X105250000Y-109000000D02*
X108847000Y-109000000D01*
X108847000Y-109000000D02*
X109347000Y-109500000D01*
X110871000Y-107569000D02*
X110871000Y-108331000D01*
X110871000Y-108331000D02*
X111887000Y-109347000D01*
D18*
X102312500Y-104250000D02*
X102312500Y-103062500D01*
X102312500Y-103062500D02*
X101500000Y-102250000D01*
X116505990Y-105654000D02*
X114971990Y-107188000D01*
X118060000Y-105654000D02*
X116505990Y-105654000D01*
D20*
X123952000Y-116205000D02*
X123952000Y-114681000D01*
X123952000Y-114681000D02*
X125349000Y-113284000D01*
X124079000Y-117475000D02*
X124206000Y-117475000D01*
X124206000Y-117475000D02*
X124460000Y-117221000D01*
D18*
X128474959Y-106553000D02*
X128474959Y-110285041D01*
X128474959Y-110285041D02*
X127889000Y-110871000D01*
X123952000Y-117348000D02*
X124079000Y-117475000D01*
D20*
X123952000Y-117348000D02*
X123952000Y-117729000D01*
X123952000Y-117729000D02*
X123698000Y-117983000D01*
X123952000Y-116205000D02*
X123952000Y-117348000D01*
D19*
X112268000Y-106754002D02*
X112268000Y-107950000D01*
X112268000Y-107950000D02*
X112014000Y-108204000D01*
D20*
X120224000Y-109265000D02*
X120777000Y-108712000D01*
D18*
X119380000Y-109265000D02*
X120224000Y-109265000D01*
D20*
X121158000Y-113411000D02*
X123952000Y-116205000D01*
X121158000Y-110043001D02*
X121158000Y-113411000D01*
X120379999Y-109265000D02*
X121158000Y-110043001D01*
X119380000Y-109265000D02*
X120379999Y-109265000D01*
X119380000Y-119253000D02*
X120396000Y-119253000D01*
X119380000Y-118110000D02*
X119380000Y-119253000D01*
D19*
X122723002Y-116389261D02*
X120633741Y-114300000D01*
X120633741Y-114300000D02*
X119380000Y-114300000D01*
X120650000Y-115570000D02*
X119380000Y-115570000D01*
X121412000Y-116332000D02*
X120650000Y-115570000D01*
D18*
X122686653Y-111510653D02*
X122686653Y-107784217D01*
X122686653Y-107784217D02*
X122324990Y-107422554D01*
D21*
X128954938Y-100382379D02*
X129123272Y-100399479D01*
X129241499Y-100436528D01*
X129349873Y-100496601D01*
X129443947Y-100577232D01*
X129519893Y-100675142D01*
X129574593Y-100786307D01*
X129607021Y-100910802D01*
X129616633Y-101035708D01*
X129618789Y-101047899D01*
X129620000Y-101052222D01*
X129620001Y-118943158D01*
X129617621Y-118954937D01*
X129600521Y-119123268D01*
X129563470Y-119241502D01*
X129503399Y-119349873D01*
X129422768Y-119443947D01*
X129324858Y-119519893D01*
X129213693Y-119574593D01*
X129199495Y-119578291D01*
X129350590Y-119451508D01*
X129364761Y-119434619D01*
X129465359Y-119260378D01*
X129472900Y-119239661D01*
X129506878Y-119046960D01*
X129507837Y-119035999D01*
X129507837Y-118382307D01*
X129434028Y-118308498D01*
X128217808Y-118308497D01*
X128217807Y-118308498D01*
X126597972Y-118308497D01*
X126524163Y-118382306D01*
X126524163Y-119038756D01*
X126526319Y-119055132D01*
X126601137Y-119334357D01*
X126613880Y-119358837D01*
X126744990Y-119515088D01*
X126761879Y-119529259D01*
X126919047Y-119620000D01*
X114464684Y-119620000D01*
X114468678Y-119608906D01*
X114472427Y-119587911D01*
X114474117Y-119372762D01*
X114470698Y-119351711D01*
X114403913Y-119156649D01*
X114394023Y-119138319D01*
X114267808Y-118975603D01*
X114252512Y-118961464D01*
X114160903Y-118901288D01*
X114214678Y-118751920D01*
X114218427Y-118730925D01*
X114220117Y-118515776D01*
X114216698Y-118494725D01*
X114149913Y-118299663D01*
X114140023Y-118281333D01*
X114013808Y-118118617D01*
X113998512Y-118104478D01*
X113826395Y-117991419D01*
X113807345Y-117982997D01*
X113607887Y-117931784D01*
X113587136Y-117929986D01*
X113381841Y-117946144D01*
X113361626Y-117951165D01*
X113172634Y-118032949D01*
X113155136Y-118044247D01*
X113002825Y-118182841D01*
X112989930Y-118199198D01*
X112890722Y-118379654D01*
X112883821Y-118399307D01*
X112848416Y-118602169D01*
X112848252Y-118622998D01*
X112855734Y-118670236D01*
X112664480Y-118861490D01*
X106425000Y-118861490D01*
X106425000Y-109445500D01*
X108563847Y-109445500D01*
X108557689Y-109484382D01*
X108557541Y-109503219D01*
X108587990Y-109717162D01*
X108593388Y-109735209D01*
X108685398Y-109930741D01*
X108695863Y-109946403D01*
X108841300Y-110106237D01*
X108855909Y-110118130D01*
X109041914Y-110228133D01*
X109059373Y-110235205D01*
X109269501Y-110285652D01*
X109288268Y-110287278D01*
X109503941Y-110273709D01*
X109522356Y-110269744D01*
X109724505Y-110193359D01*
X109740940Y-110184154D01*
X109911692Y-110051706D01*
X109924694Y-110038076D01*
X110048952Y-109861275D01*
X110057372Y-109844424D01*
X110124227Y-109638665D01*
X110127326Y-109619580D01*
X110129108Y-109392691D01*
X110126309Y-109373560D01*
X110062693Y-109166777D01*
X110054539Y-109149796D01*
X109933074Y-108971065D01*
X109920287Y-108957232D01*
X109751637Y-108822118D01*
X109735348Y-108812656D01*
X109534425Y-108733106D01*
X109516074Y-108728852D01*
X109300641Y-108711897D01*
X109281851Y-108713228D01*
X109211099Y-108729043D01*
X109210915Y-108728660D01*
X109193249Y-108706451D01*
X109144477Y-108667447D01*
X109131546Y-108654515D01*
X109120488Y-108645696D01*
X109105492Y-108636270D01*
X109057225Y-108597669D01*
X109031621Y-108585305D01*
X109020263Y-108582704D01*
X109010348Y-108576472D01*
X108983567Y-108567093D01*
X108921439Y-108560070D01*
X108904083Y-108556095D01*
X108889973Y-108554500D01*
X108872168Y-108554500D01*
X108810526Y-108547531D01*
X108782325Y-108550694D01*
X108771426Y-108554500D01*
X106425000Y-108554500D01*
X106425000Y-107572219D01*
X110081541Y-107572219D01*
X110111990Y-107786162D01*
X110117388Y-107804209D01*
X110209398Y-107999741D01*
X110219863Y-108015403D01*
X110365300Y-108175237D01*
X110379909Y-108187130D01*
X110425501Y-108214093D01*
X110425501Y-108255022D01*
X110421807Y-108265541D01*
X110418595Y-108293736D01*
X110425501Y-108355796D01*
X110425501Y-108374089D01*
X110427084Y-108388145D01*
X110431022Y-108405408D01*
X110437858Y-108466840D01*
X110447221Y-108493689D01*
X110453411Y-108503557D01*
X110456015Y-108514972D01*
X110468321Y-108540543D01*
X110507293Y-108589449D01*
X110516749Y-108604524D01*
X110525598Y-108615629D01*
X110538179Y-108628209D01*
X110576848Y-108676737D01*
X110599027Y-108694441D01*
X110609427Y-108699457D01*
X111117332Y-109207362D01*
X111097689Y-109331382D01*
X111097541Y-109350219D01*
X111127990Y-109564162D01*
X111133388Y-109582209D01*
X111225398Y-109777741D01*
X111235863Y-109793403D01*
X111381300Y-109953237D01*
X111395909Y-109965130D01*
X111581914Y-110075133D01*
X111599373Y-110082205D01*
X111809501Y-110132652D01*
X111828268Y-110134278D01*
X112043941Y-110120709D01*
X112062356Y-110116744D01*
X112264505Y-110040359D01*
X112280940Y-110031154D01*
X112340159Y-109985219D01*
X113510541Y-109985219D01*
X113540990Y-110199162D01*
X113546388Y-110217209D01*
X113638398Y-110412741D01*
X113648863Y-110428403D01*
X113794300Y-110588237D01*
X113808909Y-110600130D01*
X113994914Y-110710133D01*
X114012373Y-110717205D01*
X114222501Y-110767652D01*
X114241268Y-110769278D01*
X114456941Y-110755709D01*
X114475356Y-110751744D01*
X114677505Y-110675359D01*
X114693940Y-110666154D01*
X114864692Y-110533706D01*
X114877694Y-110520076D01*
X115001952Y-110343275D01*
X115010372Y-110326424D01*
X115012977Y-110318405D01*
X115081972Y-110387400D01*
X116778000Y-110387401D01*
X116777999Y-110643400D01*
X115081972Y-110643399D01*
X115008163Y-110717208D01*
X115008163Y-111023658D01*
X115010319Y-111040034D01*
X115085137Y-111319259D01*
X115097880Y-111343739D01*
X115228990Y-111499990D01*
X115245880Y-111514162D01*
X115265024Y-111525215D01*
X115265024Y-111893033D01*
X115237425Y-111882106D01*
X115219074Y-111877852D01*
X115003641Y-111860897D01*
X114984851Y-111862228D01*
X114773957Y-111909368D01*
X114756388Y-111916165D01*
X114568679Y-112023233D01*
X114553886Y-112034895D01*
X114405956Y-112192424D01*
X114395245Y-112207920D01*
X114300175Y-112401983D01*
X114294495Y-112419943D01*
X114260689Y-112633382D01*
X114260541Y-112652219D01*
X114290990Y-112866162D01*
X114296388Y-112884209D01*
X114388398Y-113079741D01*
X114398863Y-113095403D01*
X114543001Y-113253809D01*
X114543000Y-117485465D01*
X114535536Y-117522989D01*
X114535536Y-117547809D01*
X114562047Y-117681085D01*
X114569948Y-117720808D01*
X114579446Y-117743739D01*
X114677443Y-117890405D01*
X114694994Y-117907956D01*
X114726811Y-117929215D01*
X115256185Y-118458589D01*
X115265024Y-118471818D01*
X115265024Y-118641590D01*
X115266237Y-118653910D01*
X115289579Y-118771258D01*
X115299077Y-118794189D01*
X115369005Y-118898844D01*
X115386556Y-118916395D01*
X115491211Y-118986323D01*
X115514142Y-118995821D01*
X115631490Y-119019163D01*
X115643810Y-119020376D01*
X117656190Y-119020376D01*
X117668510Y-119019163D01*
X117785858Y-118995821D01*
X117808789Y-118986323D01*
X117846820Y-118960911D01*
X117958990Y-119094590D01*
X117975879Y-119108761D01*
X118150120Y-119209359D01*
X118170837Y-119216900D01*
X118363538Y-119250878D01*
X118374499Y-119251837D01*
X119178191Y-119251837D01*
X119252000Y-119178028D01*
X119507999Y-119178028D01*
X119581808Y-119251837D01*
X120388258Y-119251837D01*
X120404634Y-119249681D01*
X120683859Y-119174863D01*
X120708339Y-119162120D01*
X120864590Y-119031010D01*
X120878761Y-119014121D01*
X120979359Y-118839880D01*
X120986900Y-118819163D01*
X121020878Y-118626462D01*
X121021837Y-118615501D01*
X121021837Y-118311809D01*
X120948028Y-118238000D01*
X119581809Y-118237999D01*
X119508000Y-118311808D01*
X119507999Y-119178028D01*
X119252000Y-119178028D01*
X119252001Y-118311808D01*
X119252000Y-118311807D01*
X119252001Y-117982000D01*
X120948028Y-117982001D01*
X121021837Y-117908192D01*
X121021837Y-117601742D01*
X121019681Y-117585366D01*
X120944863Y-117306142D01*
X120932120Y-117281662D01*
X120801010Y-117125410D01*
X120784120Y-117111238D01*
X120764976Y-117100185D01*
X120764976Y-116782923D01*
X120906300Y-116938237D01*
X120920909Y-116950130D01*
X121106914Y-117060133D01*
X121124373Y-117067205D01*
X121334501Y-117117652D01*
X121353268Y-117119278D01*
X121568941Y-117105709D01*
X121587356Y-117101744D01*
X121789505Y-117025359D01*
X121805940Y-117016154D01*
X121976692Y-116883706D01*
X121989694Y-116870076D01*
X122046757Y-116788884D01*
X122061400Y-116820002D01*
X122071865Y-116835664D01*
X122217302Y-116995498D01*
X122231911Y-117007391D01*
X122417916Y-117117394D01*
X122435375Y-117124466D01*
X122645503Y-117174913D01*
X122664270Y-117176539D01*
X122879943Y-117162970D01*
X122898358Y-117159005D01*
X123100507Y-117082620D01*
X123116942Y-117073415D01*
X123287694Y-116940967D01*
X123300696Y-116927337D01*
X123320001Y-116899869D01*
X123320001Y-117297503D01*
X123320000Y-117297513D01*
X123320000Y-117298300D01*
X123216679Y-117357233D01*
X123201886Y-117368895D01*
X123053956Y-117526424D01*
X123043245Y-117541920D01*
X122948175Y-117735983D01*
X122942495Y-117753943D01*
X122908689Y-117967382D01*
X122908541Y-117986219D01*
X122938990Y-118200162D01*
X122944388Y-118218209D01*
X123036398Y-118413741D01*
X123046863Y-118429403D01*
X123192300Y-118589237D01*
X123206909Y-118601130D01*
X123392914Y-118711133D01*
X123410373Y-118718205D01*
X123620501Y-118768652D01*
X123639268Y-118770278D01*
X123854941Y-118756709D01*
X123873356Y-118752744D01*
X124075505Y-118676359D01*
X124091940Y-118667154D01*
X124262692Y-118534706D01*
X124275694Y-118521076D01*
X124399952Y-118344275D01*
X124408372Y-118327424D01*
X124475227Y-118121665D01*
X124478326Y-118102580D01*
X124478495Y-118081081D01*
X124485529Y-118068898D01*
X124510392Y-118033391D01*
X124545896Y-118008530D01*
X124564074Y-117998035D01*
X124616940Y-117994709D01*
X124635356Y-117990744D01*
X124837505Y-117914359D01*
X124853940Y-117905154D01*
X125024692Y-117772706D01*
X125037694Y-117759076D01*
X125161952Y-117582275D01*
X125170372Y-117565424D01*
X125237227Y-117359665D01*
X125240326Y-117340580D01*
X125240448Y-117324997D01*
X126524163Y-117324997D01*
X126524163Y-117978689D01*
X126597972Y-118052498D01*
X127814192Y-118052499D01*
X127814193Y-118052498D01*
X129434028Y-118052499D01*
X129507837Y-117978690D01*
X129507837Y-117322240D01*
X129505681Y-117305864D01*
X129430863Y-117026640D01*
X129418120Y-117002160D01*
X129287010Y-116845908D01*
X129270121Y-116831737D01*
X129095880Y-116731139D01*
X129075163Y-116723598D01*
X128882462Y-116689620D01*
X128871501Y-116688661D01*
X128663963Y-116688661D01*
X128815988Y-116581419D01*
X128825088Y-116573606D01*
X128979479Y-116413169D01*
X128986937Y-116403776D01*
X129108205Y-116217040D01*
X129113752Y-116206406D01*
X129197522Y-116000108D01*
X129200958Y-115988617D01*
X129244222Y-115770119D01*
X129245425Y-115758019D01*
X129246023Y-115529416D01*
X129244884Y-115517310D01*
X129202765Y-115298589D01*
X129199388Y-115287080D01*
X129116701Y-115080346D01*
X129111209Y-115069682D01*
X128990920Y-114882314D01*
X128983511Y-114872882D01*
X128829963Y-114711640D01*
X128820904Y-114703779D01*
X128639634Y-114574481D01*
X128629252Y-114568475D01*
X128426805Y-114475787D01*
X128415474Y-114471852D01*
X128199151Y-114419118D01*
X128187281Y-114417397D01*
X127964890Y-114406520D01*
X127952909Y-114407075D01*
X127732472Y-114438448D01*
X127720812Y-114441258D01*
X127510285Y-114513748D01*
X127499366Y-114518713D01*
X127306346Y-114629704D01*
X127296563Y-114636644D01*
X127128012Y-114782132D01*
X127119718Y-114790797D01*
X126981720Y-114965533D01*
X126975214Y-114975609D01*
X126872746Y-115173288D01*
X126868263Y-115184413D01*
X126805025Y-115397901D01*
X126802727Y-115409673D01*
X126780999Y-115631268D01*
X126780968Y-115643262D01*
X126801535Y-115864967D01*
X126803772Y-115876751D01*
X126865891Y-116090568D01*
X126870316Y-116101716D01*
X126971747Y-116299929D01*
X126978201Y-116310039D01*
X127115282Y-116485494D01*
X127123530Y-116494202D01*
X127291317Y-116640571D01*
X127301063Y-116647562D01*
X127371679Y-116688661D01*
X127157742Y-116688661D01*
X127141366Y-116690817D01*
X126862142Y-116765635D01*
X126837662Y-116778378D01*
X126681410Y-116909488D01*
X126667239Y-116926377D01*
X126566641Y-117100618D01*
X126559100Y-117121335D01*
X126525122Y-117314036D01*
X126524163Y-117324997D01*
X125240448Y-117324997D01*
X125242108Y-117113691D01*
X125239309Y-117094560D01*
X125175693Y-116887777D01*
X125167539Y-116870796D01*
X125046074Y-116692065D01*
X125033287Y-116678232D01*
X124864637Y-116543118D01*
X124848348Y-116533656D01*
X124647425Y-116454106D01*
X124629075Y-116449852D01*
X124584000Y-116446304D01*
X124584000Y-116232580D01*
X124590330Y-116160219D01*
X124588409Y-116138256D01*
X124584000Y-116121801D01*
X124584000Y-114942781D01*
X125466597Y-114060184D01*
X125505940Y-114057709D01*
X125524356Y-114053744D01*
X125726505Y-113977359D01*
X125742940Y-113968154D01*
X125913692Y-113835706D01*
X125926694Y-113822076D01*
X126050952Y-113645275D01*
X126059372Y-113628424D01*
X126126227Y-113422665D01*
X126129326Y-113403580D01*
X126131108Y-113176691D01*
X126128309Y-113157560D01*
X126111605Y-113103262D01*
X126780968Y-113103262D01*
X126801535Y-113324967D01*
X126803772Y-113336751D01*
X126865891Y-113550568D01*
X126870316Y-113561716D01*
X126971747Y-113759929D01*
X126978201Y-113770039D01*
X127115282Y-113945494D01*
X127123530Y-113954202D01*
X127291317Y-114100571D01*
X127301063Y-114107562D01*
X127493501Y-114219563D01*
X127504393Y-114224585D01*
X127714537Y-114298176D01*
X127726183Y-114301047D01*
X127946451Y-114333573D01*
X127958430Y-114334191D01*
X128180874Y-114324478D01*
X128192753Y-114322820D01*
X128409349Y-114271220D01*
X128420700Y-114267345D01*
X128623631Y-114175718D01*
X128634045Y-114169766D01*
X128815988Y-114041419D01*
X128825088Y-114033606D01*
X128979479Y-113873169D01*
X128986937Y-113863776D01*
X129108205Y-113677040D01*
X129113752Y-113666406D01*
X129197522Y-113460108D01*
X129200958Y-113448617D01*
X129244222Y-113230119D01*
X129245425Y-113218019D01*
X129246023Y-112989416D01*
X129244884Y-112977310D01*
X129202765Y-112758589D01*
X129199388Y-112747080D01*
X129116701Y-112540346D01*
X129111209Y-112529682D01*
X128990920Y-112342314D01*
X128983511Y-112332882D01*
X128829963Y-112171640D01*
X128820904Y-112163779D01*
X128639634Y-112034481D01*
X128629252Y-112028475D01*
X128426805Y-111935787D01*
X128415474Y-111931852D01*
X128199151Y-111879118D01*
X128187281Y-111877397D01*
X127964890Y-111866520D01*
X127952909Y-111867075D01*
X127732472Y-111898448D01*
X127720812Y-111901258D01*
X127510285Y-111973748D01*
X127499366Y-111978713D01*
X127306346Y-112089704D01*
X127296563Y-112096644D01*
X127128012Y-112242132D01*
X127119718Y-112250797D01*
X126981720Y-112425533D01*
X126975214Y-112435609D01*
X126872746Y-112633288D01*
X126868263Y-112644413D01*
X126805025Y-112857901D01*
X126802727Y-112869673D01*
X126780999Y-113091268D01*
X126780968Y-113103262D01*
X126111605Y-113103262D01*
X126064693Y-112950777D01*
X126056539Y-112933796D01*
X125935074Y-112755065D01*
X125922287Y-112741232D01*
X125753637Y-112606118D01*
X125737348Y-112596656D01*
X125536425Y-112517106D01*
X125518074Y-112512852D01*
X125302641Y-112495897D01*
X125283851Y-112497228D01*
X125072957Y-112544368D01*
X125055388Y-112551165D01*
X124867679Y-112658233D01*
X124852886Y-112669895D01*
X124704956Y-112827424D01*
X124694245Y-112842920D01*
X124599175Y-113036983D01*
X124593495Y-113054943D01*
X124576410Y-113162808D01*
X123524616Y-114214603D01*
X123468968Y-114261297D01*
X123454797Y-114278186D01*
X123418469Y-114341106D01*
X123376799Y-114400616D01*
X123367482Y-114420597D01*
X123363071Y-114437057D01*
X123354551Y-114451815D01*
X123347010Y-114472532D01*
X123334394Y-114544080D01*
X123315591Y-114614256D01*
X123313670Y-114636219D01*
X123317185Y-114676403D01*
X121790000Y-113149219D01*
X121790000Y-110070581D01*
X121796330Y-109998220D01*
X121794409Y-109976257D01*
X121775608Y-109906090D01*
X121762990Y-109834532D01*
X121755449Y-109813813D01*
X121746930Y-109799059D01*
X121742520Y-109782601D01*
X121733202Y-109762618D01*
X121691526Y-109703098D01*
X121655204Y-109640187D01*
X121641033Y-109623298D01*
X121585389Y-109576608D01*
X121302718Y-109293937D01*
X121341692Y-109263706D01*
X121354694Y-109250076D01*
X121478952Y-109073275D01*
X121487372Y-109056424D01*
X121554227Y-108850665D01*
X121557326Y-108831580D01*
X121559108Y-108604691D01*
X121556309Y-108585560D01*
X121492693Y-108378777D01*
X121484539Y-108361796D01*
X121363074Y-108183065D01*
X121350287Y-108169232D01*
X121181637Y-108034118D01*
X121165348Y-108024656D01*
X120964425Y-107945106D01*
X120946074Y-107940852D01*
X120730641Y-107923897D01*
X120711851Y-107925228D01*
X120500957Y-107972368D01*
X120483388Y-107979165D01*
X120295679Y-108086233D01*
X120280886Y-108097895D01*
X120132956Y-108255424D01*
X120122245Y-108270920D01*
X120068796Y-108380024D01*
X118373810Y-108380024D01*
X118361490Y-108381237D01*
X118244142Y-108404579D01*
X118221211Y-108414077D01*
X118116556Y-108484005D01*
X118099005Y-108501556D01*
X118029077Y-108606211D01*
X118019579Y-108629141D01*
X118018811Y-108633000D01*
X118001498Y-108633000D01*
X118000923Y-108631611D01*
X117930995Y-108526956D01*
X117913444Y-108509405D01*
X117808789Y-108439477D01*
X117785858Y-108429979D01*
X117668510Y-108406637D01*
X117656190Y-108405424D01*
X115940922Y-108405424D01*
X117425685Y-106920661D01*
X121723502Y-106920661D01*
X121680946Y-106965978D01*
X121670235Y-106981474D01*
X121575165Y-107175537D01*
X121569485Y-107193497D01*
X121535679Y-107406936D01*
X121535531Y-107425773D01*
X121565980Y-107639716D01*
X121571378Y-107657763D01*
X121663388Y-107853295D01*
X121673853Y-107868957D01*
X121819290Y-108028791D01*
X121833899Y-108040684D01*
X122019904Y-108150687D01*
X122037363Y-108157759D01*
X122179654Y-108191920D01*
X122179653Y-110908139D01*
X122042609Y-111054077D01*
X122031898Y-111069573D01*
X121936828Y-111263636D01*
X121931148Y-111281596D01*
X121897342Y-111495035D01*
X121897194Y-111513872D01*
X121927643Y-111727815D01*
X121933041Y-111745862D01*
X122025051Y-111941394D01*
X122035516Y-111957056D01*
X122180953Y-112116890D01*
X122195562Y-112128783D01*
X122381567Y-112238786D01*
X122399026Y-112245858D01*
X122609154Y-112296305D01*
X122627921Y-112297931D01*
X122843594Y-112284362D01*
X122862009Y-112280397D01*
X123064158Y-112204012D01*
X123080593Y-112194807D01*
X123251345Y-112062359D01*
X123264347Y-112048729D01*
X123388605Y-111871928D01*
X123397025Y-111855077D01*
X123463880Y-111649318D01*
X123466979Y-111630233D01*
X123468761Y-111403344D01*
X123465962Y-111384213D01*
X123402346Y-111177430D01*
X123394192Y-111160449D01*
X123272727Y-110981718D01*
X123259940Y-110967885D01*
X123193653Y-110914779D01*
X123193653Y-107834151D01*
X123201117Y-107796627D01*
X123201117Y-107771807D01*
X123166705Y-107598806D01*
X123157207Y-107575875D01*
X123134998Y-107542636D01*
X123105657Y-107498724D01*
X123107098Y-107315245D01*
X123104299Y-107296114D01*
X123040683Y-107089331D01*
X123032529Y-107072350D01*
X122929442Y-106920661D01*
X126979579Y-106920661D01*
X127066862Y-107007944D01*
X127060365Y-107045170D01*
X127060201Y-107065998D01*
X127092415Y-107269391D01*
X127099007Y-107289149D01*
X127195368Y-107471142D01*
X127208004Y-107487700D01*
X127358120Y-107628668D01*
X127375439Y-107640240D01*
X127563123Y-107724983D01*
X127583256Y-107730321D01*
X127788272Y-107749700D01*
X127809048Y-107748229D01*
X127967959Y-107710078D01*
X127967960Y-110075034D01*
X127951527Y-110091467D01*
X127842641Y-110082897D01*
X127823851Y-110084228D01*
X127612957Y-110131368D01*
X127595388Y-110138165D01*
X127407679Y-110245233D01*
X127392886Y-110256895D01*
X127244956Y-110414424D01*
X127234245Y-110429920D01*
X127139175Y-110623983D01*
X127133495Y-110641943D01*
X127099689Y-110855382D01*
X127099541Y-110874219D01*
X127129990Y-111088162D01*
X127135388Y-111106209D01*
X127227398Y-111301741D01*
X127237863Y-111317403D01*
X127383300Y-111477237D01*
X127397909Y-111489130D01*
X127583914Y-111599133D01*
X127601373Y-111606205D01*
X127811501Y-111656652D01*
X127830268Y-111658278D01*
X128045941Y-111644709D01*
X128064356Y-111640744D01*
X128266505Y-111564359D01*
X128282940Y-111555154D01*
X128453692Y-111422706D01*
X128466694Y-111409076D01*
X128590952Y-111232275D01*
X128599372Y-111215424D01*
X128666227Y-111009665D01*
X128669326Y-110990580D01*
X128670774Y-110806232D01*
X128798151Y-110678855D01*
X128829965Y-110657598D01*
X128847516Y-110640047D01*
X128945513Y-110493382D01*
X128955012Y-110470450D01*
X128960022Y-110445259D01*
X128989423Y-110297452D01*
X128989423Y-110272632D01*
X128981959Y-110235108D01*
X128981959Y-107010996D01*
X129071620Y-106899082D01*
X129081797Y-106880909D01*
X129151637Y-106686920D01*
X129155386Y-106665925D01*
X129157076Y-106450776D01*
X129153657Y-106429725D01*
X129086872Y-106234663D01*
X129076982Y-106216333D01*
X128950767Y-106053617D01*
X128935471Y-106039478D01*
X128763354Y-105926419D01*
X128744304Y-105917997D01*
X128544846Y-105866784D01*
X128524095Y-105864986D01*
X128318800Y-105881144D01*
X128298585Y-105886165D01*
X128109593Y-105967949D01*
X128092095Y-105979247D01*
X127939784Y-106117841D01*
X127926889Y-106134198D01*
X127827681Y-106314654D01*
X127820780Y-106334307D01*
X127813807Y-106374262D01*
X127799084Y-106372986D01*
X127699781Y-106380802D01*
X127532852Y-106213873D01*
X127528025Y-106203821D01*
X127510359Y-106181612D01*
X127461587Y-106142608D01*
X127448656Y-106129676D01*
X127437598Y-106120857D01*
X127422602Y-106111431D01*
X127374335Y-106072830D01*
X127348731Y-106060466D01*
X127337373Y-106057865D01*
X127327458Y-106051633D01*
X127300677Y-106042254D01*
X127238549Y-106035231D01*
X127221193Y-106031256D01*
X127207083Y-106029661D01*
X127189278Y-106029661D01*
X127127636Y-106022692D01*
X127099435Y-106025855D01*
X127088536Y-106029661D01*
X119294976Y-106029661D01*
X119294976Y-105147810D01*
X119293763Y-105135490D01*
X119270421Y-105018142D01*
X119260923Y-104995211D01*
X119190995Y-104890556D01*
X119173444Y-104873005D01*
X119068789Y-104803077D01*
X119045858Y-104793579D01*
X118928510Y-104770237D01*
X118916190Y-104769024D01*
X117203810Y-104769024D01*
X117191490Y-104770237D01*
X117074142Y-104793579D01*
X117051211Y-104803077D01*
X116946556Y-104873005D01*
X116929005Y-104890556D01*
X116859077Y-104995211D01*
X116849579Y-105018142D01*
X116826237Y-105135490D01*
X116825104Y-105147000D01*
X116555924Y-105147000D01*
X116518400Y-105139536D01*
X116493580Y-105139536D01*
X116443885Y-105149421D01*
X116320578Y-105173948D01*
X116297648Y-105183446D01*
X116150984Y-105281443D01*
X116133433Y-105298994D01*
X116112174Y-105330811D01*
X115034518Y-106408467D01*
X114925631Y-106399897D01*
X114906841Y-106401228D01*
X114695947Y-106448368D01*
X114678378Y-106455165D01*
X114490669Y-106562233D01*
X114475876Y-106573895D01*
X114327946Y-106731424D01*
X114317235Y-106746920D01*
X114222165Y-106940983D01*
X114216485Y-106958943D01*
X114182679Y-107172382D01*
X114182531Y-107191219D01*
X114212980Y-107405162D01*
X114218378Y-107423209D01*
X114310388Y-107618741D01*
X114320853Y-107634403D01*
X114466290Y-107794237D01*
X114480899Y-107806130D01*
X114666904Y-107916133D01*
X114684363Y-107923205D01*
X114894491Y-107973652D01*
X114913258Y-107975278D01*
X115124283Y-107962001D01*
X114038709Y-109047575D01*
X114028656Y-109052403D01*
X114006450Y-109070067D01*
X113967452Y-109118833D01*
X113954516Y-109131768D01*
X113945696Y-109142827D01*
X113936271Y-109157822D01*
X113897668Y-109206093D01*
X113885304Y-109231699D01*
X113882704Y-109243050D01*
X113876474Y-109252963D01*
X113867093Y-109279747D01*
X113861187Y-109331987D01*
X113818679Y-109356233D01*
X113803886Y-109367895D01*
X113655956Y-109525424D01*
X113645245Y-109540920D01*
X113550175Y-109734983D01*
X113544495Y-109752943D01*
X113510689Y-109966382D01*
X113510541Y-109985219D01*
X112340159Y-109985219D01*
X112451692Y-109898706D01*
X112464694Y-109885076D01*
X112588952Y-109708275D01*
X112597372Y-109691424D01*
X112664227Y-109485665D01*
X112667326Y-109466580D01*
X112669108Y-109239691D01*
X112666309Y-109220560D01*
X112602693Y-109013777D01*
X112594539Y-108996796D01*
X112481781Y-108830877D01*
X112578692Y-108755706D01*
X112591694Y-108742076D01*
X112715952Y-108565275D01*
X112724372Y-108548424D01*
X112791227Y-108342665D01*
X112794326Y-108323580D01*
X112796108Y-108096691D01*
X112793309Y-108077560D01*
X112729693Y-107870776D01*
X112721539Y-107853795D01*
X112713500Y-107841966D01*
X112713500Y-107398163D01*
X112832692Y-107305708D01*
X112845694Y-107292078D01*
X112969952Y-107115277D01*
X112978372Y-107098426D01*
X113045227Y-106892667D01*
X113048326Y-106873582D01*
X113050108Y-106646693D01*
X113047309Y-106627562D01*
X112983693Y-106420779D01*
X112975539Y-106403798D01*
X112937506Y-106347834D01*
X112960923Y-106312789D01*
X112970421Y-106289858D01*
X112993763Y-106172510D01*
X112994976Y-106160190D01*
X112994976Y-105147810D01*
X112993763Y-105135490D01*
X112970421Y-105018142D01*
X112960923Y-104995211D01*
X112890995Y-104890556D01*
X112873444Y-104873005D01*
X112768789Y-104803077D01*
X112745858Y-104793579D01*
X112628510Y-104770237D01*
X112616190Y-104769024D01*
X110903810Y-104769024D01*
X110891490Y-104770237D01*
X110774142Y-104793579D01*
X110751211Y-104803077D01*
X110646556Y-104873005D01*
X110629005Y-104890556D01*
X110559077Y-104995211D01*
X110549579Y-105018142D01*
X110526237Y-105135490D01*
X110525024Y-105147810D01*
X110525024Y-106160190D01*
X110526237Y-106172510D01*
X110549579Y-106289858D01*
X110559077Y-106312789D01*
X110629005Y-106417444D01*
X110646556Y-106434995D01*
X110751211Y-106504923D01*
X110774142Y-106514421D01*
X110891490Y-106537763D01*
X110903810Y-106538976D01*
X111510273Y-106538976D01*
X111478689Y-106738384D01*
X111478541Y-106757221D01*
X111508990Y-106971164D01*
X111514388Y-106989211D01*
X111606398Y-107184743D01*
X111616863Y-107200405D01*
X111762300Y-107360239D01*
X111776908Y-107372132D01*
X111822500Y-107399095D01*
X111822501Y-107445470D01*
X111737957Y-107464368D01*
X111720388Y-107471165D01*
X111652730Y-107509756D01*
X111653108Y-107461691D01*
X111650309Y-107442560D01*
X111586693Y-107235777D01*
X111578539Y-107218796D01*
X111457074Y-107040065D01*
X111444287Y-107026232D01*
X111275637Y-106891118D01*
X111259348Y-106881656D01*
X111058425Y-106802106D01*
X111040074Y-106797852D01*
X110824641Y-106780897D01*
X110805851Y-106782228D01*
X110594957Y-106829368D01*
X110577388Y-106836165D01*
X110389679Y-106943233D01*
X110374886Y-106954895D01*
X110226956Y-107112424D01*
X110216245Y-107127920D01*
X110121175Y-107321983D01*
X110115495Y-107339943D01*
X110081689Y-107553382D01*
X110081541Y-107572219D01*
X106425000Y-107572219D01*
X106425000Y-106881809D01*
X106351191Y-106808000D01*
X100380000Y-106808000D01*
X100380000Y-102556835D01*
X100382379Y-102545062D01*
X100399479Y-102376728D01*
X100436528Y-102258501D01*
X100496601Y-102150127D01*
X100577232Y-102056053D01*
X100675142Y-101980107D01*
X100786307Y-101925407D01*
X100788453Y-101924848D01*
X100750175Y-102002983D01*
X100744495Y-102020943D01*
X100710689Y-102234382D01*
X100710541Y-102253219D01*
X100740990Y-102467162D01*
X100746388Y-102485209D01*
X100838398Y-102680741D01*
X100848863Y-102696403D01*
X100994300Y-102856237D01*
X101008909Y-102868130D01*
X101194914Y-102978133D01*
X101212373Y-102985205D01*
X101422501Y-103035652D01*
X101441269Y-103037278D01*
X101562637Y-103029642D01*
X101772997Y-103240002D01*
X101577030Y-103292512D01*
X101552550Y-103305255D01*
X101397379Y-103435458D01*
X101383208Y-103452347D01*
X101283315Y-103625367D01*
X101275774Y-103646084D01*
X101242041Y-103837395D01*
X101241082Y-103848356D01*
X101241082Y-104654401D01*
X101243238Y-104670777D01*
X101317512Y-104947971D01*
X101330255Y-104972451D01*
X101460458Y-105127621D01*
X101477347Y-105141792D01*
X101650367Y-105241685D01*
X101671084Y-105249226D01*
X101862395Y-105282959D01*
X101873356Y-105283918D01*
X102704401Y-105283918D01*
X102720777Y-105281762D01*
X102997971Y-105207488D01*
X103022451Y-105194745D01*
X103177621Y-105064542D01*
X103191792Y-105047653D01*
X103245751Y-104954193D01*
X103255255Y-104972451D01*
X103385458Y-105127621D01*
X103402347Y-105141792D01*
X103575367Y-105241685D01*
X103596084Y-105249226D01*
X103787395Y-105282959D01*
X103798356Y-105283918D01*
X104629401Y-105283918D01*
X104645777Y-105281762D01*
X104922971Y-105207488D01*
X104947451Y-105194745D01*
X105102621Y-105064542D01*
X105116792Y-105047653D01*
X105216685Y-104874633D01*
X105224226Y-104853916D01*
X105257959Y-104662605D01*
X105258918Y-104651644D01*
X105258918Y-104628645D01*
X105265557Y-104622006D01*
X105286816Y-104590189D01*
X105340647Y-104536358D01*
X105351269Y-104537278D01*
X105566941Y-104523709D01*
X105585356Y-104519744D01*
X105787505Y-104443359D01*
X105803940Y-104434154D01*
X105974692Y-104301706D01*
X105987694Y-104288076D01*
X106111952Y-104111275D01*
X106120372Y-104094424D01*
X106187227Y-103888665D01*
X106190326Y-103869580D01*
X106192108Y-103642691D01*
X106189309Y-103623560D01*
X106125693Y-103416777D01*
X106117539Y-103399796D01*
X105996074Y-103221065D01*
X105989388Y-103213831D01*
X122300591Y-103213831D01*
X122301623Y-103226113D01*
X122339817Y-103434209D01*
X122343214Y-103446056D01*
X122421098Y-103642771D01*
X122426731Y-103653733D01*
X122541343Y-103831574D01*
X122548998Y-103841233D01*
X122695969Y-103993426D01*
X122705355Y-104001414D01*
X122879087Y-104122161D01*
X122889846Y-104128174D01*
X123083723Y-104212877D01*
X123095445Y-104216685D01*
X123302082Y-104262117D01*
X123314320Y-104263576D01*
X123525846Y-104268007D01*
X123538135Y-104267062D01*
X123746493Y-104230323D01*
X123758363Y-104227008D01*
X123955618Y-104150498D01*
X123966619Y-104144941D01*
X124145255Y-104031575D01*
X124154967Y-104023987D01*
X124308183Y-103878083D01*
X124316236Y-103868753D01*
X124438193Y-103695868D01*
X124444280Y-103685152D01*
X124530335Y-103491870D01*
X124534226Y-103480175D01*
X124580163Y-103277982D01*
X124580163Y-103894258D01*
X124582319Y-103910634D01*
X124657137Y-104189859D01*
X124669880Y-104214339D01*
X124800990Y-104370590D01*
X124817879Y-104384761D01*
X124992120Y-104485359D01*
X125012837Y-104492900D01*
X125205538Y-104526878D01*
X125216499Y-104527837D01*
X125782191Y-104527837D01*
X125856000Y-104454028D01*
X125856000Y-103325809D01*
X126112000Y-103325809D01*
X126112000Y-104454028D01*
X126185809Y-104527837D01*
X126754258Y-104527837D01*
X126770634Y-104525681D01*
X127049859Y-104450863D01*
X127074339Y-104438120D01*
X127230590Y-104307010D01*
X127244761Y-104290121D01*
X127345359Y-104115880D01*
X127352900Y-104095163D01*
X127386878Y-103902462D01*
X127387837Y-103891501D01*
X127387837Y-103325809D01*
X127314028Y-103252000D01*
X126185809Y-103252000D01*
X126112000Y-103325809D01*
X125856000Y-103325809D01*
X125856000Y-101793972D01*
X126112000Y-101793972D01*
X126112000Y-102922191D01*
X126185809Y-102996000D01*
X127314028Y-102996000D01*
X127387837Y-102922191D01*
X127387837Y-102353742D01*
X127385681Y-102337366D01*
X127310863Y-102058142D01*
X127298120Y-102033662D01*
X127167010Y-101877410D01*
X127150121Y-101863239D01*
X126975880Y-101762641D01*
X126955163Y-101755100D01*
X126762462Y-101721122D01*
X126751501Y-101720163D01*
X126185809Y-101720163D01*
X126112000Y-101793972D01*
X125856000Y-101793972D01*
X125782191Y-101720163D01*
X125213742Y-101720163D01*
X125197366Y-101722319D01*
X124918142Y-101797137D01*
X124893662Y-101809880D01*
X124737410Y-101940990D01*
X124723239Y-101957879D01*
X124622641Y-102132120D01*
X124615100Y-102152837D01*
X124581122Y-102345538D01*
X124580163Y-102356499D01*
X124580163Y-102982325D01*
X124543745Y-102798404D01*
X124540183Y-102786605D01*
X124459558Y-102590996D01*
X124453772Y-102580114D01*
X124336690Y-102403892D01*
X124328900Y-102394341D01*
X124179820Y-102244215D01*
X124170323Y-102236358D01*
X123994921Y-102118049D01*
X123984080Y-102112187D01*
X123789039Y-102030199D01*
X123777265Y-102026555D01*
X123570014Y-101984012D01*
X123557757Y-101982724D01*
X123346189Y-101981247D01*
X123333915Y-101982364D01*
X123126090Y-102022008D01*
X123114266Y-102025488D01*
X122918100Y-102104744D01*
X122907177Y-102110454D01*
X122730141Y-102226304D01*
X122720536Y-102234027D01*
X122569374Y-102382056D01*
X122561451Y-102391497D01*
X122441919Y-102566069D01*
X122435982Y-102576869D01*
X122352634Y-102771334D01*
X122348908Y-102783081D01*
X122304919Y-102990031D01*
X122303545Y-103002279D01*
X122300591Y-103213831D01*
X105989388Y-103213831D01*
X105983287Y-103207232D01*
X105814637Y-103072118D01*
X105798348Y-103062656D01*
X105597425Y-102983106D01*
X105579074Y-102978852D01*
X105363641Y-102961897D01*
X105344851Y-102963228D01*
X105133957Y-103010368D01*
X105116388Y-103017165D01*
X104928679Y-103124233D01*
X104913886Y-103135895D01*
X104809261Y-103247308D01*
X104637605Y-103217041D01*
X104626644Y-103216082D01*
X103795598Y-103216082D01*
X103779223Y-103218238D01*
X103502030Y-103292512D01*
X103477550Y-103305255D01*
X103322379Y-103435458D01*
X103308208Y-103452347D01*
X103254249Y-103545807D01*
X103244745Y-103527550D01*
X103114542Y-103372379D01*
X103097653Y-103358208D01*
X102924633Y-103258315D01*
X102903916Y-103250774D01*
X102819500Y-103235889D01*
X102819500Y-103112439D01*
X102826965Y-103074910D01*
X102826965Y-103050090D01*
X102792552Y-102877087D01*
X102783053Y-102854157D01*
X102765942Y-102828548D01*
X102685057Y-102707494D01*
X102667506Y-102689943D01*
X102635689Y-102668684D01*
X102280764Y-102313759D01*
X102282108Y-102142691D01*
X102279309Y-102123560D01*
X102258466Y-102055808D01*
X110268163Y-102055808D01*
X110268163Y-102362258D01*
X110270319Y-102378634D01*
X110345137Y-102657859D01*
X110357880Y-102682339D01*
X110488990Y-102838590D01*
X110505879Y-102852761D01*
X110680120Y-102953359D01*
X110700837Y-102960900D01*
X110893538Y-102994878D01*
X110904499Y-102995837D01*
X111558191Y-102995837D01*
X111632000Y-102922028D01*
X111887999Y-102922028D01*
X111961808Y-102995837D01*
X112618258Y-102995837D01*
X112634634Y-102993681D01*
X112913859Y-102918863D01*
X112938339Y-102906120D01*
X113094590Y-102775010D01*
X113108761Y-102758121D01*
X113209359Y-102583880D01*
X113216900Y-102563163D01*
X113250878Y-102370462D01*
X113251837Y-102359501D01*
X113251837Y-102055809D01*
X113251836Y-102055808D01*
X116568163Y-102055808D01*
X116568163Y-102362258D01*
X116570319Y-102378634D01*
X116645137Y-102657859D01*
X116657880Y-102682339D01*
X116788990Y-102838590D01*
X116805879Y-102852761D01*
X116980120Y-102953359D01*
X117000837Y-102960900D01*
X117193538Y-102994878D01*
X117204499Y-102995837D01*
X117858191Y-102995837D01*
X117932000Y-102922028D01*
X118187999Y-102922028D01*
X118261808Y-102995837D01*
X118918258Y-102995837D01*
X118934634Y-102993681D01*
X119213859Y-102918863D01*
X119238339Y-102906120D01*
X119394590Y-102775010D01*
X119408761Y-102758121D01*
X119509359Y-102583880D01*
X119516900Y-102563163D01*
X119550878Y-102370462D01*
X119551837Y-102359501D01*
X119551837Y-102055809D01*
X119478028Y-101982000D01*
X118261809Y-101981999D01*
X118188000Y-102055808D01*
X118187999Y-102922028D01*
X117932000Y-102922028D01*
X117932001Y-102055809D01*
X117858192Y-101982000D01*
X116641972Y-101981999D01*
X116568163Y-102055808D01*
X113251836Y-102055808D01*
X113178028Y-101982000D01*
X111961809Y-101981999D01*
X111888000Y-102055808D01*
X111887999Y-102922028D01*
X111632000Y-102922028D01*
X111632001Y-102055809D01*
X111558192Y-101982000D01*
X110341972Y-101981999D01*
X110268163Y-102055808D01*
X102258466Y-102055808D01*
X102215693Y-101916777D01*
X102207539Y-101899796D01*
X102194086Y-101880000D01*
X109962574Y-101880000D01*
X109987591Y-101884976D01*
X110012410Y-101884976D01*
X110043521Y-101878788D01*
X110043527Y-101878787D01*
X110135859Y-101860421D01*
X110158789Y-101850923D01*
X110263444Y-101780995D01*
X110280995Y-101763444D01*
X110320417Y-101704445D01*
X110341972Y-101726000D01*
X111558191Y-101726001D01*
X111632000Y-101652192D01*
X111632000Y-101652191D01*
X111887999Y-101652191D01*
X111961808Y-101726000D01*
X113178028Y-101726001D01*
X113251837Y-101652192D01*
X113251837Y-101348499D01*
X116568163Y-101348499D01*
X116568163Y-101652191D01*
X116641972Y-101726000D01*
X117858191Y-101726001D01*
X117932000Y-101652192D01*
X117932000Y-101652191D01*
X118187999Y-101652191D01*
X118261808Y-101726000D01*
X119478028Y-101726001D01*
X119551837Y-101652192D01*
X119551837Y-101345742D01*
X119549681Y-101329366D01*
X119474863Y-101050142D01*
X119462120Y-101025662D01*
X119331010Y-100869410D01*
X119314121Y-100855239D01*
X119139880Y-100754641D01*
X119119163Y-100747100D01*
X118926462Y-100713122D01*
X118915501Y-100712163D01*
X118261809Y-100712163D01*
X118188000Y-100785972D01*
X118187999Y-101652191D01*
X117932000Y-101652191D01*
X117932001Y-100785972D01*
X117858192Y-100712163D01*
X117201742Y-100712163D01*
X117185366Y-100714319D01*
X116906142Y-100789137D01*
X116881662Y-100801880D01*
X116725410Y-100932990D01*
X116711239Y-100949879D01*
X116610641Y-101124120D01*
X116603100Y-101144837D01*
X116569122Y-101337538D01*
X116568163Y-101348499D01*
X113251837Y-101348499D01*
X113251837Y-101345742D01*
X113249681Y-101329366D01*
X113174863Y-101050142D01*
X113162120Y-101025662D01*
X113031010Y-100869410D01*
X113014121Y-100855239D01*
X112839880Y-100754641D01*
X112819163Y-100747100D01*
X112626462Y-100713122D01*
X112615501Y-100712163D01*
X111961809Y-100712163D01*
X111888000Y-100785972D01*
X111887999Y-101652191D01*
X111632000Y-101652191D01*
X111632001Y-100785972D01*
X111558192Y-100712163D01*
X110901742Y-100712163D01*
X110885366Y-100714319D01*
X110606142Y-100789137D01*
X110581662Y-100801880D01*
X110425410Y-100932990D01*
X110411239Y-100949879D01*
X110387950Y-100990216D01*
X110399479Y-100876728D01*
X110436528Y-100758501D01*
X110496601Y-100650127D01*
X110577232Y-100556053D01*
X110675142Y-100480107D01*
X110786307Y-100425407D01*
X110910802Y-100392979D01*
X111035708Y-100383367D01*
X111047899Y-100381211D01*
X111052222Y-100380000D01*
X128943165Y-100380000D01*
X128954938Y-100382379D01*
G04 #@! TA.AperFunction,Conductor*
G36*
X128954938Y-100382379D02*
G01*
X129123272Y-100399479D01*
X129241499Y-100436528D01*
X129349873Y-100496601D01*
X129443947Y-100577232D01*
X129519893Y-100675142D01*
X129574593Y-100786307D01*
X129607021Y-100910802D01*
X129616633Y-101035708D01*
X129618789Y-101047899D01*
X129620000Y-101052222D01*
X129620001Y-118943158D01*
X129617621Y-118954937D01*
X129600521Y-119123268D01*
X129563470Y-119241502D01*
X129503399Y-119349873D01*
X129422768Y-119443947D01*
X129324858Y-119519893D01*
X129213693Y-119574593D01*
X129199495Y-119578291D01*
X129350590Y-119451508D01*
X129364761Y-119434619D01*
X129465359Y-119260378D01*
X129472900Y-119239661D01*
X129506878Y-119046960D01*
X129507837Y-119035999D01*
X129507837Y-118382307D01*
X129434028Y-118308498D01*
X128217808Y-118308497D01*
X128217807Y-118308498D01*
X126597972Y-118308497D01*
X126524163Y-118382306D01*
X126524163Y-119038756D01*
X126526319Y-119055132D01*
X126601137Y-119334357D01*
X126613880Y-119358837D01*
X126744990Y-119515088D01*
X126761879Y-119529259D01*
X126919047Y-119620000D01*
X114464684Y-119620000D01*
X114468678Y-119608906D01*
X114472427Y-119587911D01*
X114474117Y-119372762D01*
X114470698Y-119351711D01*
X114403913Y-119156649D01*
X114394023Y-119138319D01*
X114267808Y-118975603D01*
X114252512Y-118961464D01*
X114160903Y-118901288D01*
X114214678Y-118751920D01*
X114218427Y-118730925D01*
X114220117Y-118515776D01*
X114216698Y-118494725D01*
X114149913Y-118299663D01*
X114140023Y-118281333D01*
X114013808Y-118118617D01*
X113998512Y-118104478D01*
X113826395Y-117991419D01*
X113807345Y-117982997D01*
X113607887Y-117931784D01*
X113587136Y-117929986D01*
X113381841Y-117946144D01*
X113361626Y-117951165D01*
X113172634Y-118032949D01*
X113155136Y-118044247D01*
X113002825Y-118182841D01*
X112989930Y-118199198D01*
X112890722Y-118379654D01*
X112883821Y-118399307D01*
X112848416Y-118602169D01*
X112848252Y-118622998D01*
X112855734Y-118670236D01*
X112664480Y-118861490D01*
X106425000Y-118861490D01*
X106425000Y-109445500D01*
X108563847Y-109445500D01*
X108557689Y-109484382D01*
X108557541Y-109503219D01*
X108587990Y-109717162D01*
X108593388Y-109735209D01*
X108685398Y-109930741D01*
X108695863Y-109946403D01*
X108841300Y-110106237D01*
X108855909Y-110118130D01*
X109041914Y-110228133D01*
X109059373Y-110235205D01*
X109269501Y-110285652D01*
X109288268Y-110287278D01*
X109503941Y-110273709D01*
X109522356Y-110269744D01*
X109724505Y-110193359D01*
X109740940Y-110184154D01*
X109911692Y-110051706D01*
X109924694Y-110038076D01*
X110048952Y-109861275D01*
X110057372Y-109844424D01*
X110124227Y-109638665D01*
X110127326Y-109619580D01*
X110129108Y-109392691D01*
X110126309Y-109373560D01*
X110062693Y-109166777D01*
X110054539Y-109149796D01*
X109933074Y-108971065D01*
X109920287Y-108957232D01*
X109751637Y-108822118D01*
X109735348Y-108812656D01*
X109534425Y-108733106D01*
X109516074Y-108728852D01*
X109300641Y-108711897D01*
X109281851Y-108713228D01*
X109211099Y-108729043D01*
X109210915Y-108728660D01*
X109193249Y-108706451D01*
X109144477Y-108667447D01*
X109131546Y-108654515D01*
X109120488Y-108645696D01*
X109105492Y-108636270D01*
X109057225Y-108597669D01*
X109031621Y-108585305D01*
X109020263Y-108582704D01*
X109010348Y-108576472D01*
X108983567Y-108567093D01*
X108921439Y-108560070D01*
X108904083Y-108556095D01*
X108889973Y-108554500D01*
X108872168Y-108554500D01*
X108810526Y-108547531D01*
X108782325Y-108550694D01*
X108771426Y-108554500D01*
X106425000Y-108554500D01*
X106425000Y-107572219D01*
X110081541Y-107572219D01*
X110111990Y-107786162D01*
X110117388Y-107804209D01*
X110209398Y-107999741D01*
X110219863Y-108015403D01*
X110365300Y-108175237D01*
X110379909Y-108187130D01*
X110425501Y-108214093D01*
X110425501Y-108255022D01*
X110421807Y-108265541D01*
X110418595Y-108293736D01*
X110425501Y-108355796D01*
X110425501Y-108374089D01*
X110427084Y-108388145D01*
X110431022Y-108405408D01*
X110437858Y-108466840D01*
X110447221Y-108493689D01*
X110453411Y-108503557D01*
X110456015Y-108514972D01*
X110468321Y-108540543D01*
X110507293Y-108589449D01*
X110516749Y-108604524D01*
X110525598Y-108615629D01*
X110538179Y-108628209D01*
X110576848Y-108676737D01*
X110599027Y-108694441D01*
X110609427Y-108699457D01*
X111117332Y-109207362D01*
X111097689Y-109331382D01*
X111097541Y-109350219D01*
X111127990Y-109564162D01*
X111133388Y-109582209D01*
X111225398Y-109777741D01*
X111235863Y-109793403D01*
X111381300Y-109953237D01*
X111395909Y-109965130D01*
X111581914Y-110075133D01*
X111599373Y-110082205D01*
X111809501Y-110132652D01*
X111828268Y-110134278D01*
X112043941Y-110120709D01*
X112062356Y-110116744D01*
X112264505Y-110040359D01*
X112280940Y-110031154D01*
X112340159Y-109985219D01*
X113510541Y-109985219D01*
X113540990Y-110199162D01*
X113546388Y-110217209D01*
X113638398Y-110412741D01*
X113648863Y-110428403D01*
X113794300Y-110588237D01*
X113808909Y-110600130D01*
X113994914Y-110710133D01*
X114012373Y-110717205D01*
X114222501Y-110767652D01*
X114241268Y-110769278D01*
X114456941Y-110755709D01*
X114475356Y-110751744D01*
X114677505Y-110675359D01*
X114693940Y-110666154D01*
X114864692Y-110533706D01*
X114877694Y-110520076D01*
X115001952Y-110343275D01*
X115010372Y-110326424D01*
X115012977Y-110318405D01*
X115081972Y-110387400D01*
X116778000Y-110387401D01*
X116777999Y-110643400D01*
X115081972Y-110643399D01*
X115008163Y-110717208D01*
X115008163Y-111023658D01*
X115010319Y-111040034D01*
X115085137Y-111319259D01*
X115097880Y-111343739D01*
X115228990Y-111499990D01*
X115245880Y-111514162D01*
X115265024Y-111525215D01*
X115265024Y-111893033D01*
X115237425Y-111882106D01*
X115219074Y-111877852D01*
X115003641Y-111860897D01*
X114984851Y-111862228D01*
X114773957Y-111909368D01*
X114756388Y-111916165D01*
X114568679Y-112023233D01*
X114553886Y-112034895D01*
X114405956Y-112192424D01*
X114395245Y-112207920D01*
X114300175Y-112401983D01*
X114294495Y-112419943D01*
X114260689Y-112633382D01*
X114260541Y-112652219D01*
X114290990Y-112866162D01*
X114296388Y-112884209D01*
X114388398Y-113079741D01*
X114398863Y-113095403D01*
X114543001Y-113253809D01*
X114543000Y-117485465D01*
X114535536Y-117522989D01*
X114535536Y-117547809D01*
X114562047Y-117681085D01*
X114569948Y-117720808D01*
X114579446Y-117743739D01*
X114677443Y-117890405D01*
X114694994Y-117907956D01*
X114726811Y-117929215D01*
X115256185Y-118458589D01*
X115265024Y-118471818D01*
X115265024Y-118641590D01*
X115266237Y-118653910D01*
X115289579Y-118771258D01*
X115299077Y-118794189D01*
X115369005Y-118898844D01*
X115386556Y-118916395D01*
X115491211Y-118986323D01*
X115514142Y-118995821D01*
X115631490Y-119019163D01*
X115643810Y-119020376D01*
X117656190Y-119020376D01*
X117668510Y-119019163D01*
X117785858Y-118995821D01*
X117808789Y-118986323D01*
X117846820Y-118960911D01*
X117958990Y-119094590D01*
X117975879Y-119108761D01*
X118150120Y-119209359D01*
X118170837Y-119216900D01*
X118363538Y-119250878D01*
X118374499Y-119251837D01*
X119178191Y-119251837D01*
X119252000Y-119178028D01*
X119507999Y-119178028D01*
X119581808Y-119251837D01*
X120388258Y-119251837D01*
X120404634Y-119249681D01*
X120683859Y-119174863D01*
X120708339Y-119162120D01*
X120864590Y-119031010D01*
X120878761Y-119014121D01*
X120979359Y-118839880D01*
X120986900Y-118819163D01*
X121020878Y-118626462D01*
X121021837Y-118615501D01*
X121021837Y-118311809D01*
X120948028Y-118238000D01*
X119581809Y-118237999D01*
X119508000Y-118311808D01*
X119507999Y-119178028D01*
X119252000Y-119178028D01*
X119252001Y-118311808D01*
X119252000Y-118311807D01*
X119252001Y-117982000D01*
X120948028Y-117982001D01*
X121021837Y-117908192D01*
X121021837Y-117601742D01*
X121019681Y-117585366D01*
X120944863Y-117306142D01*
X120932120Y-117281662D01*
X120801010Y-117125410D01*
X120784120Y-117111238D01*
X120764976Y-117100185D01*
X120764976Y-116782923D01*
X120906300Y-116938237D01*
X120920909Y-116950130D01*
X121106914Y-117060133D01*
X121124373Y-117067205D01*
X121334501Y-117117652D01*
X121353268Y-117119278D01*
X121568941Y-117105709D01*
X121587356Y-117101744D01*
X121789505Y-117025359D01*
X121805940Y-117016154D01*
X121976692Y-116883706D01*
X121989694Y-116870076D01*
X122046757Y-116788884D01*
X122061400Y-116820002D01*
X122071865Y-116835664D01*
X122217302Y-116995498D01*
X122231911Y-117007391D01*
X122417916Y-117117394D01*
X122435375Y-117124466D01*
X122645503Y-117174913D01*
X122664270Y-117176539D01*
X122879943Y-117162970D01*
X122898358Y-117159005D01*
X123100507Y-117082620D01*
X123116942Y-117073415D01*
X123287694Y-116940967D01*
X123300696Y-116927337D01*
X123320001Y-116899869D01*
X123320001Y-117297503D01*
X123320000Y-117297513D01*
X123320000Y-117298300D01*
X123216679Y-117357233D01*
X123201886Y-117368895D01*
X123053956Y-117526424D01*
X123043245Y-117541920D01*
X122948175Y-117735983D01*
X122942495Y-117753943D01*
X122908689Y-117967382D01*
X122908541Y-117986219D01*
X122938990Y-118200162D01*
X122944388Y-118218209D01*
X123036398Y-118413741D01*
X123046863Y-118429403D01*
X123192300Y-118589237D01*
X123206909Y-118601130D01*
X123392914Y-118711133D01*
X123410373Y-118718205D01*
X123620501Y-118768652D01*
X123639268Y-118770278D01*
X123854941Y-118756709D01*
X123873356Y-118752744D01*
X124075505Y-118676359D01*
X124091940Y-118667154D01*
X124262692Y-118534706D01*
X124275694Y-118521076D01*
X124399952Y-118344275D01*
X124408372Y-118327424D01*
X124475227Y-118121665D01*
X124478326Y-118102580D01*
X124478495Y-118081081D01*
X124485529Y-118068898D01*
X124510392Y-118033391D01*
X124545896Y-118008530D01*
X124564074Y-117998035D01*
X124616940Y-117994709D01*
X124635356Y-117990744D01*
X124837505Y-117914359D01*
X124853940Y-117905154D01*
X125024692Y-117772706D01*
X125037694Y-117759076D01*
X125161952Y-117582275D01*
X125170372Y-117565424D01*
X125237227Y-117359665D01*
X125240326Y-117340580D01*
X125240448Y-117324997D01*
X126524163Y-117324997D01*
X126524163Y-117978689D01*
X126597972Y-118052498D01*
X127814192Y-118052499D01*
X127814193Y-118052498D01*
X129434028Y-118052499D01*
X129507837Y-117978690D01*
X129507837Y-117322240D01*
X129505681Y-117305864D01*
X129430863Y-117026640D01*
X129418120Y-117002160D01*
X129287010Y-116845908D01*
X129270121Y-116831737D01*
X129095880Y-116731139D01*
X129075163Y-116723598D01*
X128882462Y-116689620D01*
X128871501Y-116688661D01*
X128663963Y-116688661D01*
X128815988Y-116581419D01*
X128825088Y-116573606D01*
X128979479Y-116413169D01*
X128986937Y-116403776D01*
X129108205Y-116217040D01*
X129113752Y-116206406D01*
X129197522Y-116000108D01*
X129200958Y-115988617D01*
X129244222Y-115770119D01*
X129245425Y-115758019D01*
X129246023Y-115529416D01*
X129244884Y-115517310D01*
X129202765Y-115298589D01*
X129199388Y-115287080D01*
X129116701Y-115080346D01*
X129111209Y-115069682D01*
X128990920Y-114882314D01*
X128983511Y-114872882D01*
X128829963Y-114711640D01*
X128820904Y-114703779D01*
X128639634Y-114574481D01*
X128629252Y-114568475D01*
X128426805Y-114475787D01*
X128415474Y-114471852D01*
X128199151Y-114419118D01*
X128187281Y-114417397D01*
X127964890Y-114406520D01*
X127952909Y-114407075D01*
X127732472Y-114438448D01*
X127720812Y-114441258D01*
X127510285Y-114513748D01*
X127499366Y-114518713D01*
X127306346Y-114629704D01*
X127296563Y-114636644D01*
X127128012Y-114782132D01*
X127119718Y-114790797D01*
X126981720Y-114965533D01*
X126975214Y-114975609D01*
X126872746Y-115173288D01*
X126868263Y-115184413D01*
X126805025Y-115397901D01*
X126802727Y-115409673D01*
X126780999Y-115631268D01*
X126780968Y-115643262D01*
X126801535Y-115864967D01*
X126803772Y-115876751D01*
X126865891Y-116090568D01*
X126870316Y-116101716D01*
X126971747Y-116299929D01*
X126978201Y-116310039D01*
X127115282Y-116485494D01*
X127123530Y-116494202D01*
X127291317Y-116640571D01*
X127301063Y-116647562D01*
X127371679Y-116688661D01*
X127157742Y-116688661D01*
X127141366Y-116690817D01*
X126862142Y-116765635D01*
X126837662Y-116778378D01*
X126681410Y-116909488D01*
X126667239Y-116926377D01*
X126566641Y-117100618D01*
X126559100Y-117121335D01*
X126525122Y-117314036D01*
X126524163Y-117324997D01*
X125240448Y-117324997D01*
X125242108Y-117113691D01*
X125239309Y-117094560D01*
X125175693Y-116887777D01*
X125167539Y-116870796D01*
X125046074Y-116692065D01*
X125033287Y-116678232D01*
X124864637Y-116543118D01*
X124848348Y-116533656D01*
X124647425Y-116454106D01*
X124629075Y-116449852D01*
X124584000Y-116446304D01*
X124584000Y-116232580D01*
X124590330Y-116160219D01*
X124588409Y-116138256D01*
X124584000Y-116121801D01*
X124584000Y-114942781D01*
X125466597Y-114060184D01*
X125505940Y-114057709D01*
X125524356Y-114053744D01*
X125726505Y-113977359D01*
X125742940Y-113968154D01*
X125913692Y-113835706D01*
X125926694Y-113822076D01*
X126050952Y-113645275D01*
X126059372Y-113628424D01*
X126126227Y-113422665D01*
X126129326Y-113403580D01*
X126131108Y-113176691D01*
X126128309Y-113157560D01*
X126111605Y-113103262D01*
X126780968Y-113103262D01*
X126801535Y-113324967D01*
X126803772Y-113336751D01*
X126865891Y-113550568D01*
X126870316Y-113561716D01*
X126971747Y-113759929D01*
X126978201Y-113770039D01*
X127115282Y-113945494D01*
X127123530Y-113954202D01*
X127291317Y-114100571D01*
X127301063Y-114107562D01*
X127493501Y-114219563D01*
X127504393Y-114224585D01*
X127714537Y-114298176D01*
X127726183Y-114301047D01*
X127946451Y-114333573D01*
X127958430Y-114334191D01*
X128180874Y-114324478D01*
X128192753Y-114322820D01*
X128409349Y-114271220D01*
X128420700Y-114267345D01*
X128623631Y-114175718D01*
X128634045Y-114169766D01*
X128815988Y-114041419D01*
X128825088Y-114033606D01*
X128979479Y-113873169D01*
X128986937Y-113863776D01*
X129108205Y-113677040D01*
X129113752Y-113666406D01*
X129197522Y-113460108D01*
X129200958Y-113448617D01*
X129244222Y-113230119D01*
X129245425Y-113218019D01*
X129246023Y-112989416D01*
X129244884Y-112977310D01*
X129202765Y-112758589D01*
X129199388Y-112747080D01*
X129116701Y-112540346D01*
X129111209Y-112529682D01*
X128990920Y-112342314D01*
X128983511Y-112332882D01*
X128829963Y-112171640D01*
X128820904Y-112163779D01*
X128639634Y-112034481D01*
X128629252Y-112028475D01*
X128426805Y-111935787D01*
X128415474Y-111931852D01*
X128199151Y-111879118D01*
X128187281Y-111877397D01*
X127964890Y-111866520D01*
X127952909Y-111867075D01*
X127732472Y-111898448D01*
X127720812Y-111901258D01*
X127510285Y-111973748D01*
X127499366Y-111978713D01*
X127306346Y-112089704D01*
X127296563Y-112096644D01*
X127128012Y-112242132D01*
X127119718Y-112250797D01*
X126981720Y-112425533D01*
X126975214Y-112435609D01*
X126872746Y-112633288D01*
X126868263Y-112644413D01*
X126805025Y-112857901D01*
X126802727Y-112869673D01*
X126780999Y-113091268D01*
X126780968Y-113103262D01*
X126111605Y-113103262D01*
X126064693Y-112950777D01*
X126056539Y-112933796D01*
X125935074Y-112755065D01*
X125922287Y-112741232D01*
X125753637Y-112606118D01*
X125737348Y-112596656D01*
X125536425Y-112517106D01*
X125518074Y-112512852D01*
X125302641Y-112495897D01*
X125283851Y-112497228D01*
X125072957Y-112544368D01*
X125055388Y-112551165D01*
X124867679Y-112658233D01*
X124852886Y-112669895D01*
X124704956Y-112827424D01*
X124694245Y-112842920D01*
X124599175Y-113036983D01*
X124593495Y-113054943D01*
X124576410Y-113162808D01*
X123524616Y-114214603D01*
X123468968Y-114261297D01*
X123454797Y-114278186D01*
X123418469Y-114341106D01*
X123376799Y-114400616D01*
X123367482Y-114420597D01*
X123363071Y-114437057D01*
X123354551Y-114451815D01*
X123347010Y-114472532D01*
X123334394Y-114544080D01*
X123315591Y-114614256D01*
X123313670Y-114636219D01*
X123317185Y-114676403D01*
X121790000Y-113149219D01*
X121790000Y-110070581D01*
X121796330Y-109998220D01*
X121794409Y-109976257D01*
X121775608Y-109906090D01*
X121762990Y-109834532D01*
X121755449Y-109813813D01*
X121746930Y-109799059D01*
X121742520Y-109782601D01*
X121733202Y-109762618D01*
X121691526Y-109703098D01*
X121655204Y-109640187D01*
X121641033Y-109623298D01*
X121585389Y-109576608D01*
X121302718Y-109293937D01*
X121341692Y-109263706D01*
X121354694Y-109250076D01*
X121478952Y-109073275D01*
X121487372Y-109056424D01*
X121554227Y-108850665D01*
X121557326Y-108831580D01*
X121559108Y-108604691D01*
X121556309Y-108585560D01*
X121492693Y-108378777D01*
X121484539Y-108361796D01*
X121363074Y-108183065D01*
X121350287Y-108169232D01*
X121181637Y-108034118D01*
X121165348Y-108024656D01*
X120964425Y-107945106D01*
X120946074Y-107940852D01*
X120730641Y-107923897D01*
X120711851Y-107925228D01*
X120500957Y-107972368D01*
X120483388Y-107979165D01*
X120295679Y-108086233D01*
X120280886Y-108097895D01*
X120132956Y-108255424D01*
X120122245Y-108270920D01*
X120068796Y-108380024D01*
X118373810Y-108380024D01*
X118361490Y-108381237D01*
X118244142Y-108404579D01*
X118221211Y-108414077D01*
X118116556Y-108484005D01*
X118099005Y-108501556D01*
X118029077Y-108606211D01*
X118019579Y-108629141D01*
X118018811Y-108633000D01*
X118001498Y-108633000D01*
X118000923Y-108631611D01*
X117930995Y-108526956D01*
X117913444Y-108509405D01*
X117808789Y-108439477D01*
X117785858Y-108429979D01*
X117668510Y-108406637D01*
X117656190Y-108405424D01*
X115940922Y-108405424D01*
X117425685Y-106920661D01*
X121723502Y-106920661D01*
X121680946Y-106965978D01*
X121670235Y-106981474D01*
X121575165Y-107175537D01*
X121569485Y-107193497D01*
X121535679Y-107406936D01*
X121535531Y-107425773D01*
X121565980Y-107639716D01*
X121571378Y-107657763D01*
X121663388Y-107853295D01*
X121673853Y-107868957D01*
X121819290Y-108028791D01*
X121833899Y-108040684D01*
X122019904Y-108150687D01*
X122037363Y-108157759D01*
X122179654Y-108191920D01*
X122179653Y-110908139D01*
X122042609Y-111054077D01*
X122031898Y-111069573D01*
X121936828Y-111263636D01*
X121931148Y-111281596D01*
X121897342Y-111495035D01*
X121897194Y-111513872D01*
X121927643Y-111727815D01*
X121933041Y-111745862D01*
X122025051Y-111941394D01*
X122035516Y-111957056D01*
X122180953Y-112116890D01*
X122195562Y-112128783D01*
X122381567Y-112238786D01*
X122399026Y-112245858D01*
X122609154Y-112296305D01*
X122627921Y-112297931D01*
X122843594Y-112284362D01*
X122862009Y-112280397D01*
X123064158Y-112204012D01*
X123080593Y-112194807D01*
X123251345Y-112062359D01*
X123264347Y-112048729D01*
X123388605Y-111871928D01*
X123397025Y-111855077D01*
X123463880Y-111649318D01*
X123466979Y-111630233D01*
X123468761Y-111403344D01*
X123465962Y-111384213D01*
X123402346Y-111177430D01*
X123394192Y-111160449D01*
X123272727Y-110981718D01*
X123259940Y-110967885D01*
X123193653Y-110914779D01*
X123193653Y-107834151D01*
X123201117Y-107796627D01*
X123201117Y-107771807D01*
X123166705Y-107598806D01*
X123157207Y-107575875D01*
X123134998Y-107542636D01*
X123105657Y-107498724D01*
X123107098Y-107315245D01*
X123104299Y-107296114D01*
X123040683Y-107089331D01*
X123032529Y-107072350D01*
X122929442Y-106920661D01*
X126979579Y-106920661D01*
X127066862Y-107007944D01*
X127060365Y-107045170D01*
X127060201Y-107065998D01*
X127092415Y-107269391D01*
X127099007Y-107289149D01*
X127195368Y-107471142D01*
X127208004Y-107487700D01*
X127358120Y-107628668D01*
X127375439Y-107640240D01*
X127563123Y-107724983D01*
X127583256Y-107730321D01*
X127788272Y-107749700D01*
X127809048Y-107748229D01*
X127967959Y-107710078D01*
X127967960Y-110075034D01*
X127951527Y-110091467D01*
X127842641Y-110082897D01*
X127823851Y-110084228D01*
X127612957Y-110131368D01*
X127595388Y-110138165D01*
X127407679Y-110245233D01*
X127392886Y-110256895D01*
X127244956Y-110414424D01*
X127234245Y-110429920D01*
X127139175Y-110623983D01*
X127133495Y-110641943D01*
X127099689Y-110855382D01*
X127099541Y-110874219D01*
X127129990Y-111088162D01*
X127135388Y-111106209D01*
X127227398Y-111301741D01*
X127237863Y-111317403D01*
X127383300Y-111477237D01*
X127397909Y-111489130D01*
X127583914Y-111599133D01*
X127601373Y-111606205D01*
X127811501Y-111656652D01*
X127830268Y-111658278D01*
X128045941Y-111644709D01*
X128064356Y-111640744D01*
X128266505Y-111564359D01*
X128282940Y-111555154D01*
X128453692Y-111422706D01*
X128466694Y-111409076D01*
X128590952Y-111232275D01*
X128599372Y-111215424D01*
X128666227Y-111009665D01*
X128669326Y-110990580D01*
X128670774Y-110806232D01*
X128798151Y-110678855D01*
X128829965Y-110657598D01*
X128847516Y-110640047D01*
X128945513Y-110493382D01*
X128955012Y-110470450D01*
X128960022Y-110445259D01*
X128989423Y-110297452D01*
X128989423Y-110272632D01*
X128981959Y-110235108D01*
X128981959Y-107010996D01*
X129071620Y-106899082D01*
X129081797Y-106880909D01*
X129151637Y-106686920D01*
X129155386Y-106665925D01*
X129157076Y-106450776D01*
X129153657Y-106429725D01*
X129086872Y-106234663D01*
X129076982Y-106216333D01*
X128950767Y-106053617D01*
X128935471Y-106039478D01*
X128763354Y-105926419D01*
X128744304Y-105917997D01*
X128544846Y-105866784D01*
X128524095Y-105864986D01*
X128318800Y-105881144D01*
X128298585Y-105886165D01*
X128109593Y-105967949D01*
X128092095Y-105979247D01*
X127939784Y-106117841D01*
X127926889Y-106134198D01*
X127827681Y-106314654D01*
X127820780Y-106334307D01*
X127813807Y-106374262D01*
X127799084Y-106372986D01*
X127699781Y-106380802D01*
X127532852Y-106213873D01*
X127528025Y-106203821D01*
X127510359Y-106181612D01*
X127461587Y-106142608D01*
X127448656Y-106129676D01*
X127437598Y-106120857D01*
X127422602Y-106111431D01*
X127374335Y-106072830D01*
X127348731Y-106060466D01*
X127337373Y-106057865D01*
X127327458Y-106051633D01*
X127300677Y-106042254D01*
X127238549Y-106035231D01*
X127221193Y-106031256D01*
X127207083Y-106029661D01*
X127189278Y-106029661D01*
X127127636Y-106022692D01*
X127099435Y-106025855D01*
X127088536Y-106029661D01*
X119294976Y-106029661D01*
X119294976Y-105147810D01*
X119293763Y-105135490D01*
X119270421Y-105018142D01*
X119260923Y-104995211D01*
X119190995Y-104890556D01*
X119173444Y-104873005D01*
X119068789Y-104803077D01*
X119045858Y-104793579D01*
X118928510Y-104770237D01*
X118916190Y-104769024D01*
X117203810Y-104769024D01*
X117191490Y-104770237D01*
X117074142Y-104793579D01*
X117051211Y-104803077D01*
X116946556Y-104873005D01*
X116929005Y-104890556D01*
X116859077Y-104995211D01*
X116849579Y-105018142D01*
X116826237Y-105135490D01*
X116825104Y-105147000D01*
X116555924Y-105147000D01*
X116518400Y-105139536D01*
X116493580Y-105139536D01*
X116443885Y-105149421D01*
X116320578Y-105173948D01*
X116297648Y-105183446D01*
X116150984Y-105281443D01*
X116133433Y-105298994D01*
X116112174Y-105330811D01*
X115034518Y-106408467D01*
X114925631Y-106399897D01*
X114906841Y-106401228D01*
X114695947Y-106448368D01*
X114678378Y-106455165D01*
X114490669Y-106562233D01*
X114475876Y-106573895D01*
X114327946Y-106731424D01*
X114317235Y-106746920D01*
X114222165Y-106940983D01*
X114216485Y-106958943D01*
X114182679Y-107172382D01*
X114182531Y-107191219D01*
X114212980Y-107405162D01*
X114218378Y-107423209D01*
X114310388Y-107618741D01*
X114320853Y-107634403D01*
X114466290Y-107794237D01*
X114480899Y-107806130D01*
X114666904Y-107916133D01*
X114684363Y-107923205D01*
X114894491Y-107973652D01*
X114913258Y-107975278D01*
X115124283Y-107962001D01*
X114038709Y-109047575D01*
X114028656Y-109052403D01*
X114006450Y-109070067D01*
X113967452Y-109118833D01*
X113954516Y-109131768D01*
X113945696Y-109142827D01*
X113936271Y-109157822D01*
X113897668Y-109206093D01*
X113885304Y-109231699D01*
X113882704Y-109243050D01*
X113876474Y-109252963D01*
X113867093Y-109279747D01*
X113861187Y-109331987D01*
X113818679Y-109356233D01*
X113803886Y-109367895D01*
X113655956Y-109525424D01*
X113645245Y-109540920D01*
X113550175Y-109734983D01*
X113544495Y-109752943D01*
X113510689Y-109966382D01*
X113510541Y-109985219D01*
X112340159Y-109985219D01*
X112451692Y-109898706D01*
X112464694Y-109885076D01*
X112588952Y-109708275D01*
X112597372Y-109691424D01*
X112664227Y-109485665D01*
X112667326Y-109466580D01*
X112669108Y-109239691D01*
X112666309Y-109220560D01*
X112602693Y-109013777D01*
X112594539Y-108996796D01*
X112481781Y-108830877D01*
X112578692Y-108755706D01*
X112591694Y-108742076D01*
X112715952Y-108565275D01*
X112724372Y-108548424D01*
X112791227Y-108342665D01*
X112794326Y-108323580D01*
X112796108Y-108096691D01*
X112793309Y-108077560D01*
X112729693Y-107870776D01*
X112721539Y-107853795D01*
X112713500Y-107841966D01*
X112713500Y-107398163D01*
X112832692Y-107305708D01*
X112845694Y-107292078D01*
X112969952Y-107115277D01*
X112978372Y-107098426D01*
X113045227Y-106892667D01*
X113048326Y-106873582D01*
X113050108Y-106646693D01*
X113047309Y-106627562D01*
X112983693Y-106420779D01*
X112975539Y-106403798D01*
X112937506Y-106347834D01*
X112960923Y-106312789D01*
X112970421Y-106289858D01*
X112993763Y-106172510D01*
X112994976Y-106160190D01*
X112994976Y-105147810D01*
X112993763Y-105135490D01*
X112970421Y-105018142D01*
X112960923Y-104995211D01*
X112890995Y-104890556D01*
X112873444Y-104873005D01*
X112768789Y-104803077D01*
X112745858Y-104793579D01*
X112628510Y-104770237D01*
X112616190Y-104769024D01*
X110903810Y-104769024D01*
X110891490Y-104770237D01*
X110774142Y-104793579D01*
X110751211Y-104803077D01*
X110646556Y-104873005D01*
X110629005Y-104890556D01*
X110559077Y-104995211D01*
X110549579Y-105018142D01*
X110526237Y-105135490D01*
X110525024Y-105147810D01*
X110525024Y-106160190D01*
X110526237Y-106172510D01*
X110549579Y-106289858D01*
X110559077Y-106312789D01*
X110629005Y-106417444D01*
X110646556Y-106434995D01*
X110751211Y-106504923D01*
X110774142Y-106514421D01*
X110891490Y-106537763D01*
X110903810Y-106538976D01*
X111510273Y-106538976D01*
X111478689Y-106738384D01*
X111478541Y-106757221D01*
X111508990Y-106971164D01*
X111514388Y-106989211D01*
X111606398Y-107184743D01*
X111616863Y-107200405D01*
X111762300Y-107360239D01*
X111776908Y-107372132D01*
X111822500Y-107399095D01*
X111822501Y-107445470D01*
X111737957Y-107464368D01*
X111720388Y-107471165D01*
X111652730Y-107509756D01*
X111653108Y-107461691D01*
X111650309Y-107442560D01*
X111586693Y-107235777D01*
X111578539Y-107218796D01*
X111457074Y-107040065D01*
X111444287Y-107026232D01*
X111275637Y-106891118D01*
X111259348Y-106881656D01*
X111058425Y-106802106D01*
X111040074Y-106797852D01*
X110824641Y-106780897D01*
X110805851Y-106782228D01*
X110594957Y-106829368D01*
X110577388Y-106836165D01*
X110389679Y-106943233D01*
X110374886Y-106954895D01*
X110226956Y-107112424D01*
X110216245Y-107127920D01*
X110121175Y-107321983D01*
X110115495Y-107339943D01*
X110081689Y-107553382D01*
X110081541Y-107572219D01*
X106425000Y-107572219D01*
X106425000Y-106881809D01*
X106351191Y-106808000D01*
X100380000Y-106808000D01*
X100380000Y-102556835D01*
X100382379Y-102545062D01*
X100399479Y-102376728D01*
X100436528Y-102258501D01*
X100496601Y-102150127D01*
X100577232Y-102056053D01*
X100675142Y-101980107D01*
X100786307Y-101925407D01*
X100788453Y-101924848D01*
X100750175Y-102002983D01*
X100744495Y-102020943D01*
X100710689Y-102234382D01*
X100710541Y-102253219D01*
X100740990Y-102467162D01*
X100746388Y-102485209D01*
X100838398Y-102680741D01*
X100848863Y-102696403D01*
X100994300Y-102856237D01*
X101008909Y-102868130D01*
X101194914Y-102978133D01*
X101212373Y-102985205D01*
X101422501Y-103035652D01*
X101441269Y-103037278D01*
X101562637Y-103029642D01*
X101772997Y-103240002D01*
X101577030Y-103292512D01*
X101552550Y-103305255D01*
X101397379Y-103435458D01*
X101383208Y-103452347D01*
X101283315Y-103625367D01*
X101275774Y-103646084D01*
X101242041Y-103837395D01*
X101241082Y-103848356D01*
X101241082Y-104654401D01*
X101243238Y-104670777D01*
X101317512Y-104947971D01*
X101330255Y-104972451D01*
X101460458Y-105127621D01*
X101477347Y-105141792D01*
X101650367Y-105241685D01*
X101671084Y-105249226D01*
X101862395Y-105282959D01*
X101873356Y-105283918D01*
X102704401Y-105283918D01*
X102720777Y-105281762D01*
X102997971Y-105207488D01*
X103022451Y-105194745D01*
X103177621Y-105064542D01*
X103191792Y-105047653D01*
X103245751Y-104954193D01*
X103255255Y-104972451D01*
X103385458Y-105127621D01*
X103402347Y-105141792D01*
X103575367Y-105241685D01*
X103596084Y-105249226D01*
X103787395Y-105282959D01*
X103798356Y-105283918D01*
X104629401Y-105283918D01*
X104645777Y-105281762D01*
X104922971Y-105207488D01*
X104947451Y-105194745D01*
X105102621Y-105064542D01*
X105116792Y-105047653D01*
X105216685Y-104874633D01*
X105224226Y-104853916D01*
X105257959Y-104662605D01*
X105258918Y-104651644D01*
X105258918Y-104628645D01*
X105265557Y-104622006D01*
X105286816Y-104590189D01*
X105340647Y-104536358D01*
X105351269Y-104537278D01*
X105566941Y-104523709D01*
X105585356Y-104519744D01*
X105787505Y-104443359D01*
X105803940Y-104434154D01*
X105974692Y-104301706D01*
X105987694Y-104288076D01*
X106111952Y-104111275D01*
X106120372Y-104094424D01*
X106187227Y-103888665D01*
X106190326Y-103869580D01*
X106192108Y-103642691D01*
X106189309Y-103623560D01*
X106125693Y-103416777D01*
X106117539Y-103399796D01*
X105996074Y-103221065D01*
X105989388Y-103213831D01*
X122300591Y-103213831D01*
X122301623Y-103226113D01*
X122339817Y-103434209D01*
X122343214Y-103446056D01*
X122421098Y-103642771D01*
X122426731Y-103653733D01*
X122541343Y-103831574D01*
X122548998Y-103841233D01*
X122695969Y-103993426D01*
X122705355Y-104001414D01*
X122879087Y-104122161D01*
X122889846Y-104128174D01*
X123083723Y-104212877D01*
X123095445Y-104216685D01*
X123302082Y-104262117D01*
X123314320Y-104263576D01*
X123525846Y-104268007D01*
X123538135Y-104267062D01*
X123746493Y-104230323D01*
X123758363Y-104227008D01*
X123955618Y-104150498D01*
X123966619Y-104144941D01*
X124145255Y-104031575D01*
X124154967Y-104023987D01*
X124308183Y-103878083D01*
X124316236Y-103868753D01*
X124438193Y-103695868D01*
X124444280Y-103685152D01*
X124530335Y-103491870D01*
X124534226Y-103480175D01*
X124580163Y-103277982D01*
X124580163Y-103894258D01*
X124582319Y-103910634D01*
X124657137Y-104189859D01*
X124669880Y-104214339D01*
X124800990Y-104370590D01*
X124817879Y-104384761D01*
X124992120Y-104485359D01*
X125012837Y-104492900D01*
X125205538Y-104526878D01*
X125216499Y-104527837D01*
X125782191Y-104527837D01*
X125856000Y-104454028D01*
X125856000Y-103325809D01*
X126112000Y-103325809D01*
X126112000Y-104454028D01*
X126185809Y-104527837D01*
X126754258Y-104527837D01*
X126770634Y-104525681D01*
X127049859Y-104450863D01*
X127074339Y-104438120D01*
X127230590Y-104307010D01*
X127244761Y-104290121D01*
X127345359Y-104115880D01*
X127352900Y-104095163D01*
X127386878Y-103902462D01*
X127387837Y-103891501D01*
X127387837Y-103325809D01*
X127314028Y-103252000D01*
X126185809Y-103252000D01*
X126112000Y-103325809D01*
X125856000Y-103325809D01*
X125856000Y-101793972D01*
X126112000Y-101793972D01*
X126112000Y-102922191D01*
X126185809Y-102996000D01*
X127314028Y-102996000D01*
X127387837Y-102922191D01*
X127387837Y-102353742D01*
X127385681Y-102337366D01*
X127310863Y-102058142D01*
X127298120Y-102033662D01*
X127167010Y-101877410D01*
X127150121Y-101863239D01*
X126975880Y-101762641D01*
X126955163Y-101755100D01*
X126762462Y-101721122D01*
X126751501Y-101720163D01*
X126185809Y-101720163D01*
X126112000Y-101793972D01*
X125856000Y-101793972D01*
X125782191Y-101720163D01*
X125213742Y-101720163D01*
X125197366Y-101722319D01*
X124918142Y-101797137D01*
X124893662Y-101809880D01*
X124737410Y-101940990D01*
X124723239Y-101957879D01*
X124622641Y-102132120D01*
X124615100Y-102152837D01*
X124581122Y-102345538D01*
X124580163Y-102356499D01*
X124580163Y-102982325D01*
X124543745Y-102798404D01*
X124540183Y-102786605D01*
X124459558Y-102590996D01*
X124453772Y-102580114D01*
X124336690Y-102403892D01*
X124328900Y-102394341D01*
X124179820Y-102244215D01*
X124170323Y-102236358D01*
X123994921Y-102118049D01*
X123984080Y-102112187D01*
X123789039Y-102030199D01*
X123777265Y-102026555D01*
X123570014Y-101984012D01*
X123557757Y-101982724D01*
X123346189Y-101981247D01*
X123333915Y-101982364D01*
X123126090Y-102022008D01*
X123114266Y-102025488D01*
X122918100Y-102104744D01*
X122907177Y-102110454D01*
X122730141Y-102226304D01*
X122720536Y-102234027D01*
X122569374Y-102382056D01*
X122561451Y-102391497D01*
X122441919Y-102566069D01*
X122435982Y-102576869D01*
X122352634Y-102771334D01*
X122348908Y-102783081D01*
X122304919Y-102990031D01*
X122303545Y-103002279D01*
X122300591Y-103213831D01*
X105989388Y-103213831D01*
X105983287Y-103207232D01*
X105814637Y-103072118D01*
X105798348Y-103062656D01*
X105597425Y-102983106D01*
X105579074Y-102978852D01*
X105363641Y-102961897D01*
X105344851Y-102963228D01*
X105133957Y-103010368D01*
X105116388Y-103017165D01*
X104928679Y-103124233D01*
X104913886Y-103135895D01*
X104809261Y-103247308D01*
X104637605Y-103217041D01*
X104626644Y-103216082D01*
X103795598Y-103216082D01*
X103779223Y-103218238D01*
X103502030Y-103292512D01*
X103477550Y-103305255D01*
X103322379Y-103435458D01*
X103308208Y-103452347D01*
X103254249Y-103545807D01*
X103244745Y-103527550D01*
X103114542Y-103372379D01*
X103097653Y-103358208D01*
X102924633Y-103258315D01*
X102903916Y-103250774D01*
X102819500Y-103235889D01*
X102819500Y-103112439D01*
X102826965Y-103074910D01*
X102826965Y-103050090D01*
X102792552Y-102877087D01*
X102783053Y-102854157D01*
X102765942Y-102828548D01*
X102685057Y-102707494D01*
X102667506Y-102689943D01*
X102635689Y-102668684D01*
X102280764Y-102313759D01*
X102282108Y-102142691D01*
X102279309Y-102123560D01*
X102258466Y-102055808D01*
X110268163Y-102055808D01*
X110268163Y-102362258D01*
X110270319Y-102378634D01*
X110345137Y-102657859D01*
X110357880Y-102682339D01*
X110488990Y-102838590D01*
X110505879Y-102852761D01*
X110680120Y-102953359D01*
X110700837Y-102960900D01*
X110893538Y-102994878D01*
X110904499Y-102995837D01*
X111558191Y-102995837D01*
X111632000Y-102922028D01*
X111887999Y-102922028D01*
X111961808Y-102995837D01*
X112618258Y-102995837D01*
X112634634Y-102993681D01*
X112913859Y-102918863D01*
X112938339Y-102906120D01*
X113094590Y-102775010D01*
X113108761Y-102758121D01*
X113209359Y-102583880D01*
X113216900Y-102563163D01*
X113250878Y-102370462D01*
X113251837Y-102359501D01*
X113251837Y-102055809D01*
X113251836Y-102055808D01*
X116568163Y-102055808D01*
X116568163Y-102362258D01*
X116570319Y-102378634D01*
X116645137Y-102657859D01*
X116657880Y-102682339D01*
X116788990Y-102838590D01*
X116805879Y-102852761D01*
X116980120Y-102953359D01*
X117000837Y-102960900D01*
X117193538Y-102994878D01*
X117204499Y-102995837D01*
X117858191Y-102995837D01*
X117932000Y-102922028D01*
X118187999Y-102922028D01*
X118261808Y-102995837D01*
X118918258Y-102995837D01*
X118934634Y-102993681D01*
X119213859Y-102918863D01*
X119238339Y-102906120D01*
X119394590Y-102775010D01*
X119408761Y-102758121D01*
X119509359Y-102583880D01*
X119516900Y-102563163D01*
X119550878Y-102370462D01*
X119551837Y-102359501D01*
X119551837Y-102055809D01*
X119478028Y-101982000D01*
X118261809Y-101981999D01*
X118188000Y-102055808D01*
X118187999Y-102922028D01*
X117932000Y-102922028D01*
X117932001Y-102055809D01*
X117858192Y-101982000D01*
X116641972Y-101981999D01*
X116568163Y-102055808D01*
X113251836Y-102055808D01*
X113178028Y-101982000D01*
X111961809Y-101981999D01*
X111888000Y-102055808D01*
X111887999Y-102922028D01*
X111632000Y-102922028D01*
X111632001Y-102055809D01*
X111558192Y-101982000D01*
X110341972Y-101981999D01*
X110268163Y-102055808D01*
X102258466Y-102055808D01*
X102215693Y-101916777D01*
X102207539Y-101899796D01*
X102194086Y-101880000D01*
X109962574Y-101880000D01*
X109987591Y-101884976D01*
X110012410Y-101884976D01*
X110043521Y-101878788D01*
X110043527Y-101878787D01*
X110135859Y-101860421D01*
X110158789Y-101850923D01*
X110263444Y-101780995D01*
X110280995Y-101763444D01*
X110320417Y-101704445D01*
X110341972Y-101726000D01*
X111558191Y-101726001D01*
X111632000Y-101652192D01*
X111632000Y-101652191D01*
X111887999Y-101652191D01*
X111961808Y-101726000D01*
X113178028Y-101726001D01*
X113251837Y-101652192D01*
X113251837Y-101348499D01*
X116568163Y-101348499D01*
X116568163Y-101652191D01*
X116641972Y-101726000D01*
X117858191Y-101726001D01*
X117932000Y-101652192D01*
X117932000Y-101652191D01*
X118187999Y-101652191D01*
X118261808Y-101726000D01*
X119478028Y-101726001D01*
X119551837Y-101652192D01*
X119551837Y-101345742D01*
X119549681Y-101329366D01*
X119474863Y-101050142D01*
X119462120Y-101025662D01*
X119331010Y-100869410D01*
X119314121Y-100855239D01*
X119139880Y-100754641D01*
X119119163Y-100747100D01*
X118926462Y-100713122D01*
X118915501Y-100712163D01*
X118261809Y-100712163D01*
X118188000Y-100785972D01*
X118187999Y-101652191D01*
X117932000Y-101652191D01*
X117932001Y-100785972D01*
X117858192Y-100712163D01*
X117201742Y-100712163D01*
X117185366Y-100714319D01*
X116906142Y-100789137D01*
X116881662Y-100801880D01*
X116725410Y-100932990D01*
X116711239Y-100949879D01*
X116610641Y-101124120D01*
X116603100Y-101144837D01*
X116569122Y-101337538D01*
X116568163Y-101348499D01*
X113251837Y-101348499D01*
X113251837Y-101345742D01*
X113249681Y-101329366D01*
X113174863Y-101050142D01*
X113162120Y-101025662D01*
X113031010Y-100869410D01*
X113014121Y-100855239D01*
X112839880Y-100754641D01*
X112819163Y-100747100D01*
X112626462Y-100713122D01*
X112615501Y-100712163D01*
X111961809Y-100712163D01*
X111888000Y-100785972D01*
X111887999Y-101652191D01*
X111632000Y-101652191D01*
X111632001Y-100785972D01*
X111558192Y-100712163D01*
X110901742Y-100712163D01*
X110885366Y-100714319D01*
X110606142Y-100789137D01*
X110581662Y-100801880D01*
X110425410Y-100932990D01*
X110411239Y-100949879D01*
X110387950Y-100990216D01*
X110399479Y-100876728D01*
X110436528Y-100758501D01*
X110496601Y-100650127D01*
X110577232Y-100556053D01*
X110675142Y-100480107D01*
X110786307Y-100425407D01*
X110910802Y-100392979D01*
X111035708Y-100383367D01*
X111047899Y-100381211D01*
X111052222Y-100380000D01*
X128943165Y-100380000D01*
X128954938Y-100382379D01*
G37*
G04 #@! TD.AperFunction*
M02*
