G04 #@! TF.GenerationSoftware,KiCad,Pcbnew,(5.99.0-2119-g1c72042fc)*
G04 #@! TF.CreationDate,2020-07-24T00:21:19+02:00*
G04 #@! TF.ProjectId,ledCollar_PCB,6c656443-6f6c-46c6-9172-5f5043422e6b,rev?*
G04 #@! TF.SameCoordinates,Original*
G04 #@! TF.FileFunction,Copper,L1,Top*
G04 #@! TF.FilePolarity,Positive*
%FSLAX46Y46*%
G04 Gerber Fmt 4.6, Leading zero omitted, Abs format (unit mm)*
G04 Created by KiCad (PCBNEW (5.99.0-2119-g1c72042fc)) date 2020-07-24 00:21:19*
%MOMM*%
%LPD*%
G01*
G04 APERTURE LIST*
G04 #@! TA.AperFunction,SMDPad,CuDef*
%ADD10R,2.500000X1.500000*%
G04 #@! TD*
G04 #@! TA.AperFunction,ComponentPad*
%ADD11C,1.524000*%
G04 #@! TD*
G04 #@! TA.AperFunction,ComponentPad*
%ADD12R,1.524000X1.524000*%
G04 #@! TD*
G04 #@! TA.AperFunction,SMDPad,CuDef*
%ADD13R,1.500000X1.500000*%
G04 #@! TD*
G04 #@! TA.AperFunction,SMDPad,CuDef*
%ADD14R,1.780000X2.350000*%
G04 #@! TD*
G04 #@! TA.AperFunction,SMDPad,CuDef*
%ADD15R,0.700000X0.250000*%
G04 #@! TD*
G04 #@! TA.AperFunction,SMDPad,CuDef*
%ADD16R,1.060000X0.650000*%
G04 #@! TD*
G04 #@! TA.AperFunction,SMDPad,CuDef*
%ADD17R,0.800000X0.900000*%
G04 #@! TD*
G04 #@! TA.AperFunction,ComponentPad*
%ADD18O,1.700000X1.700000*%
G04 #@! TD*
G04 #@! TA.AperFunction,ComponentPad*
%ADD19R,1.700000X1.700000*%
G04 #@! TD*
G04 #@! TA.AperFunction,ViaPad*
%ADD20C,0.800000*%
G04 #@! TD*
G04 #@! TA.AperFunction,ViaPad*
%ADD21C,0.600000*%
G04 #@! TD*
G04 #@! TA.AperFunction,Conductor*
%ADD22C,0.250000*%
G04 #@! TD*
G04 #@! TA.AperFunction,Conductor*
%ADD23C,0.127000*%
G04 #@! TD*
G04 #@! TA.AperFunction,Conductor*
%ADD24C,0.500000*%
G04 #@! TD*
G04 #@! TA.AperFunction,Conductor*
%ADD25C,1.000000*%
G04 #@! TD*
G04 #@! TA.AperFunction,Conductor*
%ADD26C,0.254000*%
G04 #@! TD*
G04 APERTURE END LIST*
G04 #@! TA.AperFunction,SMDPad,CuDef*
G36*
G01*
X118903000Y-106423750D02*
X118903000Y-106936250D01*
G75*
G02*
X118684250Y-107155000I-218750J0D01*
G01*
X118246750Y-107155000D01*
G75*
G02*
X118028000Y-106936250I0J218750D01*
G01*
X118028000Y-106423750D01*
G75*
G02*
X118246750Y-106205000I218750J0D01*
G01*
X118684250Y-106205000D01*
G75*
G02*
X118903000Y-106423750I0J-218750D01*
G01*
G37*
G04 #@! TD.AperFunction*
G04 #@! TA.AperFunction,SMDPad,CuDef*
G36*
G01*
X120478000Y-106423750D02*
X120478000Y-106936250D01*
G75*
G02*
X120259250Y-107155000I-218750J0D01*
G01*
X119821750Y-107155000D01*
G75*
G02*
X119603000Y-106936250I0J218750D01*
G01*
X119603000Y-106423750D01*
G75*
G02*
X119821750Y-106205000I218750J0D01*
G01*
X120259250Y-106205000D01*
G75*
G02*
X120478000Y-106423750I0J-218750D01*
G01*
G37*
G04 #@! TD.AperFunction*
D10*
X101473000Y-112649000D03*
X101473000Y-105029000D03*
X101473000Y-107569000D03*
X101473000Y-110109000D03*
G04 #@! TA.AperFunction,SMDPad,CuDef*
G36*
G01*
X103562500Y-102506250D02*
X103562500Y-101993750D01*
G75*
G02*
X103781250Y-101775000I218750J0D01*
G01*
X104218750Y-101775000D01*
G75*
G02*
X104437500Y-101993750I0J-218750D01*
G01*
X104437500Y-102506250D01*
G75*
G02*
X104218750Y-102725000I-218750J0D01*
G01*
X103781250Y-102725000D01*
G75*
G02*
X103562500Y-102506250I0J218750D01*
G01*
G37*
G04 #@! TD.AperFunction*
G04 #@! TA.AperFunction,SMDPad,CuDef*
G36*
G01*
X101987500Y-102506250D02*
X101987500Y-101993750D01*
G75*
G02*
X102206250Y-101775000I218750J0D01*
G01*
X102643750Y-101775000D01*
G75*
G02*
X102862500Y-101993750I0J-218750D01*
G01*
X102862500Y-102506250D01*
G75*
G02*
X102643750Y-102725000I-218750J0D01*
G01*
X102206250Y-102725000D01*
G75*
G02*
X101987500Y-102506250I0J218750D01*
G01*
G37*
G04 #@! TD.AperFunction*
D11*
X123444000Y-103124000D03*
D12*
X125984000Y-103124000D03*
D13*
X109220000Y-117983000D03*
X111760000Y-117983000D03*
G04 #@! TA.AperFunction,SMDPad,CuDef*
G36*
G01*
X119123750Y-103499500D02*
X119636250Y-103499500D01*
G75*
G02*
X119855000Y-103718250I0J-218750D01*
G01*
X119855000Y-104155750D01*
G75*
G02*
X119636250Y-104374500I-218750J0D01*
G01*
X119123750Y-104374500D01*
G75*
G02*
X118905000Y-104155750I0J218750D01*
G01*
X118905000Y-103718250D01*
G75*
G02*
X119123750Y-103499500I218750J0D01*
G01*
G37*
G04 #@! TD.AperFunction*
G04 #@! TA.AperFunction,SMDPad,CuDef*
G36*
G01*
X119123750Y-101924500D02*
X119636250Y-101924500D01*
G75*
G02*
X119855000Y-102143250I0J-218750D01*
G01*
X119855000Y-102580750D01*
G75*
G02*
X119636250Y-102799500I-218750J0D01*
G01*
X119123750Y-102799500D01*
G75*
G02*
X118905000Y-102580750I0J218750D01*
G01*
X118905000Y-102143250D01*
G75*
G02*
X119123750Y-101924500I218750J0D01*
G01*
G37*
G04 #@! TD.AperFunction*
G04 #@! TA.AperFunction,SMDPad,CuDef*
G36*
G01*
X120647750Y-103499500D02*
X121160250Y-103499500D01*
G75*
G02*
X121379000Y-103718250I0J-218750D01*
G01*
X121379000Y-104155750D01*
G75*
G02*
X121160250Y-104374500I-218750J0D01*
G01*
X120647750Y-104374500D01*
G75*
G02*
X120429000Y-104155750I0J218750D01*
G01*
X120429000Y-103718250D01*
G75*
G02*
X120647750Y-103499500I218750J0D01*
G01*
G37*
G04 #@! TD.AperFunction*
G04 #@! TA.AperFunction,SMDPad,CuDef*
G36*
G01*
X120647750Y-101924500D02*
X121160250Y-101924500D01*
G75*
G02*
X121379000Y-102143250I0J-218750D01*
G01*
X121379000Y-102580750D01*
G75*
G02*
X121160250Y-102799500I-218750J0D01*
G01*
X120647750Y-102799500D01*
G75*
G02*
X120429000Y-102580750I0J218750D01*
G01*
X120429000Y-102143250D01*
G75*
G02*
X120647750Y-101924500I218750J0D01*
G01*
G37*
G04 #@! TD.AperFunction*
G04 #@! TA.AperFunction,SMDPad,CuDef*
G36*
G01*
X127404460Y-104642423D02*
X127404460Y-105154923D01*
G75*
G02*
X127185710Y-105373673I-218750J0D01*
G01*
X126748210Y-105373673D01*
G75*
G02*
X126529460Y-105154923I0J218750D01*
G01*
X126529460Y-104642423D01*
G75*
G02*
X126748210Y-104423673I218750J0D01*
G01*
X127185710Y-104423673D01*
G75*
G02*
X127404460Y-104642423I0J-218750D01*
G01*
G37*
G04 #@! TD.AperFunction*
G04 #@! TA.AperFunction,SMDPad,CuDef*
G36*
G01*
X128979460Y-104642423D02*
X128979460Y-105154923D01*
G75*
G02*
X128760710Y-105373673I-218750J0D01*
G01*
X128323210Y-105373673D01*
G75*
G02*
X128104460Y-105154923I0J218750D01*
G01*
X128104460Y-104642423D01*
G75*
G02*
X128323210Y-104423673I218750J0D01*
G01*
X128760710Y-104423673D01*
G75*
G02*
X128979460Y-104642423I0J-218750D01*
G01*
G37*
G04 #@! TD.AperFunction*
G04 #@! TA.AperFunction,SMDPad,CuDef*
G36*
G01*
X124835500Y-105152063D02*
X124835500Y-104639563D01*
G75*
G02*
X125054250Y-104420813I218750J0D01*
G01*
X125491750Y-104420813D01*
G75*
G02*
X125710500Y-104639563I0J-218750D01*
G01*
X125710500Y-105152063D01*
G75*
G02*
X125491750Y-105370813I-218750J0D01*
G01*
X125054250Y-105370813D01*
G75*
G02*
X124835500Y-105152063I0J218750D01*
G01*
G37*
G04 #@! TD.AperFunction*
G04 #@! TA.AperFunction,SMDPad,CuDef*
G36*
G01*
X123260500Y-105152063D02*
X123260500Y-104639563D01*
G75*
G02*
X123479250Y-104420813I218750J0D01*
G01*
X123916750Y-104420813D01*
G75*
G02*
X124135500Y-104639563I0J-218750D01*
G01*
X124135500Y-105152063D01*
G75*
G02*
X123916750Y-105370813I-218750J0D01*
G01*
X123479250Y-105370813D01*
G75*
G02*
X123260500Y-105152063I0J218750D01*
G01*
G37*
G04 #@! TD.AperFunction*
G04 #@! TA.AperFunction,SMDPad,CuDef*
G36*
G01*
X124264310Y-112265750D02*
X124264310Y-112778250D01*
G75*
G02*
X124045560Y-112997000I-218750J0D01*
G01*
X123608060Y-112997000D01*
G75*
G02*
X123389310Y-112778250I0J218750D01*
G01*
X123389310Y-112265750D01*
G75*
G02*
X123608060Y-112047000I218750J0D01*
G01*
X124045560Y-112047000D01*
G75*
G02*
X124264310Y-112265750I0J-218750D01*
G01*
G37*
G04 #@! TD.AperFunction*
G04 #@! TA.AperFunction,SMDPad,CuDef*
G36*
G01*
X125839310Y-112265750D02*
X125839310Y-112778250D01*
G75*
G02*
X125620560Y-112997000I-218750J0D01*
G01*
X125183060Y-112997000D01*
G75*
G02*
X124964310Y-112778250I0J218750D01*
G01*
X124964310Y-112265750D01*
G75*
G02*
X125183060Y-112047000I218750J0D01*
G01*
X125620560Y-112047000D01*
G75*
G02*
X125839310Y-112265750I0J-218750D01*
G01*
G37*
G04 #@! TD.AperFunction*
G04 #@! TA.AperFunction,SMDPad,CuDef*
G36*
G01*
X124259422Y-113789750D02*
X124259422Y-114302250D01*
G75*
G02*
X124040672Y-114521000I-218750J0D01*
G01*
X123603172Y-114521000D01*
G75*
G02*
X123384422Y-114302250I0J218750D01*
G01*
X123384422Y-113789750D01*
G75*
G02*
X123603172Y-113571000I218750J0D01*
G01*
X124040672Y-113571000D01*
G75*
G02*
X124259422Y-113789750I0J-218750D01*
G01*
G37*
G04 #@! TD.AperFunction*
G04 #@! TA.AperFunction,SMDPad,CuDef*
G36*
G01*
X125834422Y-113789750D02*
X125834422Y-114302250D01*
G75*
G02*
X125615672Y-114521000I-218750J0D01*
G01*
X125178172Y-114521000D01*
G75*
G02*
X124959422Y-114302250I0J218750D01*
G01*
X124959422Y-113789750D01*
G75*
G02*
X125178172Y-113571000I218750J0D01*
G01*
X125615672Y-113571000D01*
G75*
G02*
X125834422Y-113789750I0J-218750D01*
G01*
G37*
G04 #@! TD.AperFunction*
G04 #@! TA.AperFunction,SMDPad,CuDef*
G36*
G01*
X124225000Y-109757366D02*
X124225000Y-109907366D01*
G75*
G02*
X124150000Y-109982366I-75000J0D01*
G01*
X123450000Y-109982366D01*
G75*
G02*
X123375000Y-109907366I0J75000D01*
G01*
X123375000Y-109757366D01*
G75*
G02*
X123450000Y-109682366I75000J0D01*
G01*
X124150000Y-109682366D01*
G75*
G02*
X124225000Y-109757366I0J-75000D01*
G01*
G37*
G04 #@! TD.AperFunction*
G04 #@! TA.AperFunction,SMDPad,CuDef*
G36*
G01*
X124225000Y-109257366D02*
X124225000Y-109407366D01*
G75*
G02*
X124150000Y-109482366I-75000J0D01*
G01*
X123450000Y-109482366D01*
G75*
G02*
X123375000Y-109407366I0J75000D01*
G01*
X123375000Y-109257366D01*
G75*
G02*
X123450000Y-109182366I75000J0D01*
G01*
X124150000Y-109182366D01*
G75*
G02*
X124225000Y-109257366I0J-75000D01*
G01*
G37*
G04 #@! TD.AperFunction*
G04 #@! TA.AperFunction,SMDPad,CuDef*
G36*
G01*
X124225000Y-108757366D02*
X124225000Y-108907366D01*
G75*
G02*
X124150000Y-108982366I-75000J0D01*
G01*
X123450000Y-108982366D01*
G75*
G02*
X123375000Y-108907366I0J75000D01*
G01*
X123375000Y-108757366D01*
G75*
G02*
X123450000Y-108682366I75000J0D01*
G01*
X124150000Y-108682366D01*
G75*
G02*
X124225000Y-108757366I0J-75000D01*
G01*
G37*
G04 #@! TD.AperFunction*
G04 #@! TA.AperFunction,SMDPad,CuDef*
G36*
G01*
X124225000Y-108257366D02*
X124225000Y-108407366D01*
G75*
G02*
X124150000Y-108482366I-75000J0D01*
G01*
X123450000Y-108482366D01*
G75*
G02*
X123375000Y-108407366I0J75000D01*
G01*
X123375000Y-108257366D01*
G75*
G02*
X123450000Y-108182366I75000J0D01*
G01*
X124150000Y-108182366D01*
G75*
G02*
X124225000Y-108257366I0J-75000D01*
G01*
G37*
G04 #@! TD.AperFunction*
G04 #@! TA.AperFunction,SMDPad,CuDef*
G36*
G01*
X124225000Y-107757366D02*
X124225000Y-107907366D01*
G75*
G02*
X124150000Y-107982366I-75000J0D01*
G01*
X123450000Y-107982366D01*
G75*
G02*
X123375000Y-107907366I0J75000D01*
G01*
X123375000Y-107757366D01*
G75*
G02*
X123450000Y-107682366I75000J0D01*
G01*
X124150000Y-107682366D01*
G75*
G02*
X124225000Y-107757366I0J-75000D01*
G01*
G37*
G04 #@! TD.AperFunction*
G04 #@! TA.AperFunction,SMDPad,CuDef*
G36*
G01*
X124225000Y-107257366D02*
X124225000Y-107407366D01*
G75*
G02*
X124150000Y-107482366I-75000J0D01*
G01*
X123450000Y-107482366D01*
G75*
G02*
X123375000Y-107407366I0J75000D01*
G01*
X123375000Y-107257366D01*
G75*
G02*
X123450000Y-107182366I75000J0D01*
G01*
X124150000Y-107182366D01*
G75*
G02*
X124225000Y-107257366I0J-75000D01*
G01*
G37*
G04 #@! TD.AperFunction*
G04 #@! TA.AperFunction,SMDPad,CuDef*
G36*
G01*
X124575000Y-107057366D02*
X124425000Y-107057366D01*
G75*
G02*
X124350000Y-106982366I0J75000D01*
G01*
X124350000Y-106282366D01*
G75*
G02*
X124425000Y-106207366I75000J0D01*
G01*
X124575000Y-106207366D01*
G75*
G02*
X124650000Y-106282366I0J-75000D01*
G01*
X124650000Y-106982366D01*
G75*
G02*
X124575000Y-107057366I-75000J0D01*
G01*
G37*
G04 #@! TD.AperFunction*
G04 #@! TA.AperFunction,SMDPad,CuDef*
G36*
G01*
X125075000Y-107057366D02*
X124925000Y-107057366D01*
G75*
G02*
X124850000Y-106982366I0J75000D01*
G01*
X124850000Y-106282366D01*
G75*
G02*
X124925000Y-106207366I75000J0D01*
G01*
X125075000Y-106207366D01*
G75*
G02*
X125150000Y-106282366I0J-75000D01*
G01*
X125150000Y-106982366D01*
G75*
G02*
X125075000Y-107057366I-75000J0D01*
G01*
G37*
G04 #@! TD.AperFunction*
G04 #@! TA.AperFunction,SMDPad,CuDef*
G36*
G01*
X125575000Y-107057366D02*
X125425000Y-107057366D01*
G75*
G02*
X125350000Y-106982366I0J75000D01*
G01*
X125350000Y-106282366D01*
G75*
G02*
X125425000Y-106207366I75000J0D01*
G01*
X125575000Y-106207366D01*
G75*
G02*
X125650000Y-106282366I0J-75000D01*
G01*
X125650000Y-106982366D01*
G75*
G02*
X125575000Y-107057366I-75000J0D01*
G01*
G37*
G04 #@! TD.AperFunction*
G04 #@! TA.AperFunction,SMDPad,CuDef*
G36*
G01*
X126075000Y-107057366D02*
X125925000Y-107057366D01*
G75*
G02*
X125850000Y-106982366I0J75000D01*
G01*
X125850000Y-106282366D01*
G75*
G02*
X125925000Y-106207366I75000J0D01*
G01*
X126075000Y-106207366D01*
G75*
G02*
X126150000Y-106282366I0J-75000D01*
G01*
X126150000Y-106982366D01*
G75*
G02*
X126075000Y-107057366I-75000J0D01*
G01*
G37*
G04 #@! TD.AperFunction*
G04 #@! TA.AperFunction,SMDPad,CuDef*
G36*
G01*
X126575000Y-107057366D02*
X126425000Y-107057366D01*
G75*
G02*
X126350000Y-106982366I0J75000D01*
G01*
X126350000Y-106282366D01*
G75*
G02*
X126425000Y-106207366I75000J0D01*
G01*
X126575000Y-106207366D01*
G75*
G02*
X126650000Y-106282366I0J-75000D01*
G01*
X126650000Y-106982366D01*
G75*
G02*
X126575000Y-107057366I-75000J0D01*
G01*
G37*
G04 #@! TD.AperFunction*
G04 #@! TA.AperFunction,SMDPad,CuDef*
G36*
G01*
X127075000Y-107057366D02*
X126925000Y-107057366D01*
G75*
G02*
X126850000Y-106982366I0J75000D01*
G01*
X126850000Y-106282366D01*
G75*
G02*
X126925000Y-106207366I75000J0D01*
G01*
X127075000Y-106207366D01*
G75*
G02*
X127150000Y-106282366I0J-75000D01*
G01*
X127150000Y-106982366D01*
G75*
G02*
X127075000Y-107057366I-75000J0D01*
G01*
G37*
G04 #@! TD.AperFunction*
G04 #@! TA.AperFunction,SMDPad,CuDef*
G36*
G01*
X128125000Y-107257366D02*
X128125000Y-107407366D01*
G75*
G02*
X128050000Y-107482366I-75000J0D01*
G01*
X127350000Y-107482366D01*
G75*
G02*
X127275000Y-107407366I0J75000D01*
G01*
X127275000Y-107257366D01*
G75*
G02*
X127350000Y-107182366I75000J0D01*
G01*
X128050000Y-107182366D01*
G75*
G02*
X128125000Y-107257366I0J-75000D01*
G01*
G37*
G04 #@! TD.AperFunction*
G04 #@! TA.AperFunction,SMDPad,CuDef*
G36*
G01*
X128125000Y-107757366D02*
X128125000Y-107907366D01*
G75*
G02*
X128050000Y-107982366I-75000J0D01*
G01*
X127350000Y-107982366D01*
G75*
G02*
X127275000Y-107907366I0J75000D01*
G01*
X127275000Y-107757366D01*
G75*
G02*
X127350000Y-107682366I75000J0D01*
G01*
X128050000Y-107682366D01*
G75*
G02*
X128125000Y-107757366I0J-75000D01*
G01*
G37*
G04 #@! TD.AperFunction*
G04 #@! TA.AperFunction,SMDPad,CuDef*
G36*
G01*
X128125000Y-108257366D02*
X128125000Y-108407366D01*
G75*
G02*
X128050000Y-108482366I-75000J0D01*
G01*
X127350000Y-108482366D01*
G75*
G02*
X127275000Y-108407366I0J75000D01*
G01*
X127275000Y-108257366D01*
G75*
G02*
X127350000Y-108182366I75000J0D01*
G01*
X128050000Y-108182366D01*
G75*
G02*
X128125000Y-108257366I0J-75000D01*
G01*
G37*
G04 #@! TD.AperFunction*
G04 #@! TA.AperFunction,SMDPad,CuDef*
G36*
G01*
X128125000Y-108757366D02*
X128125000Y-108907366D01*
G75*
G02*
X128050000Y-108982366I-75000J0D01*
G01*
X127350000Y-108982366D01*
G75*
G02*
X127275000Y-108907366I0J75000D01*
G01*
X127275000Y-108757366D01*
G75*
G02*
X127350000Y-108682366I75000J0D01*
G01*
X128050000Y-108682366D01*
G75*
G02*
X128125000Y-108757366I0J-75000D01*
G01*
G37*
G04 #@! TD.AperFunction*
G04 #@! TA.AperFunction,SMDPad,CuDef*
G36*
G01*
X128125000Y-109257366D02*
X128125000Y-109407366D01*
G75*
G02*
X128050000Y-109482366I-75000J0D01*
G01*
X127350000Y-109482366D01*
G75*
G02*
X127275000Y-109407366I0J75000D01*
G01*
X127275000Y-109257366D01*
G75*
G02*
X127350000Y-109182366I75000J0D01*
G01*
X128050000Y-109182366D01*
G75*
G02*
X128125000Y-109257366I0J-75000D01*
G01*
G37*
G04 #@! TD.AperFunction*
G04 #@! TA.AperFunction,SMDPad,CuDef*
G36*
G01*
X128125000Y-109757366D02*
X128125000Y-109907366D01*
G75*
G02*
X128050000Y-109982366I-75000J0D01*
G01*
X127350000Y-109982366D01*
G75*
G02*
X127275000Y-109907366I0J75000D01*
G01*
X127275000Y-109757366D01*
G75*
G02*
X127350000Y-109682366I75000J0D01*
G01*
X128050000Y-109682366D01*
G75*
G02*
X128125000Y-109757366I0J-75000D01*
G01*
G37*
G04 #@! TD.AperFunction*
G04 #@! TA.AperFunction,SMDPad,CuDef*
G36*
G01*
X127075000Y-110957366D02*
X126925000Y-110957366D01*
G75*
G02*
X126850000Y-110882366I0J75000D01*
G01*
X126850000Y-110182366D01*
G75*
G02*
X126925000Y-110107366I75000J0D01*
G01*
X127075000Y-110107366D01*
G75*
G02*
X127150000Y-110182366I0J-75000D01*
G01*
X127150000Y-110882366D01*
G75*
G02*
X127075000Y-110957366I-75000J0D01*
G01*
G37*
G04 #@! TD.AperFunction*
G04 #@! TA.AperFunction,SMDPad,CuDef*
G36*
G01*
X126575000Y-110957366D02*
X126425000Y-110957366D01*
G75*
G02*
X126350000Y-110882366I0J75000D01*
G01*
X126350000Y-110182366D01*
G75*
G02*
X126425000Y-110107366I75000J0D01*
G01*
X126575000Y-110107366D01*
G75*
G02*
X126650000Y-110182366I0J-75000D01*
G01*
X126650000Y-110882366D01*
G75*
G02*
X126575000Y-110957366I-75000J0D01*
G01*
G37*
G04 #@! TD.AperFunction*
G04 #@! TA.AperFunction,SMDPad,CuDef*
G36*
G01*
X126075000Y-110957366D02*
X125925000Y-110957366D01*
G75*
G02*
X125850000Y-110882366I0J75000D01*
G01*
X125850000Y-110182366D01*
G75*
G02*
X125925000Y-110107366I75000J0D01*
G01*
X126075000Y-110107366D01*
G75*
G02*
X126150000Y-110182366I0J-75000D01*
G01*
X126150000Y-110882366D01*
G75*
G02*
X126075000Y-110957366I-75000J0D01*
G01*
G37*
G04 #@! TD.AperFunction*
G04 #@! TA.AperFunction,SMDPad,CuDef*
G36*
G01*
X125575000Y-110957366D02*
X125425000Y-110957366D01*
G75*
G02*
X125350000Y-110882366I0J75000D01*
G01*
X125350000Y-110182366D01*
G75*
G02*
X125425000Y-110107366I75000J0D01*
G01*
X125575000Y-110107366D01*
G75*
G02*
X125650000Y-110182366I0J-75000D01*
G01*
X125650000Y-110882366D01*
G75*
G02*
X125575000Y-110957366I-75000J0D01*
G01*
G37*
G04 #@! TD.AperFunction*
G04 #@! TA.AperFunction,SMDPad,CuDef*
G36*
G01*
X125075000Y-110957366D02*
X124925000Y-110957366D01*
G75*
G02*
X124850000Y-110882366I0J75000D01*
G01*
X124850000Y-110182366D01*
G75*
G02*
X124925000Y-110107366I75000J0D01*
G01*
X125075000Y-110107366D01*
G75*
G02*
X125150000Y-110182366I0J-75000D01*
G01*
X125150000Y-110882366D01*
G75*
G02*
X125075000Y-110957366I-75000J0D01*
G01*
G37*
G04 #@! TD.AperFunction*
G04 #@! TA.AperFunction,SMDPad,CuDef*
G36*
G01*
X124575000Y-110957366D02*
X124425000Y-110957366D01*
G75*
G02*
X124350000Y-110882366I0J75000D01*
G01*
X124350000Y-110182366D01*
G75*
G02*
X124425000Y-110107366I75000J0D01*
G01*
X124575000Y-110107366D01*
G75*
G02*
X124650000Y-110182366I0J-75000D01*
G01*
X124650000Y-110882366D01*
G75*
G02*
X124575000Y-110957366I-75000J0D01*
G01*
G37*
G04 #@! TD.AperFunction*
D14*
X109806000Y-105467000D03*
D15*
X111281000Y-106667000D03*
X108331000Y-106667000D03*
X108331000Y-104267000D03*
X108331000Y-104667000D03*
X108331000Y-105067000D03*
X108331000Y-105467000D03*
X108331000Y-105867000D03*
X108331000Y-106267000D03*
X111281000Y-106267000D03*
X111281000Y-105867000D03*
X111281000Y-105467000D03*
X111281000Y-105067000D03*
X111281000Y-104667000D03*
X111281000Y-104267000D03*
G04 #@! TA.AperFunction,SMDPad,CuDef*
G36*
G01*
X120594000Y-109876000D02*
X121919000Y-109876000D01*
G75*
G02*
X121994000Y-109951000I0J-75000D01*
G01*
X121994000Y-110101000D01*
G75*
G02*
X121919000Y-110176000I-75000J0D01*
G01*
X120594000Y-110176000D01*
G75*
G02*
X120519000Y-110101000I0J75000D01*
G01*
X120519000Y-109951000D01*
G75*
G02*
X120594000Y-109876000I75000J0D01*
G01*
G37*
G04 #@! TD.AperFunction*
G04 #@! TA.AperFunction,SMDPad,CuDef*
G36*
G01*
X120594000Y-110376000D02*
X121919000Y-110376000D01*
G75*
G02*
X121994000Y-110451000I0J-75000D01*
G01*
X121994000Y-110601000D01*
G75*
G02*
X121919000Y-110676000I-75000J0D01*
G01*
X120594000Y-110676000D01*
G75*
G02*
X120519000Y-110601000I0J75000D01*
G01*
X120519000Y-110451000D01*
G75*
G02*
X120594000Y-110376000I75000J0D01*
G01*
G37*
G04 #@! TD.AperFunction*
G04 #@! TA.AperFunction,SMDPad,CuDef*
G36*
G01*
X120594000Y-110876000D02*
X121919000Y-110876000D01*
G75*
G02*
X121994000Y-110951000I0J-75000D01*
G01*
X121994000Y-111101000D01*
G75*
G02*
X121919000Y-111176000I-75000J0D01*
G01*
X120594000Y-111176000D01*
G75*
G02*
X120519000Y-111101000I0J75000D01*
G01*
X120519000Y-110951000D01*
G75*
G02*
X120594000Y-110876000I75000J0D01*
G01*
G37*
G04 #@! TD.AperFunction*
G04 #@! TA.AperFunction,SMDPad,CuDef*
G36*
G01*
X120594000Y-111376000D02*
X121919000Y-111376000D01*
G75*
G02*
X121994000Y-111451000I0J-75000D01*
G01*
X121994000Y-111601000D01*
G75*
G02*
X121919000Y-111676000I-75000J0D01*
G01*
X120594000Y-111676000D01*
G75*
G02*
X120519000Y-111601000I0J75000D01*
G01*
X120519000Y-111451000D01*
G75*
G02*
X120594000Y-111376000I75000J0D01*
G01*
G37*
G04 #@! TD.AperFunction*
G04 #@! TA.AperFunction,SMDPad,CuDef*
G36*
G01*
X120594000Y-111876000D02*
X121919000Y-111876000D01*
G75*
G02*
X121994000Y-111951000I0J-75000D01*
G01*
X121994000Y-112101000D01*
G75*
G02*
X121919000Y-112176000I-75000J0D01*
G01*
X120594000Y-112176000D01*
G75*
G02*
X120519000Y-112101000I0J75000D01*
G01*
X120519000Y-111951000D01*
G75*
G02*
X120594000Y-111876000I75000J0D01*
G01*
G37*
G04 #@! TD.AperFunction*
G04 #@! TA.AperFunction,SMDPad,CuDef*
G36*
G01*
X120594000Y-112376000D02*
X121919000Y-112376000D01*
G75*
G02*
X121994000Y-112451000I0J-75000D01*
G01*
X121994000Y-112601000D01*
G75*
G02*
X121919000Y-112676000I-75000J0D01*
G01*
X120594000Y-112676000D01*
G75*
G02*
X120519000Y-112601000I0J75000D01*
G01*
X120519000Y-112451000D01*
G75*
G02*
X120594000Y-112376000I75000J0D01*
G01*
G37*
G04 #@! TD.AperFunction*
G04 #@! TA.AperFunction,SMDPad,CuDef*
G36*
G01*
X120594000Y-112876000D02*
X121919000Y-112876000D01*
G75*
G02*
X121994000Y-112951000I0J-75000D01*
G01*
X121994000Y-113101000D01*
G75*
G02*
X121919000Y-113176000I-75000J0D01*
G01*
X120594000Y-113176000D01*
G75*
G02*
X120519000Y-113101000I0J75000D01*
G01*
X120519000Y-112951000D01*
G75*
G02*
X120594000Y-112876000I75000J0D01*
G01*
G37*
G04 #@! TD.AperFunction*
G04 #@! TA.AperFunction,SMDPad,CuDef*
G36*
G01*
X120594000Y-113376000D02*
X121919000Y-113376000D01*
G75*
G02*
X121994000Y-113451000I0J-75000D01*
G01*
X121994000Y-113601000D01*
G75*
G02*
X121919000Y-113676000I-75000J0D01*
G01*
X120594000Y-113676000D01*
G75*
G02*
X120519000Y-113601000I0J75000D01*
G01*
X120519000Y-113451000D01*
G75*
G02*
X120594000Y-113376000I75000J0D01*
G01*
G37*
G04 #@! TD.AperFunction*
G04 #@! TA.AperFunction,SMDPad,CuDef*
G36*
G01*
X120594000Y-113876000D02*
X121919000Y-113876000D01*
G75*
G02*
X121994000Y-113951000I0J-75000D01*
G01*
X121994000Y-114101000D01*
G75*
G02*
X121919000Y-114176000I-75000J0D01*
G01*
X120594000Y-114176000D01*
G75*
G02*
X120519000Y-114101000I0J75000D01*
G01*
X120519000Y-113951000D01*
G75*
G02*
X120594000Y-113876000I75000J0D01*
G01*
G37*
G04 #@! TD.AperFunction*
G04 #@! TA.AperFunction,SMDPad,CuDef*
G36*
G01*
X120594000Y-114376000D02*
X121919000Y-114376000D01*
G75*
G02*
X121994000Y-114451000I0J-75000D01*
G01*
X121994000Y-114601000D01*
G75*
G02*
X121919000Y-114676000I-75000J0D01*
G01*
X120594000Y-114676000D01*
G75*
G02*
X120519000Y-114601000I0J75000D01*
G01*
X120519000Y-114451000D01*
G75*
G02*
X120594000Y-114376000I75000J0D01*
G01*
G37*
G04 #@! TD.AperFunction*
G04 #@! TA.AperFunction,SMDPad,CuDef*
G36*
G01*
X120594000Y-114876000D02*
X121919000Y-114876000D01*
G75*
G02*
X121994000Y-114951000I0J-75000D01*
G01*
X121994000Y-115101000D01*
G75*
G02*
X121919000Y-115176000I-75000J0D01*
G01*
X120594000Y-115176000D01*
G75*
G02*
X120519000Y-115101000I0J75000D01*
G01*
X120519000Y-114951000D01*
G75*
G02*
X120594000Y-114876000I75000J0D01*
G01*
G37*
G04 #@! TD.AperFunction*
G04 #@! TA.AperFunction,SMDPad,CuDef*
G36*
G01*
X120594000Y-115376000D02*
X121919000Y-115376000D01*
G75*
G02*
X121994000Y-115451000I0J-75000D01*
G01*
X121994000Y-115601000D01*
G75*
G02*
X121919000Y-115676000I-75000J0D01*
G01*
X120594000Y-115676000D01*
G75*
G02*
X120519000Y-115601000I0J75000D01*
G01*
X120519000Y-115451000D01*
G75*
G02*
X120594000Y-115376000I75000J0D01*
G01*
G37*
G04 #@! TD.AperFunction*
G04 #@! TA.AperFunction,SMDPad,CuDef*
G36*
G01*
X119769000Y-116201000D02*
X119919000Y-116201000D01*
G75*
G02*
X119994000Y-116276000I0J-75000D01*
G01*
X119994000Y-117601000D01*
G75*
G02*
X119919000Y-117676000I-75000J0D01*
G01*
X119769000Y-117676000D01*
G75*
G02*
X119694000Y-117601000I0J75000D01*
G01*
X119694000Y-116276000D01*
G75*
G02*
X119769000Y-116201000I75000J0D01*
G01*
G37*
G04 #@! TD.AperFunction*
G04 #@! TA.AperFunction,SMDPad,CuDef*
G36*
G01*
X119269000Y-116201000D02*
X119419000Y-116201000D01*
G75*
G02*
X119494000Y-116276000I0J-75000D01*
G01*
X119494000Y-117601000D01*
G75*
G02*
X119419000Y-117676000I-75000J0D01*
G01*
X119269000Y-117676000D01*
G75*
G02*
X119194000Y-117601000I0J75000D01*
G01*
X119194000Y-116276000D01*
G75*
G02*
X119269000Y-116201000I75000J0D01*
G01*
G37*
G04 #@! TD.AperFunction*
G04 #@! TA.AperFunction,SMDPad,CuDef*
G36*
G01*
X118769000Y-116201000D02*
X118919000Y-116201000D01*
G75*
G02*
X118994000Y-116276000I0J-75000D01*
G01*
X118994000Y-117601000D01*
G75*
G02*
X118919000Y-117676000I-75000J0D01*
G01*
X118769000Y-117676000D01*
G75*
G02*
X118694000Y-117601000I0J75000D01*
G01*
X118694000Y-116276000D01*
G75*
G02*
X118769000Y-116201000I75000J0D01*
G01*
G37*
G04 #@! TD.AperFunction*
G04 #@! TA.AperFunction,SMDPad,CuDef*
G36*
G01*
X118269000Y-116201000D02*
X118419000Y-116201000D01*
G75*
G02*
X118494000Y-116276000I0J-75000D01*
G01*
X118494000Y-117601000D01*
G75*
G02*
X118419000Y-117676000I-75000J0D01*
G01*
X118269000Y-117676000D01*
G75*
G02*
X118194000Y-117601000I0J75000D01*
G01*
X118194000Y-116276000D01*
G75*
G02*
X118269000Y-116201000I75000J0D01*
G01*
G37*
G04 #@! TD.AperFunction*
G04 #@! TA.AperFunction,SMDPad,CuDef*
G36*
G01*
X117769000Y-116201000D02*
X117919000Y-116201000D01*
G75*
G02*
X117994000Y-116276000I0J-75000D01*
G01*
X117994000Y-117601000D01*
G75*
G02*
X117919000Y-117676000I-75000J0D01*
G01*
X117769000Y-117676000D01*
G75*
G02*
X117694000Y-117601000I0J75000D01*
G01*
X117694000Y-116276000D01*
G75*
G02*
X117769000Y-116201000I75000J0D01*
G01*
G37*
G04 #@! TD.AperFunction*
G04 #@! TA.AperFunction,SMDPad,CuDef*
G36*
G01*
X117269000Y-116201000D02*
X117419000Y-116201000D01*
G75*
G02*
X117494000Y-116276000I0J-75000D01*
G01*
X117494000Y-117601000D01*
G75*
G02*
X117419000Y-117676000I-75000J0D01*
G01*
X117269000Y-117676000D01*
G75*
G02*
X117194000Y-117601000I0J75000D01*
G01*
X117194000Y-116276000D01*
G75*
G02*
X117269000Y-116201000I75000J0D01*
G01*
G37*
G04 #@! TD.AperFunction*
G04 #@! TA.AperFunction,SMDPad,CuDef*
G36*
G01*
X116769000Y-116201000D02*
X116919000Y-116201000D01*
G75*
G02*
X116994000Y-116276000I0J-75000D01*
G01*
X116994000Y-117601000D01*
G75*
G02*
X116919000Y-117676000I-75000J0D01*
G01*
X116769000Y-117676000D01*
G75*
G02*
X116694000Y-117601000I0J75000D01*
G01*
X116694000Y-116276000D01*
G75*
G02*
X116769000Y-116201000I75000J0D01*
G01*
G37*
G04 #@! TD.AperFunction*
G04 #@! TA.AperFunction,SMDPad,CuDef*
G36*
G01*
X116269000Y-116201000D02*
X116419000Y-116201000D01*
G75*
G02*
X116494000Y-116276000I0J-75000D01*
G01*
X116494000Y-117601000D01*
G75*
G02*
X116419000Y-117676000I-75000J0D01*
G01*
X116269000Y-117676000D01*
G75*
G02*
X116194000Y-117601000I0J75000D01*
G01*
X116194000Y-116276000D01*
G75*
G02*
X116269000Y-116201000I75000J0D01*
G01*
G37*
G04 #@! TD.AperFunction*
G04 #@! TA.AperFunction,SMDPad,CuDef*
G36*
G01*
X115769000Y-116201000D02*
X115919000Y-116201000D01*
G75*
G02*
X115994000Y-116276000I0J-75000D01*
G01*
X115994000Y-117601000D01*
G75*
G02*
X115919000Y-117676000I-75000J0D01*
G01*
X115769000Y-117676000D01*
G75*
G02*
X115694000Y-117601000I0J75000D01*
G01*
X115694000Y-116276000D01*
G75*
G02*
X115769000Y-116201000I75000J0D01*
G01*
G37*
G04 #@! TD.AperFunction*
G04 #@! TA.AperFunction,SMDPad,CuDef*
G36*
G01*
X115269000Y-116201000D02*
X115419000Y-116201000D01*
G75*
G02*
X115494000Y-116276000I0J-75000D01*
G01*
X115494000Y-117601000D01*
G75*
G02*
X115419000Y-117676000I-75000J0D01*
G01*
X115269000Y-117676000D01*
G75*
G02*
X115194000Y-117601000I0J75000D01*
G01*
X115194000Y-116276000D01*
G75*
G02*
X115269000Y-116201000I75000J0D01*
G01*
G37*
G04 #@! TD.AperFunction*
G04 #@! TA.AperFunction,SMDPad,CuDef*
G36*
G01*
X114769000Y-116201000D02*
X114919000Y-116201000D01*
G75*
G02*
X114994000Y-116276000I0J-75000D01*
G01*
X114994000Y-117601000D01*
G75*
G02*
X114919000Y-117676000I-75000J0D01*
G01*
X114769000Y-117676000D01*
G75*
G02*
X114694000Y-117601000I0J75000D01*
G01*
X114694000Y-116276000D01*
G75*
G02*
X114769000Y-116201000I75000J0D01*
G01*
G37*
G04 #@! TD.AperFunction*
G04 #@! TA.AperFunction,SMDPad,CuDef*
G36*
G01*
X114269000Y-116201000D02*
X114419000Y-116201000D01*
G75*
G02*
X114494000Y-116276000I0J-75000D01*
G01*
X114494000Y-117601000D01*
G75*
G02*
X114419000Y-117676000I-75000J0D01*
G01*
X114269000Y-117676000D01*
G75*
G02*
X114194000Y-117601000I0J75000D01*
G01*
X114194000Y-116276000D01*
G75*
G02*
X114269000Y-116201000I75000J0D01*
G01*
G37*
G04 #@! TD.AperFunction*
G04 #@! TA.AperFunction,SMDPad,CuDef*
G36*
G01*
X112269000Y-115376000D02*
X113594000Y-115376000D01*
G75*
G02*
X113669000Y-115451000I0J-75000D01*
G01*
X113669000Y-115601000D01*
G75*
G02*
X113594000Y-115676000I-75000J0D01*
G01*
X112269000Y-115676000D01*
G75*
G02*
X112194000Y-115601000I0J75000D01*
G01*
X112194000Y-115451000D01*
G75*
G02*
X112269000Y-115376000I75000J0D01*
G01*
G37*
G04 #@! TD.AperFunction*
G04 #@! TA.AperFunction,SMDPad,CuDef*
G36*
G01*
X112269000Y-114876000D02*
X113594000Y-114876000D01*
G75*
G02*
X113669000Y-114951000I0J-75000D01*
G01*
X113669000Y-115101000D01*
G75*
G02*
X113594000Y-115176000I-75000J0D01*
G01*
X112269000Y-115176000D01*
G75*
G02*
X112194000Y-115101000I0J75000D01*
G01*
X112194000Y-114951000D01*
G75*
G02*
X112269000Y-114876000I75000J0D01*
G01*
G37*
G04 #@! TD.AperFunction*
G04 #@! TA.AperFunction,SMDPad,CuDef*
G36*
G01*
X112269000Y-114376000D02*
X113594000Y-114376000D01*
G75*
G02*
X113669000Y-114451000I0J-75000D01*
G01*
X113669000Y-114601000D01*
G75*
G02*
X113594000Y-114676000I-75000J0D01*
G01*
X112269000Y-114676000D01*
G75*
G02*
X112194000Y-114601000I0J75000D01*
G01*
X112194000Y-114451000D01*
G75*
G02*
X112269000Y-114376000I75000J0D01*
G01*
G37*
G04 #@! TD.AperFunction*
G04 #@! TA.AperFunction,SMDPad,CuDef*
G36*
G01*
X112269000Y-113876000D02*
X113594000Y-113876000D01*
G75*
G02*
X113669000Y-113951000I0J-75000D01*
G01*
X113669000Y-114101000D01*
G75*
G02*
X113594000Y-114176000I-75000J0D01*
G01*
X112269000Y-114176000D01*
G75*
G02*
X112194000Y-114101000I0J75000D01*
G01*
X112194000Y-113951000D01*
G75*
G02*
X112269000Y-113876000I75000J0D01*
G01*
G37*
G04 #@! TD.AperFunction*
G04 #@! TA.AperFunction,SMDPad,CuDef*
G36*
G01*
X112269000Y-113376000D02*
X113594000Y-113376000D01*
G75*
G02*
X113669000Y-113451000I0J-75000D01*
G01*
X113669000Y-113601000D01*
G75*
G02*
X113594000Y-113676000I-75000J0D01*
G01*
X112269000Y-113676000D01*
G75*
G02*
X112194000Y-113601000I0J75000D01*
G01*
X112194000Y-113451000D01*
G75*
G02*
X112269000Y-113376000I75000J0D01*
G01*
G37*
G04 #@! TD.AperFunction*
G04 #@! TA.AperFunction,SMDPad,CuDef*
G36*
G01*
X112269000Y-112876000D02*
X113594000Y-112876000D01*
G75*
G02*
X113669000Y-112951000I0J-75000D01*
G01*
X113669000Y-113101000D01*
G75*
G02*
X113594000Y-113176000I-75000J0D01*
G01*
X112269000Y-113176000D01*
G75*
G02*
X112194000Y-113101000I0J75000D01*
G01*
X112194000Y-112951000D01*
G75*
G02*
X112269000Y-112876000I75000J0D01*
G01*
G37*
G04 #@! TD.AperFunction*
G04 #@! TA.AperFunction,SMDPad,CuDef*
G36*
G01*
X112269000Y-112376000D02*
X113594000Y-112376000D01*
G75*
G02*
X113669000Y-112451000I0J-75000D01*
G01*
X113669000Y-112601000D01*
G75*
G02*
X113594000Y-112676000I-75000J0D01*
G01*
X112269000Y-112676000D01*
G75*
G02*
X112194000Y-112601000I0J75000D01*
G01*
X112194000Y-112451000D01*
G75*
G02*
X112269000Y-112376000I75000J0D01*
G01*
G37*
G04 #@! TD.AperFunction*
G04 #@! TA.AperFunction,SMDPad,CuDef*
G36*
G01*
X112269000Y-111876000D02*
X113594000Y-111876000D01*
G75*
G02*
X113669000Y-111951000I0J-75000D01*
G01*
X113669000Y-112101000D01*
G75*
G02*
X113594000Y-112176000I-75000J0D01*
G01*
X112269000Y-112176000D01*
G75*
G02*
X112194000Y-112101000I0J75000D01*
G01*
X112194000Y-111951000D01*
G75*
G02*
X112269000Y-111876000I75000J0D01*
G01*
G37*
G04 #@! TD.AperFunction*
G04 #@! TA.AperFunction,SMDPad,CuDef*
G36*
G01*
X112269000Y-111376000D02*
X113594000Y-111376000D01*
G75*
G02*
X113669000Y-111451000I0J-75000D01*
G01*
X113669000Y-111601000D01*
G75*
G02*
X113594000Y-111676000I-75000J0D01*
G01*
X112269000Y-111676000D01*
G75*
G02*
X112194000Y-111601000I0J75000D01*
G01*
X112194000Y-111451000D01*
G75*
G02*
X112269000Y-111376000I75000J0D01*
G01*
G37*
G04 #@! TD.AperFunction*
G04 #@! TA.AperFunction,SMDPad,CuDef*
G36*
G01*
X112269000Y-110876000D02*
X113594000Y-110876000D01*
G75*
G02*
X113669000Y-110951000I0J-75000D01*
G01*
X113669000Y-111101000D01*
G75*
G02*
X113594000Y-111176000I-75000J0D01*
G01*
X112269000Y-111176000D01*
G75*
G02*
X112194000Y-111101000I0J75000D01*
G01*
X112194000Y-110951000D01*
G75*
G02*
X112269000Y-110876000I75000J0D01*
G01*
G37*
G04 #@! TD.AperFunction*
G04 #@! TA.AperFunction,SMDPad,CuDef*
G36*
G01*
X112269000Y-110376000D02*
X113594000Y-110376000D01*
G75*
G02*
X113669000Y-110451000I0J-75000D01*
G01*
X113669000Y-110601000D01*
G75*
G02*
X113594000Y-110676000I-75000J0D01*
G01*
X112269000Y-110676000D01*
G75*
G02*
X112194000Y-110601000I0J75000D01*
G01*
X112194000Y-110451000D01*
G75*
G02*
X112269000Y-110376000I75000J0D01*
G01*
G37*
G04 #@! TD.AperFunction*
G04 #@! TA.AperFunction,SMDPad,CuDef*
G36*
G01*
X112269000Y-109876000D02*
X113594000Y-109876000D01*
G75*
G02*
X113669000Y-109951000I0J-75000D01*
G01*
X113669000Y-110101000D01*
G75*
G02*
X113594000Y-110176000I-75000J0D01*
G01*
X112269000Y-110176000D01*
G75*
G02*
X112194000Y-110101000I0J75000D01*
G01*
X112194000Y-109951000D01*
G75*
G02*
X112269000Y-109876000I75000J0D01*
G01*
G37*
G04 #@! TD.AperFunction*
G04 #@! TA.AperFunction,SMDPad,CuDef*
G36*
G01*
X114269000Y-107876000D02*
X114419000Y-107876000D01*
G75*
G02*
X114494000Y-107951000I0J-75000D01*
G01*
X114494000Y-109276000D01*
G75*
G02*
X114419000Y-109351000I-75000J0D01*
G01*
X114269000Y-109351000D01*
G75*
G02*
X114194000Y-109276000I0J75000D01*
G01*
X114194000Y-107951000D01*
G75*
G02*
X114269000Y-107876000I75000J0D01*
G01*
G37*
G04 #@! TD.AperFunction*
G04 #@! TA.AperFunction,SMDPad,CuDef*
G36*
G01*
X114769000Y-107876000D02*
X114919000Y-107876000D01*
G75*
G02*
X114994000Y-107951000I0J-75000D01*
G01*
X114994000Y-109276000D01*
G75*
G02*
X114919000Y-109351000I-75000J0D01*
G01*
X114769000Y-109351000D01*
G75*
G02*
X114694000Y-109276000I0J75000D01*
G01*
X114694000Y-107951000D01*
G75*
G02*
X114769000Y-107876000I75000J0D01*
G01*
G37*
G04 #@! TD.AperFunction*
G04 #@! TA.AperFunction,SMDPad,CuDef*
G36*
G01*
X115269000Y-107876000D02*
X115419000Y-107876000D01*
G75*
G02*
X115494000Y-107951000I0J-75000D01*
G01*
X115494000Y-109276000D01*
G75*
G02*
X115419000Y-109351000I-75000J0D01*
G01*
X115269000Y-109351000D01*
G75*
G02*
X115194000Y-109276000I0J75000D01*
G01*
X115194000Y-107951000D01*
G75*
G02*
X115269000Y-107876000I75000J0D01*
G01*
G37*
G04 #@! TD.AperFunction*
G04 #@! TA.AperFunction,SMDPad,CuDef*
G36*
G01*
X115769000Y-107876000D02*
X115919000Y-107876000D01*
G75*
G02*
X115994000Y-107951000I0J-75000D01*
G01*
X115994000Y-109276000D01*
G75*
G02*
X115919000Y-109351000I-75000J0D01*
G01*
X115769000Y-109351000D01*
G75*
G02*
X115694000Y-109276000I0J75000D01*
G01*
X115694000Y-107951000D01*
G75*
G02*
X115769000Y-107876000I75000J0D01*
G01*
G37*
G04 #@! TD.AperFunction*
G04 #@! TA.AperFunction,SMDPad,CuDef*
G36*
G01*
X116269000Y-107876000D02*
X116419000Y-107876000D01*
G75*
G02*
X116494000Y-107951000I0J-75000D01*
G01*
X116494000Y-109276000D01*
G75*
G02*
X116419000Y-109351000I-75000J0D01*
G01*
X116269000Y-109351000D01*
G75*
G02*
X116194000Y-109276000I0J75000D01*
G01*
X116194000Y-107951000D01*
G75*
G02*
X116269000Y-107876000I75000J0D01*
G01*
G37*
G04 #@! TD.AperFunction*
G04 #@! TA.AperFunction,SMDPad,CuDef*
G36*
G01*
X116769000Y-107876000D02*
X116919000Y-107876000D01*
G75*
G02*
X116994000Y-107951000I0J-75000D01*
G01*
X116994000Y-109276000D01*
G75*
G02*
X116919000Y-109351000I-75000J0D01*
G01*
X116769000Y-109351000D01*
G75*
G02*
X116694000Y-109276000I0J75000D01*
G01*
X116694000Y-107951000D01*
G75*
G02*
X116769000Y-107876000I75000J0D01*
G01*
G37*
G04 #@! TD.AperFunction*
G04 #@! TA.AperFunction,SMDPad,CuDef*
G36*
G01*
X117269000Y-107876000D02*
X117419000Y-107876000D01*
G75*
G02*
X117494000Y-107951000I0J-75000D01*
G01*
X117494000Y-109276000D01*
G75*
G02*
X117419000Y-109351000I-75000J0D01*
G01*
X117269000Y-109351000D01*
G75*
G02*
X117194000Y-109276000I0J75000D01*
G01*
X117194000Y-107951000D01*
G75*
G02*
X117269000Y-107876000I75000J0D01*
G01*
G37*
G04 #@! TD.AperFunction*
G04 #@! TA.AperFunction,SMDPad,CuDef*
G36*
G01*
X117769000Y-107876000D02*
X117919000Y-107876000D01*
G75*
G02*
X117994000Y-107951000I0J-75000D01*
G01*
X117994000Y-109276000D01*
G75*
G02*
X117919000Y-109351000I-75000J0D01*
G01*
X117769000Y-109351000D01*
G75*
G02*
X117694000Y-109276000I0J75000D01*
G01*
X117694000Y-107951000D01*
G75*
G02*
X117769000Y-107876000I75000J0D01*
G01*
G37*
G04 #@! TD.AperFunction*
G04 #@! TA.AperFunction,SMDPad,CuDef*
G36*
G01*
X118269000Y-107876000D02*
X118419000Y-107876000D01*
G75*
G02*
X118494000Y-107951000I0J-75000D01*
G01*
X118494000Y-109276000D01*
G75*
G02*
X118419000Y-109351000I-75000J0D01*
G01*
X118269000Y-109351000D01*
G75*
G02*
X118194000Y-109276000I0J75000D01*
G01*
X118194000Y-107951000D01*
G75*
G02*
X118269000Y-107876000I75000J0D01*
G01*
G37*
G04 #@! TD.AperFunction*
G04 #@! TA.AperFunction,SMDPad,CuDef*
G36*
G01*
X118769000Y-107876000D02*
X118919000Y-107876000D01*
G75*
G02*
X118994000Y-107951000I0J-75000D01*
G01*
X118994000Y-109276000D01*
G75*
G02*
X118919000Y-109351000I-75000J0D01*
G01*
X118769000Y-109351000D01*
G75*
G02*
X118694000Y-109276000I0J75000D01*
G01*
X118694000Y-107951000D01*
G75*
G02*
X118769000Y-107876000I75000J0D01*
G01*
G37*
G04 #@! TD.AperFunction*
G04 #@! TA.AperFunction,SMDPad,CuDef*
G36*
G01*
X119269000Y-107876000D02*
X119419000Y-107876000D01*
G75*
G02*
X119494000Y-107951000I0J-75000D01*
G01*
X119494000Y-109276000D01*
G75*
G02*
X119419000Y-109351000I-75000J0D01*
G01*
X119269000Y-109351000D01*
G75*
G02*
X119194000Y-109276000I0J75000D01*
G01*
X119194000Y-107951000D01*
G75*
G02*
X119269000Y-107876000I75000J0D01*
G01*
G37*
G04 #@! TD.AperFunction*
G04 #@! TA.AperFunction,SMDPad,CuDef*
G36*
G01*
X119769000Y-107876000D02*
X119919000Y-107876000D01*
G75*
G02*
X119994000Y-107951000I0J-75000D01*
G01*
X119994000Y-109276000D01*
G75*
G02*
X119919000Y-109351000I-75000J0D01*
G01*
X119769000Y-109351000D01*
G75*
G02*
X119694000Y-109276000I0J75000D01*
G01*
X119694000Y-107951000D01*
G75*
G02*
X119769000Y-107876000I75000J0D01*
G01*
G37*
G04 #@! TD.AperFunction*
D16*
X108626000Y-111572000D03*
X108626000Y-113472000D03*
X106426000Y-113472000D03*
X106426000Y-112522000D03*
X106426000Y-111572000D03*
G04 #@! TA.AperFunction,SMDPad,CuDef*
G36*
G01*
X115318250Y-101478500D02*
X114805750Y-101478500D01*
G75*
G02*
X114587000Y-101259750I0J218750D01*
G01*
X114587000Y-100822250D01*
G75*
G02*
X114805750Y-100603500I218750J0D01*
G01*
X115318250Y-100603500D01*
G75*
G02*
X115537000Y-100822250I0J-218750D01*
G01*
X115537000Y-101259750D01*
G75*
G02*
X115318250Y-101478500I-218750J0D01*
G01*
G37*
G04 #@! TD.AperFunction*
G04 #@! TA.AperFunction,SMDPad,CuDef*
G36*
G01*
X115318250Y-103053500D02*
X114805750Y-103053500D01*
G75*
G02*
X114587000Y-102834750I0J218750D01*
G01*
X114587000Y-102397250D01*
G75*
G02*
X114805750Y-102178500I218750J0D01*
G01*
X115318250Y-102178500D01*
G75*
G02*
X115537000Y-102397250I0J-218750D01*
G01*
X115537000Y-102834750D01*
G75*
G02*
X115318250Y-103053500I-218750J0D01*
G01*
G37*
G04 #@! TD.AperFunction*
G04 #@! TA.AperFunction,SMDPad,CuDef*
G36*
G01*
X113281750Y-102178500D02*
X113794250Y-102178500D01*
G75*
G02*
X114013000Y-102397250I0J-218750D01*
G01*
X114013000Y-102834750D01*
G75*
G02*
X113794250Y-103053500I-218750J0D01*
G01*
X113281750Y-103053500D01*
G75*
G02*
X113063000Y-102834750I0J218750D01*
G01*
X113063000Y-102397250D01*
G75*
G02*
X113281750Y-102178500I218750J0D01*
G01*
G37*
G04 #@! TD.AperFunction*
G04 #@! TA.AperFunction,SMDPad,CuDef*
G36*
G01*
X113281750Y-100603500D02*
X113794250Y-100603500D01*
G75*
G02*
X114013000Y-100822250I0J-218750D01*
G01*
X114013000Y-101259750D01*
G75*
G02*
X113794250Y-101478500I-218750J0D01*
G01*
X113281750Y-101478500D01*
G75*
G02*
X113063000Y-101259750I0J218750D01*
G01*
X113063000Y-100822250D01*
G75*
G02*
X113281750Y-100603500I218750J0D01*
G01*
G37*
G04 #@! TD.AperFunction*
G04 #@! TA.AperFunction,SMDPad,CuDef*
G36*
G01*
X112270250Y-101478500D02*
X111757750Y-101478500D01*
G75*
G02*
X111539000Y-101259750I0J218750D01*
G01*
X111539000Y-100822250D01*
G75*
G02*
X111757750Y-100603500I218750J0D01*
G01*
X112270250Y-100603500D01*
G75*
G02*
X112489000Y-100822250I0J-218750D01*
G01*
X112489000Y-101259750D01*
G75*
G02*
X112270250Y-101478500I-218750J0D01*
G01*
G37*
G04 #@! TD.AperFunction*
G04 #@! TA.AperFunction,SMDPad,CuDef*
G36*
G01*
X112270250Y-103053500D02*
X111757750Y-103053500D01*
G75*
G02*
X111539000Y-102834750I0J218750D01*
G01*
X111539000Y-102397250D01*
G75*
G02*
X111757750Y-102178500I218750J0D01*
G01*
X112270250Y-102178500D01*
G75*
G02*
X112489000Y-102397250I0J-218750D01*
G01*
X112489000Y-102834750D01*
G75*
G02*
X112270250Y-103053500I-218750J0D01*
G01*
G37*
G04 #@! TD.AperFunction*
G04 #@! TA.AperFunction,SMDPad,CuDef*
G36*
G01*
X124966273Y-115829756D02*
X124966273Y-115317256D01*
G75*
G02*
X125185023Y-115098506I218750J0D01*
G01*
X125622523Y-115098506D01*
G75*
G02*
X125841273Y-115317256I0J-218750D01*
G01*
X125841273Y-115829756D01*
G75*
G02*
X125622523Y-116048506I-218750J0D01*
G01*
X125185023Y-116048506D01*
G75*
G02*
X124966273Y-115829756I0J218750D01*
G01*
G37*
G04 #@! TD.AperFunction*
G04 #@! TA.AperFunction,SMDPad,CuDef*
G36*
G01*
X123391273Y-115829756D02*
X123391273Y-115317256D01*
G75*
G02*
X123610023Y-115098506I218750J0D01*
G01*
X124047523Y-115098506D01*
G75*
G02*
X124266273Y-115317256I0J-218750D01*
G01*
X124266273Y-115829756D01*
G75*
G02*
X124047523Y-116048506I-218750J0D01*
G01*
X123610023Y-116048506D01*
G75*
G02*
X123391273Y-115829756I0J218750D01*
G01*
G37*
G04 #@! TD.AperFunction*
G04 #@! TA.AperFunction,SMDPad,CuDef*
G36*
G01*
X111000250Y-111435500D02*
X110487750Y-111435500D01*
G75*
G02*
X110269000Y-111216750I0J218750D01*
G01*
X110269000Y-110779250D01*
G75*
G02*
X110487750Y-110560500I218750J0D01*
G01*
X111000250Y-110560500D01*
G75*
G02*
X111219000Y-110779250I0J-218750D01*
G01*
X111219000Y-111216750D01*
G75*
G02*
X111000250Y-111435500I-218750J0D01*
G01*
G37*
G04 #@! TD.AperFunction*
G04 #@! TA.AperFunction,SMDPad,CuDef*
G36*
G01*
X111000250Y-113010500D02*
X110487750Y-113010500D01*
G75*
G02*
X110269000Y-112791750I0J218750D01*
G01*
X110269000Y-112354250D01*
G75*
G02*
X110487750Y-112135500I218750J0D01*
G01*
X111000250Y-112135500D01*
G75*
G02*
X111219000Y-112354250I0J-218750D01*
G01*
X111219000Y-112791750D01*
G75*
G02*
X111000250Y-113010500I-218750J0D01*
G01*
G37*
G04 #@! TD.AperFunction*
G04 #@! TA.AperFunction,SMDPad,CuDef*
G36*
G01*
X111000250Y-114483500D02*
X110487750Y-114483500D01*
G75*
G02*
X110269000Y-114264750I0J218750D01*
G01*
X110269000Y-113827250D01*
G75*
G02*
X110487750Y-113608500I218750J0D01*
G01*
X111000250Y-113608500D01*
G75*
G02*
X111219000Y-113827250I0J-218750D01*
G01*
X111219000Y-114264750D01*
G75*
G02*
X111000250Y-114483500I-218750J0D01*
G01*
G37*
G04 #@! TD.AperFunction*
G04 #@! TA.AperFunction,SMDPad,CuDef*
G36*
G01*
X111000250Y-116058500D02*
X110487750Y-116058500D01*
G75*
G02*
X110269000Y-115839750I0J218750D01*
G01*
X110269000Y-115402250D01*
G75*
G02*
X110487750Y-115183500I218750J0D01*
G01*
X111000250Y-115183500D01*
G75*
G02*
X111219000Y-115402250I0J-218750D01*
G01*
X111219000Y-115839750D01*
G75*
G02*
X111000250Y-116058500I-218750J0D01*
G01*
G37*
G04 #@! TD.AperFunction*
G04 #@! TA.AperFunction,SMDPad,CuDef*
G36*
G01*
X102532023Y-118956250D02*
X102532023Y-118443750D01*
G75*
G02*
X102750773Y-118225000I218750J0D01*
G01*
X103188273Y-118225000D01*
G75*
G02*
X103407023Y-118443750I0J-218750D01*
G01*
X103407023Y-118956250D01*
G75*
G02*
X103188273Y-119175000I-218750J0D01*
G01*
X102750773Y-119175000D01*
G75*
G02*
X102532023Y-118956250I0J218750D01*
G01*
G37*
G04 #@! TD.AperFunction*
G04 #@! TA.AperFunction,SMDPad,CuDef*
G36*
G01*
X104107023Y-118956250D02*
X104107023Y-118443750D01*
G75*
G02*
X104325773Y-118225000I218750J0D01*
G01*
X104763273Y-118225000D01*
G75*
G02*
X104982023Y-118443750I0J-218750D01*
G01*
X104982023Y-118956250D01*
G75*
G02*
X104763273Y-119175000I-218750J0D01*
G01*
X104325773Y-119175000D01*
G75*
G02*
X104107023Y-118956250I0J218750D01*
G01*
G37*
G04 #@! TD.AperFunction*
D17*
X103759673Y-115102726D03*
X104709673Y-117102726D03*
X102809673Y-117102726D03*
D18*
X128016000Y-113100498D03*
X128016000Y-115640498D03*
D19*
X128016000Y-118180498D03*
G04 #@! TA.AperFunction,SMDPad,CuDef*
G36*
G01*
X106682250Y-102748500D02*
X106169750Y-102748500D01*
G75*
G02*
X105951000Y-102529750I0J218750D01*
G01*
X105951000Y-102092250D01*
G75*
G02*
X106169750Y-101873500I218750J0D01*
G01*
X106682250Y-101873500D01*
G75*
G02*
X106901000Y-102092250I0J-218750D01*
G01*
X106901000Y-102529750D01*
G75*
G02*
X106682250Y-102748500I-218750J0D01*
G01*
G37*
G04 #@! TD.AperFunction*
G04 #@! TA.AperFunction,SMDPad,CuDef*
G36*
G01*
X106682250Y-104323500D02*
X106169750Y-104323500D01*
G75*
G02*
X105951000Y-104104750I0J218750D01*
G01*
X105951000Y-103667250D01*
G75*
G02*
X106169750Y-103448500I218750J0D01*
G01*
X106682250Y-103448500D01*
G75*
G02*
X106901000Y-103667250I0J-218750D01*
G01*
X106901000Y-104104750D01*
G75*
G02*
X106682250Y-104323500I-218750J0D01*
G01*
G37*
G04 #@! TD.AperFunction*
G04 #@! TA.AperFunction,SMDPad,CuDef*
G36*
G01*
X106169750Y-106496500D02*
X106682250Y-106496500D01*
G75*
G02*
X106901000Y-106715250I0J-218750D01*
G01*
X106901000Y-107152750D01*
G75*
G02*
X106682250Y-107371500I-218750J0D01*
G01*
X106169750Y-107371500D01*
G75*
G02*
X105951000Y-107152750I0J218750D01*
G01*
X105951000Y-106715250D01*
G75*
G02*
X106169750Y-106496500I218750J0D01*
G01*
G37*
G04 #@! TD.AperFunction*
G04 #@! TA.AperFunction,SMDPad,CuDef*
G36*
G01*
X106169750Y-104921500D02*
X106682250Y-104921500D01*
G75*
G02*
X106901000Y-105140250I0J-218750D01*
G01*
X106901000Y-105577750D01*
G75*
G02*
X106682250Y-105796500I-218750J0D01*
G01*
X106169750Y-105796500D01*
G75*
G02*
X105951000Y-105577750I0J218750D01*
G01*
X105951000Y-105140250D01*
G75*
G02*
X106169750Y-104921500I218750J0D01*
G01*
G37*
G04 #@! TD.AperFunction*
G04 #@! TA.AperFunction,SMDPad,CuDef*
G36*
G01*
X109036500Y-102567250D02*
X109036500Y-102054750D01*
G75*
G02*
X109255250Y-101836000I218750J0D01*
G01*
X109692750Y-101836000D01*
G75*
G02*
X109911500Y-102054750I0J-218750D01*
G01*
X109911500Y-102567250D01*
G75*
G02*
X109692750Y-102786000I-218750J0D01*
G01*
X109255250Y-102786000D01*
G75*
G02*
X109036500Y-102567250I0J218750D01*
G01*
G37*
G04 #@! TD.AperFunction*
G04 #@! TA.AperFunction,SMDPad,CuDef*
G36*
G01*
X107461500Y-102567250D02*
X107461500Y-102054750D01*
G75*
G02*
X107680250Y-101836000I218750J0D01*
G01*
X108117750Y-101836000D01*
G75*
G02*
X108336500Y-102054750I0J-218750D01*
G01*
X108336500Y-102567250D01*
G75*
G02*
X108117750Y-102786000I-218750J0D01*
G01*
X107680250Y-102786000D01*
G75*
G02*
X107461500Y-102567250I0J218750D01*
G01*
G37*
G04 #@! TD.AperFunction*
G04 #@! TA.AperFunction,SMDPad,CuDef*
G36*
G01*
X114777000Y-104777250D02*
X114777000Y-104264750D01*
G75*
G02*
X114995750Y-104046000I218750J0D01*
G01*
X115433250Y-104046000D01*
G75*
G02*
X115652000Y-104264750I0J-218750D01*
G01*
X115652000Y-104777250D01*
G75*
G02*
X115433250Y-104996000I-218750J0D01*
G01*
X114995750Y-104996000D01*
G75*
G02*
X114777000Y-104777250I0J218750D01*
G01*
G37*
G04 #@! TD.AperFunction*
G04 #@! TA.AperFunction,SMDPad,CuDef*
G36*
G01*
X113202000Y-104777250D02*
X113202000Y-104264750D01*
G75*
G02*
X113420750Y-104046000I218750J0D01*
G01*
X113858250Y-104046000D01*
G75*
G02*
X114077000Y-104264750I0J-218750D01*
G01*
X114077000Y-104777250D01*
G75*
G02*
X113858250Y-104996000I-218750J0D01*
G01*
X113420750Y-104996000D01*
G75*
G02*
X113202000Y-104777250I0J218750D01*
G01*
G37*
G04 #@! TD.AperFunction*
G04 #@! TA.AperFunction,SMDPad,CuDef*
G36*
G01*
X116329750Y-102178500D02*
X116842250Y-102178500D01*
G75*
G02*
X117061000Y-102397250I0J-218750D01*
G01*
X117061000Y-102834750D01*
G75*
G02*
X116842250Y-103053500I-218750J0D01*
G01*
X116329750Y-103053500D01*
G75*
G02*
X116111000Y-102834750I0J218750D01*
G01*
X116111000Y-102397250D01*
G75*
G02*
X116329750Y-102178500I218750J0D01*
G01*
G37*
G04 #@! TD.AperFunction*
G04 #@! TA.AperFunction,SMDPad,CuDef*
G36*
G01*
X116329750Y-100603500D02*
X116842250Y-100603500D01*
G75*
G02*
X117061000Y-100822250I0J-218750D01*
G01*
X117061000Y-101259750D01*
G75*
G02*
X116842250Y-101478500I-218750J0D01*
G01*
X116329750Y-101478500D01*
G75*
G02*
X116111000Y-101259750I0J218750D01*
G01*
X116111000Y-100822250D01*
G75*
G02*
X116329750Y-100603500I218750J0D01*
G01*
G37*
G04 #@! TD.AperFunction*
G04 #@! TA.AperFunction,SMDPad,CuDef*
G36*
G01*
X121824000Y-118615750D02*
X121824000Y-119128250D01*
G75*
G02*
X121605250Y-119347000I-218750J0D01*
G01*
X121167750Y-119347000D01*
G75*
G02*
X120949000Y-119128250I0J218750D01*
G01*
X120949000Y-118615750D01*
G75*
G02*
X121167750Y-118397000I218750J0D01*
G01*
X121605250Y-118397000D01*
G75*
G02*
X121824000Y-118615750I0J-218750D01*
G01*
G37*
G04 #@! TD.AperFunction*
G04 #@! TA.AperFunction,SMDPad,CuDef*
G36*
G01*
X123399000Y-118615750D02*
X123399000Y-119128250D01*
G75*
G02*
X123180250Y-119347000I-218750J0D01*
G01*
X122742750Y-119347000D01*
G75*
G02*
X122524000Y-119128250I0J218750D01*
G01*
X122524000Y-118615750D01*
G75*
G02*
X122742750Y-118397000I218750J0D01*
G01*
X123180250Y-118397000D01*
G75*
G02*
X123399000Y-118615750I0J-218750D01*
G01*
G37*
G04 #@! TD.AperFunction*
G04 #@! TA.AperFunction,SMDPad,CuDef*
G36*
G01*
X116710750Y-106268000D02*
X117223250Y-106268000D01*
G75*
G02*
X117442000Y-106486750I0J-218750D01*
G01*
X117442000Y-106924250D01*
G75*
G02*
X117223250Y-107143000I-218750J0D01*
G01*
X116710750Y-107143000D01*
G75*
G02*
X116492000Y-106924250I0J218750D01*
G01*
X116492000Y-106486750D01*
G75*
G02*
X116710750Y-106268000I218750J0D01*
G01*
G37*
G04 #@! TD.AperFunction*
G04 #@! TA.AperFunction,SMDPad,CuDef*
G36*
G01*
X116710750Y-104693000D02*
X117223250Y-104693000D01*
G75*
G02*
X117442000Y-104911750I0J-218750D01*
G01*
X117442000Y-105349250D01*
G75*
G02*
X117223250Y-105568000I-218750J0D01*
G01*
X116710750Y-105568000D01*
G75*
G02*
X116492000Y-105349250I0J218750D01*
G01*
X116492000Y-104911750D01*
G75*
G02*
X116710750Y-104693000I218750J0D01*
G01*
G37*
G04 #@! TD.AperFunction*
G04 #@! TA.AperFunction,SMDPad,CuDef*
G36*
G01*
X106863500Y-109343750D02*
X106863500Y-109856250D01*
G75*
G02*
X106644750Y-110075000I-218750J0D01*
G01*
X106207250Y-110075000D01*
G75*
G02*
X105988500Y-109856250I0J218750D01*
G01*
X105988500Y-109343750D01*
G75*
G02*
X106207250Y-109125000I218750J0D01*
G01*
X106644750Y-109125000D01*
G75*
G02*
X106863500Y-109343750I0J-218750D01*
G01*
G37*
G04 #@! TD.AperFunction*
G04 #@! TA.AperFunction,SMDPad,CuDef*
G36*
G01*
X108438500Y-109343750D02*
X108438500Y-109856250D01*
G75*
G02*
X108219750Y-110075000I-218750J0D01*
G01*
X107782250Y-110075000D01*
G75*
G02*
X107563500Y-109856250I0J218750D01*
G01*
X107563500Y-109343750D01*
G75*
G02*
X107782250Y-109125000I218750J0D01*
G01*
X108219750Y-109125000D01*
G75*
G02*
X108438500Y-109343750I0J-218750D01*
G01*
G37*
G04 #@! TD.AperFunction*
G04 #@! TA.AperFunction,SMDPad,CuDef*
G36*
G01*
X108274500Y-115318250D02*
X108274500Y-114805750D01*
G75*
G02*
X108493250Y-114587000I218750J0D01*
G01*
X108930750Y-114587000D01*
G75*
G02*
X109149500Y-114805750I0J-218750D01*
G01*
X109149500Y-115318250D01*
G75*
G02*
X108930750Y-115537000I-218750J0D01*
G01*
X108493250Y-115537000D01*
G75*
G02*
X108274500Y-115318250I0J218750D01*
G01*
G37*
G04 #@! TD.AperFunction*
G04 #@! TA.AperFunction,SMDPad,CuDef*
G36*
G01*
X106699500Y-115318250D02*
X106699500Y-114805750D01*
G75*
G02*
X106918250Y-114587000I218750J0D01*
G01*
X107355750Y-114587000D01*
G75*
G02*
X107574500Y-114805750I0J-218750D01*
G01*
X107574500Y-115318250D01*
G75*
G02*
X107355750Y-115537000I-218750J0D01*
G01*
X106918250Y-115537000D01*
G75*
G02*
X106699500Y-115318250I0J218750D01*
G01*
G37*
G04 #@! TD.AperFunction*
D20*
X120650000Y-108559600D03*
X121412000Y-109347000D03*
X110490000Y-103632000D03*
X114935000Y-111506000D03*
X115050000Y-112649000D03*
X114300000Y-109982000D03*
D21*
X113792000Y-119474986D03*
X113538000Y-118618000D03*
D20*
X115697000Y-110490000D03*
X117610370Y-111633923D03*
X117348000Y-113225400D03*
X118361405Y-113200288D03*
X105410000Y-103750000D03*
X109347000Y-109500000D03*
X111887000Y-109347000D03*
X105250000Y-109000000D03*
X109500000Y-110500000D03*
X101500000Y-102250000D03*
X114971990Y-107188000D03*
X114554000Y-103759000D03*
D21*
X107569000Y-111760000D03*
X107569000Y-113411000D03*
X107406001Y-110652999D03*
D20*
X125349000Y-113284000D03*
X122936000Y-112649000D03*
X124460000Y-117221000D03*
X106807000Y-117475000D03*
X106807000Y-118491000D03*
X107823000Y-117475000D03*
X107823000Y-118491000D03*
D21*
X101600000Y-108712000D03*
X101600000Y-111379000D03*
D20*
X127889000Y-110871000D03*
D21*
X128474959Y-106553000D03*
X127749949Y-107061000D03*
D20*
X123698000Y-117983000D03*
X112014000Y-103505000D03*
X105283000Y-102616000D03*
X112014000Y-108204000D03*
X112268000Y-106754002D03*
X107823000Y-108204000D03*
X110871000Y-107569000D03*
X109791458Y-106905490D03*
X108077000Y-112522000D03*
X120396000Y-119253000D03*
X119380000Y-119253000D03*
X122723002Y-116389261D03*
X121412000Y-116332000D03*
X122686653Y-111510653D03*
X122324990Y-107422554D03*
D22*
X116844000Y-107742800D02*
X117035810Y-107550990D01*
X116844000Y-108613500D02*
X116844000Y-107742800D01*
X117035810Y-107550990D02*
X117594510Y-107550990D01*
X117594510Y-107550990D02*
X118465500Y-106680000D01*
D23*
X114045014Y-119474986D02*
X113792000Y-119474986D01*
X115844000Y-116938500D02*
X115844000Y-117676000D01*
X115844000Y-117676000D02*
X114045014Y-119474986D01*
X113902000Y-118618000D02*
X113538000Y-118618000D01*
X114844000Y-116938500D02*
X114844000Y-117676000D01*
X114844000Y-117676000D02*
X113902000Y-118618000D01*
D24*
X119836812Y-105003600D02*
X120928010Y-106094798D01*
D22*
X123041998Y-109832366D02*
X121539000Y-108329368D01*
D24*
X118059200Y-105003600D02*
X119836812Y-105003600D01*
D22*
X123800000Y-109832366D02*
X123041998Y-109832366D01*
X121539000Y-105892600D02*
X119583400Y-103937000D01*
D24*
X120928010Y-108281590D02*
X120650000Y-108559600D01*
X120928010Y-106094798D02*
X120928010Y-108281590D01*
D22*
X121539000Y-108329368D02*
X121539000Y-105892600D01*
X119583400Y-103937000D02*
X119380000Y-103937000D01*
D24*
X117093900Y-105003600D02*
X118059200Y-105003600D01*
X117983000Y-103759000D02*
X117983000Y-104927400D01*
X117983000Y-104927400D02*
X118059200Y-105003600D01*
X116967000Y-105130500D02*
X117093900Y-105003600D01*
X119075300Y-105714800D02*
X117957700Y-105714800D01*
X117957700Y-105714800D02*
X116967000Y-106705500D01*
X120040500Y-106680000D02*
X119075300Y-105714800D01*
D22*
X116344000Y-108613500D02*
X116344000Y-107328500D01*
X116344000Y-107328500D02*
X116967000Y-106705500D01*
D24*
X120650000Y-108585000D02*
X120650000Y-108559600D01*
D22*
X120596100Y-108613500D02*
X120650000Y-108559600D01*
D24*
X121412000Y-109347000D02*
X120650000Y-108585000D01*
D22*
X119844000Y-108613500D02*
X120596100Y-108613500D01*
X115062000Y-110490000D02*
X114321021Y-111230979D01*
X115697000Y-110490000D02*
X115062000Y-110490000D01*
X114321021Y-111230979D02*
X114321021Y-114968979D01*
X114321021Y-114968979D02*
X114264000Y-115026000D01*
X116332000Y-109855000D02*
X115697000Y-110490000D01*
X120051000Y-110526000D02*
X119380000Y-109855000D01*
X119380000Y-109855000D02*
X116332000Y-109855000D01*
X116344000Y-109855000D02*
X116344000Y-108613500D01*
X116078000Y-115570000D02*
X115769000Y-115570000D01*
X115769000Y-115570000D02*
X115225000Y-115026000D01*
X116078000Y-115570000D02*
X118779958Y-115570000D01*
X118779958Y-115570000D02*
X119344000Y-116134042D01*
X114264000Y-115026000D02*
X115225000Y-115026000D01*
X121256500Y-110026000D02*
X121256500Y-109502500D01*
X121256500Y-109502500D02*
X121412000Y-109347000D01*
X121256500Y-110526000D02*
X120051000Y-110526000D01*
D24*
X119380000Y-102362000D02*
X120904000Y-102362000D01*
X117983000Y-103759000D02*
X119380000Y-102362000D01*
X115795070Y-106143070D02*
X115954430Y-106143070D01*
X115954430Y-106143070D02*
X116967000Y-105130500D01*
D23*
X114554000Y-105410000D02*
X115620800Y-105410000D01*
X112546496Y-107417504D02*
X114554000Y-105410000D01*
X116001800Y-105029000D02*
X116001800Y-103200200D01*
X111779504Y-107417504D02*
X112546496Y-107417504D01*
X116001800Y-103200200D02*
X116586000Y-102616000D01*
X111281000Y-106667000D02*
X111281000Y-106919000D01*
X111281000Y-106919000D02*
X111779504Y-107417504D01*
X115620800Y-105410000D02*
X116001800Y-105029000D01*
D25*
X103759673Y-115102726D02*
X103759673Y-114935673D01*
X103759673Y-114935673D02*
X101473000Y-112649000D01*
D23*
X101600000Y-111379000D02*
X101600000Y-110236000D01*
X101600000Y-110236000D02*
X101473000Y-110109000D01*
X101600000Y-108712000D02*
X101600000Y-107696000D01*
X101600000Y-107696000D02*
X101473000Y-107569000D01*
D25*
X103878980Y-110402982D02*
X103878980Y-105783980D01*
X103124000Y-105029000D02*
X101473000Y-105029000D01*
X105195999Y-111720001D02*
X103878980Y-110402982D01*
X103878980Y-105783980D02*
X103124000Y-105029000D01*
D22*
X110109000Y-103632000D02*
X109474000Y-102997000D01*
X110490000Y-103632000D02*
X110109000Y-103632000D01*
X109474000Y-102997000D02*
X109474000Y-102311000D01*
D24*
X109806000Y-104316000D02*
X110490000Y-103632000D01*
X109806000Y-105467000D02*
X109806000Y-104316000D01*
D22*
X116828000Y-110871000D02*
X115050000Y-112649000D01*
X118581579Y-110871000D02*
X116828000Y-110871000D01*
X120236579Y-112526000D02*
X118581579Y-110871000D01*
X121256500Y-112526000D02*
X120236579Y-112526000D01*
D23*
X113669000Y-113526000D02*
X113932510Y-113262490D01*
X113932510Y-110349490D02*
X114300000Y-109982000D01*
X113932510Y-113262490D02*
X113932510Y-110349490D01*
X112931500Y-113526000D02*
X113669000Y-113526000D01*
D22*
X120367500Y-116938500D02*
X120904000Y-117475000D01*
X119844000Y-116938500D02*
X120367500Y-116938500D01*
X120904000Y-117475000D02*
X124206000Y-117475000D01*
X124206000Y-117475000D02*
X124460000Y-117221000D01*
X119733000Y-114526000D02*
X118407288Y-113200288D01*
X121256500Y-114526000D02*
X119733000Y-114526000D01*
X118407288Y-113200288D02*
X118361405Y-113200288D01*
X120100169Y-113026000D02*
X118708092Y-111633923D01*
X118708092Y-111633923D02*
X117610370Y-111633923D01*
X121256500Y-113026000D02*
X120100169Y-113026000D01*
X112903000Y-117602000D02*
X113566500Y-116938500D01*
X112903000Y-118925002D02*
X112903000Y-117602000D01*
X103769533Y-119500010D02*
X112327992Y-119500010D01*
X112327992Y-119500010D02*
X112903000Y-118925002D01*
X113566500Y-116938500D02*
X114344000Y-116938500D01*
X102969523Y-118700000D02*
X103769533Y-119500010D01*
X112931500Y-115026000D02*
X114264000Y-115026000D01*
X119148600Y-115026000D02*
X117348000Y-113225400D01*
X121256500Y-115026000D02*
X119148600Y-115026000D01*
X119344000Y-116134042D02*
X119344000Y-116938500D01*
X102997000Y-118672523D02*
X102997000Y-117290053D01*
X102969523Y-118700000D02*
X102997000Y-118672523D01*
X102997000Y-117290053D02*
X102809673Y-117102726D01*
X104544523Y-118700000D02*
X104544523Y-117267876D01*
X104544523Y-117267876D02*
X104709673Y-117102726D01*
X106426000Y-103886000D02*
X105546000Y-103886000D01*
X105546000Y-103886000D02*
X105410000Y-103750000D01*
D23*
X112194000Y-112526000D02*
X111506000Y-111838000D01*
X112931500Y-112526000D02*
X112194000Y-112526000D01*
X111506000Y-110484246D02*
X110521754Y-109500000D01*
X111506000Y-111838000D02*
X111506000Y-110484246D01*
X110521754Y-109500000D02*
X109347000Y-109500000D01*
X112194000Y-112026000D02*
X111887000Y-111719000D01*
X112931500Y-112026000D02*
X112194000Y-112026000D01*
X111887000Y-111719000D02*
X111887000Y-109347000D01*
X105250000Y-109000000D02*
X104642490Y-108392490D01*
X104642490Y-108392490D02*
X104642490Y-105392490D01*
X104642490Y-105392490D02*
X101500000Y-102250000D01*
D22*
X110744000Y-110998000D02*
X109998000Y-110998000D01*
X109998000Y-110998000D02*
X109500000Y-110500000D01*
X101500000Y-102250000D02*
X102425000Y-102250000D01*
X104000000Y-102250000D02*
X104917000Y-102250000D01*
X104917000Y-102250000D02*
X105283000Y-102616000D01*
D24*
X114758916Y-106143070D02*
X115795070Y-106143070D01*
D22*
X115844000Y-106192000D02*
X115795070Y-106143070D01*
X115844000Y-107335000D02*
X115844000Y-106192000D01*
X115344000Y-108613500D02*
X115344000Y-107560010D01*
D24*
X112443986Y-108458000D02*
X114758916Y-106143070D01*
D22*
X115844000Y-108613500D02*
X115844000Y-107335000D01*
X115344000Y-107560010D02*
X114971990Y-107188000D01*
D24*
X109143000Y-108458000D02*
X112443986Y-108458000D01*
X108001000Y-109600000D02*
X109143000Y-108458000D01*
D22*
X116344000Y-108613500D02*
X116364013Y-108593487D01*
X115214500Y-104521000D02*
X114554000Y-103860500D01*
X114554000Y-103860500D02*
X114554000Y-103759000D01*
D24*
X125990187Y-104895813D02*
X126964100Y-104895813D01*
X125273000Y-104895813D02*
X125990187Y-104895813D01*
X125984000Y-103124000D02*
X125984000Y-104889626D01*
X125984000Y-104889626D02*
X125990187Y-104895813D01*
X126964100Y-104895813D02*
X126966960Y-104898673D01*
D22*
X129649990Y-108077000D02*
X129649990Y-105453032D01*
X129394624Y-108332366D02*
X129649990Y-108077000D01*
X129649990Y-105453032D02*
X129095631Y-104898673D01*
X127700000Y-108332366D02*
X129394624Y-108332366D01*
X129149634Y-107832366D02*
X129199979Y-107782021D01*
X127859287Y-105791000D02*
X126966960Y-104898673D01*
X129199979Y-107782021D02*
X129199979Y-106212979D01*
X128778000Y-105791000D02*
X127859287Y-105791000D01*
X127700000Y-107832366D02*
X129149634Y-107832366D01*
X129199979Y-106212979D02*
X128778000Y-105791000D01*
X129095631Y-104898673D02*
X128541960Y-104898673D01*
X123800000Y-107832366D02*
X123178408Y-107832366D01*
X124500000Y-106632366D02*
X124500000Y-105668813D01*
X124500000Y-105668813D02*
X125273000Y-104895813D01*
X123178408Y-107832366D02*
X123049990Y-107703948D01*
X123049990Y-107703948D02*
X123049990Y-105543823D01*
X123049990Y-105543823D02*
X123698000Y-104895813D01*
X128778000Y-109016800D02*
X128593566Y-108832366D01*
X128778000Y-109347000D02*
X128778000Y-109016800D01*
X128593566Y-108832366D02*
X127700000Y-108832366D01*
X128778000Y-109982000D02*
X128778000Y-109347000D01*
X127700000Y-109332366D02*
X128763366Y-109332366D01*
X128763366Y-109332366D02*
X128778000Y-109347000D01*
X127889000Y-110871000D02*
X128778000Y-109982000D01*
X127889000Y-110871000D02*
X126238000Y-112522000D01*
X126238000Y-112522000D02*
X125401810Y-112522000D01*
D24*
X107569000Y-111760000D02*
X107569000Y-110815998D01*
X107569000Y-112522000D02*
X107569000Y-111760000D01*
X107569000Y-110815998D02*
X107406001Y-110652999D01*
X107406001Y-110652999D02*
X107406001Y-110580001D01*
D23*
X127700000Y-107110949D02*
X127749949Y-107061000D01*
X127700000Y-107332366D02*
X127700000Y-107110949D01*
D22*
X122324990Y-108478948D02*
X123178408Y-109332366D01*
X122324990Y-107422554D02*
X122324990Y-108478948D01*
X128220959Y-106299000D02*
X128474959Y-106553000D01*
X122146000Y-111026000D02*
X121256500Y-111026000D01*
X123339634Y-109832366D02*
X122146000Y-111026000D01*
X123800000Y-109832366D02*
X123339634Y-109832366D01*
X123178408Y-109332366D02*
X123800000Y-109332366D01*
X127000000Y-106632366D02*
X127333366Y-106299000D01*
X127333366Y-106299000D02*
X128220959Y-106299000D01*
X123826810Y-112522000D02*
X124079000Y-112269810D01*
X124079000Y-112269810D02*
X124079000Y-110953366D01*
X124079000Y-110953366D02*
X124500000Y-110532366D01*
D23*
X108331000Y-104267000D02*
X108331000Y-104140000D01*
X124437953Y-119610510D02*
X127208463Y-116840000D01*
X123825000Y-116459000D02*
X123231238Y-117052762D01*
X122408416Y-119610510D02*
X124437953Y-119610510D01*
X129286000Y-116078000D02*
X129286000Y-114370498D01*
X122174000Y-119376094D02*
X122408416Y-119610510D01*
X122174000Y-118364000D02*
X122174000Y-119376094D01*
X119107510Y-117939510D02*
X121749510Y-117939510D01*
X129286000Y-114370498D02*
X128016000Y-113100498D01*
X118844000Y-116938500D02*
X118844000Y-117676000D01*
X121150780Y-117052762D02*
X120748499Y-116650481D01*
X118844000Y-117676000D02*
X119107510Y-117939510D01*
X121749510Y-117939510D02*
X122174000Y-118364000D01*
X127208463Y-116840000D02*
X128524000Y-116840000D01*
X128016000Y-115640498D02*
X127197498Y-116459000D01*
X128524000Y-116840000D02*
X129286000Y-116078000D01*
X127197498Y-116459000D02*
X123825000Y-116459000D01*
X123231238Y-117052762D02*
X121150780Y-117052762D01*
X120748499Y-116650481D02*
X120748499Y-116034001D01*
X120748499Y-116034001D02*
X121256500Y-115526000D01*
D24*
X125401810Y-112522000D02*
X125349000Y-112574810D01*
X125349000Y-112574810D02*
X125349000Y-114046000D01*
X123821922Y-114046000D02*
X123825000Y-114042922D01*
X123825000Y-114042922D02*
X123825000Y-112573000D01*
D22*
X124104000Y-112573000D02*
X124053000Y-112522000D01*
D23*
X123826810Y-112522000D02*
X123063000Y-112522000D01*
D22*
X124053000Y-112522000D02*
X123826810Y-112522000D01*
D23*
X123063000Y-112522000D02*
X122936000Y-112649000D01*
X122936000Y-114680733D02*
X122936000Y-113630984D01*
X122936000Y-113630984D02*
X122272498Y-112967482D01*
X122272498Y-112304498D02*
X121994000Y-112026000D01*
X121994000Y-112026000D02*
X121256500Y-112026000D01*
X122272498Y-112967482D02*
X122272498Y-112304498D01*
X123828773Y-115573506D02*
X122936000Y-114680733D01*
D22*
X125403773Y-115573506D02*
X123876267Y-114046000D01*
X125730000Y-113995000D02*
X125679000Y-114046000D01*
X123876267Y-114046000D02*
X123821922Y-114046000D01*
X125679000Y-114046000D02*
X125396922Y-114046000D01*
D23*
X121667986Y-116332000D02*
X121412000Y-116332000D01*
X121994000Y-114026000D02*
X122257510Y-114289510D01*
X122584521Y-114087103D02*
X122584521Y-116250780D01*
X121256500Y-114026000D02*
X121994000Y-114026000D01*
X122257510Y-115742476D02*
X121667986Y-116332000D01*
X122584521Y-116250780D02*
X122723002Y-116389261D01*
X122257510Y-114289510D02*
X122257510Y-115742476D01*
X122023418Y-113526000D02*
X122584521Y-114087103D01*
X121256500Y-113526000D02*
X122023418Y-113526000D01*
D22*
X122324990Y-107422554D02*
X122324990Y-105357990D01*
X122324990Y-105357990D02*
X120904000Y-103937000D01*
D24*
X123698000Y-117983000D02*
X124460000Y-117221000D01*
X108712000Y-115062000D02*
X107569000Y-113919000D01*
X107569000Y-113919000D02*
X107569000Y-113411000D01*
D25*
X111760000Y-116840000D02*
X111157010Y-116237010D01*
X111760000Y-117983000D02*
X111760000Y-116840000D01*
X111157010Y-116237010D02*
X107837010Y-116237010D01*
X107837010Y-116237010D02*
X107137000Y-115537000D01*
X105217000Y-113472000D02*
X105217000Y-113617000D01*
X105217000Y-113617000D02*
X107137000Y-115537000D01*
X107137000Y-115537000D02*
X107137000Y-115062000D01*
X105195999Y-113450999D02*
X105195999Y-111720001D01*
D24*
X106426000Y-113472000D02*
X105217000Y-113472000D01*
X105217000Y-113472000D02*
X105195999Y-113450999D01*
X106426000Y-111572000D02*
X105344000Y-111572000D01*
X105344000Y-111572000D02*
X105195999Y-111720001D01*
X122961500Y-118719500D02*
X123698000Y-117983000D01*
X122961500Y-118872000D02*
X122961500Y-118719500D01*
D23*
X111264668Y-114808000D02*
X110109000Y-114808000D01*
D22*
X110109000Y-114808000D02*
X109728000Y-114427000D01*
X112931500Y-115526000D02*
X111982668Y-115526000D01*
X109728000Y-114427000D02*
X109728000Y-112674000D01*
X111982668Y-115526000D02*
X111264668Y-114808000D01*
X109728000Y-112674000D02*
X108626000Y-111572000D01*
X112014000Y-102616000D02*
X112014000Y-103505000D01*
X106426000Y-102311000D02*
X105588000Y-102311000D01*
X105588000Y-102311000D02*
X105283000Y-102616000D01*
D23*
X112268000Y-106304698D02*
X112268000Y-106754002D01*
X112014000Y-108204000D02*
X112014000Y-108458000D01*
X111281000Y-105867000D02*
X111830302Y-105867000D01*
X111830302Y-105867000D02*
X112268000Y-106304698D01*
D22*
X106426000Y-106934000D02*
X106553000Y-106934000D01*
X106553000Y-106934000D02*
X107823000Y-108204000D01*
D24*
X105156000Y-106172000D02*
X105156000Y-105156000D01*
X105156000Y-107569000D02*
X105156000Y-106172000D01*
D23*
X108331000Y-105867000D02*
X107078688Y-105867000D01*
X107078688Y-105867000D02*
X106773688Y-106172000D01*
X106773688Y-106172000D02*
X105156000Y-106172000D01*
X106426000Y-105359000D02*
X106718000Y-105067000D01*
X106718000Y-105067000D02*
X108331000Y-105067000D01*
X108331000Y-104667000D02*
X107207000Y-104667000D01*
X107207000Y-104667000D02*
X106426000Y-103886000D01*
D24*
X106986000Y-108585000D02*
X106172000Y-108585000D01*
X108001000Y-109600000D02*
X106986000Y-108585000D01*
X106172000Y-108585000D02*
X105156000Y-107569000D01*
X105156000Y-105156000D02*
X106426000Y-103886000D01*
D23*
X108089189Y-107569000D02*
X107717499Y-107197310D01*
X107854000Y-106267000D02*
X108331000Y-106267000D01*
X110871000Y-107569000D02*
X108089189Y-107569000D01*
X107717499Y-107197310D02*
X107717499Y-106403501D01*
X107717499Y-106403501D02*
X107854000Y-106267000D01*
D22*
X109806000Y-106890948D02*
X109791458Y-106905490D01*
X109806000Y-105467000D02*
X109806000Y-106890948D01*
D24*
X107569000Y-112522000D02*
X108077000Y-112522000D01*
X107141002Y-112522000D02*
X107569000Y-112522000D01*
X107569000Y-113411000D02*
X107569000Y-112522000D01*
X120396000Y-119253000D02*
X119380000Y-119253000D01*
X120777000Y-118872000D02*
X120396000Y-119253000D01*
X121386500Y-118872000D02*
X120777000Y-118872000D01*
D22*
X123444000Y-103124000D02*
X121361000Y-101041000D01*
X121361000Y-101041000D02*
X116586000Y-101041000D01*
X107899000Y-102311000D02*
X108331000Y-102743000D01*
X108331000Y-102743000D02*
X108331000Y-104140000D01*
D23*
X111281000Y-105467000D02*
X109806000Y-105467000D01*
X108331000Y-105467000D02*
X109806000Y-105467000D01*
X108331000Y-106667000D02*
X108880302Y-106667000D01*
X108880302Y-106667000D02*
X109806000Y-105741302D01*
X109806000Y-105741302D02*
X109806000Y-105467000D01*
X110744000Y-114046000D02*
X110744000Y-112573000D01*
X112931500Y-113026000D02*
X111197000Y-113026000D01*
X111197000Y-113026000D02*
X110744000Y-112573000D01*
X111281000Y-105067000D02*
X112230000Y-105067000D01*
X112230000Y-105067000D02*
X112268000Y-105029000D01*
D22*
X112776000Y-104521000D02*
X112268000Y-105029000D01*
X113639500Y-104521000D02*
X112776000Y-104521000D01*
D23*
X111281000Y-104667000D02*
X111830302Y-104667000D01*
X111830302Y-104667000D02*
X113538000Y-102959302D01*
X113538000Y-102959302D02*
X113538000Y-102616000D01*
X111252000Y-104238000D02*
X111252000Y-101803000D01*
X111281000Y-104267000D02*
X111252000Y-104238000D01*
X111252000Y-101803000D02*
X112014000Y-101041000D01*
X115062000Y-102616000D02*
X113538000Y-102616000D01*
D22*
X112014000Y-101041000D02*
X113538000Y-101041000D01*
X116586000Y-101041000D02*
X115062000Y-101041000D01*
D24*
X108626000Y-111572000D02*
X108626000Y-110225000D01*
X108626000Y-110225000D02*
X108001000Y-109600000D01*
X106426000Y-112522000D02*
X107141002Y-112522000D01*
X107406001Y-110580001D02*
X106426000Y-109600000D01*
D22*
X122671306Y-111526000D02*
X122686653Y-111510653D01*
X121256500Y-111526000D02*
X122671306Y-111526000D01*
D26*
X107370627Y-117073818D02*
X107416937Y-117093000D01*
X107601591Y-117093000D01*
X107611533Y-117094486D01*
X107637179Y-117104100D01*
X107654712Y-117107954D01*
X107748088Y-117114894D01*
X107770992Y-117118317D01*
X107780317Y-117119010D01*
X107803485Y-117119010D01*
X107845765Y-117122152D01*
X107829122Y-117216538D01*
X107828163Y-117227499D01*
X107828163Y-117535191D01*
X107901972Y-117609000D01*
X109594000Y-117609000D01*
X109594000Y-118357000D01*
X107901972Y-118357000D01*
X107828163Y-118430809D01*
X107828163Y-118741258D01*
X107830319Y-118757634D01*
X107861231Y-118873000D01*
X106425000Y-118873000D01*
X106425000Y-118211937D01*
X106405818Y-118165627D01*
X105751510Y-117511319D01*
X105751510Y-117450535D01*
X105677701Y-117376726D01*
X105057481Y-117376726D01*
X104983672Y-117450535D01*
X104983672Y-117476000D01*
X104435673Y-117476000D01*
X104435673Y-116839000D01*
X107135810Y-116839000D01*
X107370627Y-117073818D01*
G04 #@! TA.AperFunction,Conductor*
G36*
X107370627Y-117073818D02*
G01*
X107416937Y-117093000D01*
X107601591Y-117093000D01*
X107611533Y-117094486D01*
X107637179Y-117104100D01*
X107654712Y-117107954D01*
X107748088Y-117114894D01*
X107770992Y-117118317D01*
X107780317Y-117119010D01*
X107803485Y-117119010D01*
X107845765Y-117122152D01*
X107829122Y-117216538D01*
X107828163Y-117227499D01*
X107828163Y-117535191D01*
X107901972Y-117609000D01*
X109594000Y-117609000D01*
X109594000Y-118357000D01*
X107901972Y-118357000D01*
X107828163Y-118430809D01*
X107828163Y-118741258D01*
X107830319Y-118757634D01*
X107861231Y-118873000D01*
X106425000Y-118873000D01*
X106425000Y-118211937D01*
X106405818Y-118165627D01*
X105751510Y-117511319D01*
X105751510Y-117450535D01*
X105677701Y-117376726D01*
X105057481Y-117376726D01*
X104983672Y-117450535D01*
X104983672Y-117476000D01*
X104435673Y-117476000D01*
X104435673Y-116839000D01*
X107135810Y-116839000D01*
X107370627Y-117073818D01*
G37*
G04 #@! TD.AperFunction*
X116821059Y-111618305D02*
X116820911Y-111637142D01*
X116851360Y-111851085D01*
X116856758Y-111869132D01*
X116948768Y-112064664D01*
X116959233Y-112080326D01*
X117104670Y-112240160D01*
X117119279Y-112252053D01*
X117305284Y-112362056D01*
X117322743Y-112369128D01*
X117532871Y-112419575D01*
X117551638Y-112421201D01*
X117767311Y-112407632D01*
X117785726Y-112403667D01*
X117987875Y-112327282D01*
X118004310Y-112318077D01*
X118175061Y-112185629D01*
X118188064Y-112171999D01*
X118209905Y-112140923D01*
X118498087Y-112140923D01*
X119706355Y-113349192D01*
X119727612Y-113381006D01*
X119745163Y-113398557D01*
X119891827Y-113496554D01*
X119914757Y-113506052D01*
X120087758Y-113540464D01*
X120112578Y-113540464D01*
X120134024Y-113536198D01*
X120134024Y-113605721D01*
X120135237Y-113618041D01*
X120164400Y-113764653D01*
X120169100Y-113776000D01*
X120164400Y-113787347D01*
X120135237Y-113933959D01*
X120134024Y-113946279D01*
X120134024Y-114019000D01*
X119943006Y-114019000D01*
X119142527Y-113218521D01*
X119143513Y-113092979D01*
X119140714Y-113073848D01*
X119077098Y-112867065D01*
X119068944Y-112850084D01*
X118947479Y-112671353D01*
X118934692Y-112657520D01*
X118766042Y-112522406D01*
X118749753Y-112512944D01*
X118548830Y-112433394D01*
X118530479Y-112429140D01*
X118315046Y-112412185D01*
X118296256Y-112413516D01*
X118085362Y-112460656D01*
X118067793Y-112467453D01*
X117880084Y-112574521D01*
X117865291Y-112586183D01*
X117837645Y-112615622D01*
X117752637Y-112547518D01*
X117736348Y-112538056D01*
X117535425Y-112458506D01*
X117517074Y-112454252D01*
X117301641Y-112437297D01*
X117282851Y-112438628D01*
X117071957Y-112485768D01*
X117054388Y-112492565D01*
X116866679Y-112599633D01*
X116851886Y-112611295D01*
X116703956Y-112768824D01*
X116693245Y-112784320D01*
X116598175Y-112978383D01*
X116592495Y-112996343D01*
X116558689Y-113209782D01*
X116558541Y-113228619D01*
X116588990Y-113442562D01*
X116594388Y-113460609D01*
X116686398Y-113656141D01*
X116696863Y-113671803D01*
X116842300Y-113831637D01*
X116856909Y-113843530D01*
X117042914Y-113953533D01*
X117060373Y-113960605D01*
X117270501Y-114011052D01*
X117289268Y-114012678D01*
X117410636Y-114005042D01*
X118754786Y-115349192D01*
X118776043Y-115381006D01*
X118793594Y-115398557D01*
X118940258Y-115496554D01*
X118963188Y-115506052D01*
X119136190Y-115540464D01*
X119161010Y-115540464D01*
X119198534Y-115533000D01*
X120134024Y-115533000D01*
X120134024Y-115605721D01*
X120135237Y-115618041D01*
X120164400Y-115764653D01*
X120173898Y-115787584D01*
X120260404Y-115917047D01*
X120277953Y-115934596D01*
X120309043Y-115955370D01*
X120308568Y-115959573D01*
X120304595Y-115976919D01*
X120303000Y-115991028D01*
X120303000Y-116008824D01*
X120300432Y-116031543D01*
X120252596Y-115959953D01*
X120235047Y-115942404D01*
X120105584Y-115855898D01*
X120082653Y-115846400D01*
X119967252Y-115823445D01*
X119847099Y-115703292D01*
X119831053Y-115691634D01*
X119648835Y-115598789D01*
X119629973Y-115592661D01*
X119456339Y-115565159D01*
X119368000Y-115640608D01*
X119368000Y-116060829D01*
X119348898Y-116089416D01*
X119344000Y-116101242D01*
X119339101Y-116089416D01*
X119320001Y-116060831D01*
X119320001Y-115640608D01*
X119231662Y-115565160D01*
X119058027Y-115592661D01*
X119039165Y-115598789D01*
X118856947Y-115691634D01*
X118840901Y-115703292D01*
X118720748Y-115823445D01*
X118605347Y-115846400D01*
X118594000Y-115851100D01*
X118582653Y-115846400D01*
X118436041Y-115817237D01*
X118423721Y-115816024D01*
X118264279Y-115816024D01*
X118251959Y-115817237D01*
X118105347Y-115846400D01*
X118094000Y-115851100D01*
X118082653Y-115846400D01*
X117936041Y-115817237D01*
X117923721Y-115816024D01*
X117764279Y-115816024D01*
X117751959Y-115817237D01*
X117605347Y-115846400D01*
X117594000Y-115851100D01*
X117582653Y-115846400D01*
X117436041Y-115817237D01*
X117423721Y-115816024D01*
X117264279Y-115816024D01*
X117251959Y-115817237D01*
X117105347Y-115846400D01*
X117094000Y-115851100D01*
X117082653Y-115846400D01*
X116936041Y-115817237D01*
X116923721Y-115816024D01*
X116764279Y-115816024D01*
X116751959Y-115817237D01*
X116605347Y-115846400D01*
X116594000Y-115851100D01*
X116582653Y-115846400D01*
X116436041Y-115817237D01*
X116423721Y-115816024D01*
X116264279Y-115816024D01*
X116251959Y-115817237D01*
X116105347Y-115846400D01*
X116094000Y-115851100D01*
X116082653Y-115846400D01*
X115936041Y-115817237D01*
X115923721Y-115816024D01*
X115764279Y-115816024D01*
X115751959Y-115817237D01*
X115605347Y-115846400D01*
X115594000Y-115851100D01*
X115582653Y-115846400D01*
X115436041Y-115817237D01*
X115423721Y-115816024D01*
X115264279Y-115816024D01*
X115251959Y-115817237D01*
X115105347Y-115846400D01*
X115094000Y-115851100D01*
X115082653Y-115846400D01*
X114936041Y-115817237D01*
X114923721Y-115816024D01*
X114764279Y-115816024D01*
X114751959Y-115817237D01*
X114605347Y-115846400D01*
X114594000Y-115851100D01*
X114582653Y-115846400D01*
X114436041Y-115817237D01*
X114423721Y-115816024D01*
X114264279Y-115816024D01*
X114251959Y-115817237D01*
X114105347Y-115846400D01*
X114082416Y-115855898D01*
X113952953Y-115942404D01*
X113935404Y-115959953D01*
X113848898Y-116089416D01*
X113839400Y-116112347D01*
X113820771Y-116206000D01*
X113664000Y-116206000D01*
X113664000Y-116049229D01*
X113757653Y-116030600D01*
X113780584Y-116021102D01*
X113910047Y-115934596D01*
X113927596Y-115917047D01*
X114014102Y-115787584D01*
X114023600Y-115764653D01*
X114046555Y-115649252D01*
X114166708Y-115529099D01*
X114178366Y-115513053D01*
X114271211Y-115330835D01*
X114277339Y-115311973D01*
X114304841Y-115138339D01*
X114229392Y-115050000D01*
X113809171Y-115050000D01*
X113780584Y-115030898D01*
X113768758Y-115026000D01*
X113780584Y-115021101D01*
X113809169Y-115002001D01*
X114229392Y-115002001D01*
X114304840Y-114913662D01*
X114277339Y-114740027D01*
X114271211Y-114721165D01*
X114178366Y-114538947D01*
X114166708Y-114522901D01*
X114046555Y-114402748D01*
X114023600Y-114287347D01*
X114018900Y-114276000D01*
X114023600Y-114264653D01*
X114052763Y-114118041D01*
X114053976Y-114105721D01*
X114053976Y-113946279D01*
X114052763Y-113933959D01*
X114027056Y-113804720D01*
X114032441Y-113797974D01*
X114037457Y-113787574D01*
X114193804Y-113631228D01*
X114203848Y-113626405D01*
X114226057Y-113608740D01*
X114265049Y-113559983D01*
X114277994Y-113547038D01*
X114286814Y-113535980D01*
X114296244Y-113520977D01*
X114334841Y-113472714D01*
X114347206Y-113447107D01*
X114349806Y-113435756D01*
X114356036Y-113425843D01*
X114365417Y-113399059D01*
X114372440Y-113336929D01*
X114376415Y-113319573D01*
X114378010Y-113305463D01*
X114378010Y-113287658D01*
X114384979Y-113226016D01*
X114381816Y-113197815D01*
X114378010Y-113186916D01*
X114378010Y-113057665D01*
X114388398Y-113079741D01*
X114398863Y-113095403D01*
X114544300Y-113255237D01*
X114558909Y-113267130D01*
X114744914Y-113377133D01*
X114762373Y-113384205D01*
X114972501Y-113434652D01*
X114991268Y-113436278D01*
X115206941Y-113422709D01*
X115225356Y-113418744D01*
X115427505Y-113342359D01*
X115443940Y-113333154D01*
X115614692Y-113200706D01*
X115627694Y-113187076D01*
X115751952Y-113010275D01*
X115760372Y-112993424D01*
X115827227Y-112787665D01*
X115830326Y-112768580D01*
X115831774Y-112584231D01*
X116825455Y-111590551D01*
X116821059Y-111618305D01*
G04 #@! TA.AperFunction,Conductor*
G36*
X116821059Y-111618305D02*
G01*
X116820911Y-111637142D01*
X116851360Y-111851085D01*
X116856758Y-111869132D01*
X116948768Y-112064664D01*
X116959233Y-112080326D01*
X117104670Y-112240160D01*
X117119279Y-112252053D01*
X117305284Y-112362056D01*
X117322743Y-112369128D01*
X117532871Y-112419575D01*
X117551638Y-112421201D01*
X117767311Y-112407632D01*
X117785726Y-112403667D01*
X117987875Y-112327282D01*
X118004310Y-112318077D01*
X118175061Y-112185629D01*
X118188064Y-112171999D01*
X118209905Y-112140923D01*
X118498087Y-112140923D01*
X119706355Y-113349192D01*
X119727612Y-113381006D01*
X119745163Y-113398557D01*
X119891827Y-113496554D01*
X119914757Y-113506052D01*
X120087758Y-113540464D01*
X120112578Y-113540464D01*
X120134024Y-113536198D01*
X120134024Y-113605721D01*
X120135237Y-113618041D01*
X120164400Y-113764653D01*
X120169100Y-113776000D01*
X120164400Y-113787347D01*
X120135237Y-113933959D01*
X120134024Y-113946279D01*
X120134024Y-114019000D01*
X119943006Y-114019000D01*
X119142527Y-113218521D01*
X119143513Y-113092979D01*
X119140714Y-113073848D01*
X119077098Y-112867065D01*
X119068944Y-112850084D01*
X118947479Y-112671353D01*
X118934692Y-112657520D01*
X118766042Y-112522406D01*
X118749753Y-112512944D01*
X118548830Y-112433394D01*
X118530479Y-112429140D01*
X118315046Y-112412185D01*
X118296256Y-112413516D01*
X118085362Y-112460656D01*
X118067793Y-112467453D01*
X117880084Y-112574521D01*
X117865291Y-112586183D01*
X117837645Y-112615622D01*
X117752637Y-112547518D01*
X117736348Y-112538056D01*
X117535425Y-112458506D01*
X117517074Y-112454252D01*
X117301641Y-112437297D01*
X117282851Y-112438628D01*
X117071957Y-112485768D01*
X117054388Y-112492565D01*
X116866679Y-112599633D01*
X116851886Y-112611295D01*
X116703956Y-112768824D01*
X116693245Y-112784320D01*
X116598175Y-112978383D01*
X116592495Y-112996343D01*
X116558689Y-113209782D01*
X116558541Y-113228619D01*
X116588990Y-113442562D01*
X116594388Y-113460609D01*
X116686398Y-113656141D01*
X116696863Y-113671803D01*
X116842300Y-113831637D01*
X116856909Y-113843530D01*
X117042914Y-113953533D01*
X117060373Y-113960605D01*
X117270501Y-114011052D01*
X117289268Y-114012678D01*
X117410636Y-114005042D01*
X118754786Y-115349192D01*
X118776043Y-115381006D01*
X118793594Y-115398557D01*
X118940258Y-115496554D01*
X118963188Y-115506052D01*
X119136190Y-115540464D01*
X119161010Y-115540464D01*
X119198534Y-115533000D01*
X120134024Y-115533000D01*
X120134024Y-115605721D01*
X120135237Y-115618041D01*
X120164400Y-115764653D01*
X120173898Y-115787584D01*
X120260404Y-115917047D01*
X120277953Y-115934596D01*
X120309043Y-115955370D01*
X120308568Y-115959573D01*
X120304595Y-115976919D01*
X120303000Y-115991028D01*
X120303000Y-116008824D01*
X120300432Y-116031543D01*
X120252596Y-115959953D01*
X120235047Y-115942404D01*
X120105584Y-115855898D01*
X120082653Y-115846400D01*
X119967252Y-115823445D01*
X119847099Y-115703292D01*
X119831053Y-115691634D01*
X119648835Y-115598789D01*
X119629973Y-115592661D01*
X119456339Y-115565159D01*
X119368000Y-115640608D01*
X119368000Y-116060829D01*
X119348898Y-116089416D01*
X119344000Y-116101242D01*
X119339101Y-116089416D01*
X119320001Y-116060831D01*
X119320001Y-115640608D01*
X119231662Y-115565160D01*
X119058027Y-115592661D01*
X119039165Y-115598789D01*
X118856947Y-115691634D01*
X118840901Y-115703292D01*
X118720748Y-115823445D01*
X118605347Y-115846400D01*
X118594000Y-115851100D01*
X118582653Y-115846400D01*
X118436041Y-115817237D01*
X118423721Y-115816024D01*
X118264279Y-115816024D01*
X118251959Y-115817237D01*
X118105347Y-115846400D01*
X118094000Y-115851100D01*
X118082653Y-115846400D01*
X117936041Y-115817237D01*
X117923721Y-115816024D01*
X117764279Y-115816024D01*
X117751959Y-115817237D01*
X117605347Y-115846400D01*
X117594000Y-115851100D01*
X117582653Y-115846400D01*
X117436041Y-115817237D01*
X117423721Y-115816024D01*
X117264279Y-115816024D01*
X117251959Y-115817237D01*
X117105347Y-115846400D01*
X117094000Y-115851100D01*
X117082653Y-115846400D01*
X116936041Y-115817237D01*
X116923721Y-115816024D01*
X116764279Y-115816024D01*
X116751959Y-115817237D01*
X116605347Y-115846400D01*
X116594000Y-115851100D01*
X116582653Y-115846400D01*
X116436041Y-115817237D01*
X116423721Y-115816024D01*
X116264279Y-115816024D01*
X116251959Y-115817237D01*
X116105347Y-115846400D01*
X116094000Y-115851100D01*
X116082653Y-115846400D01*
X115936041Y-115817237D01*
X115923721Y-115816024D01*
X115764279Y-115816024D01*
X115751959Y-115817237D01*
X115605347Y-115846400D01*
X115594000Y-115851100D01*
X115582653Y-115846400D01*
X115436041Y-115817237D01*
X115423721Y-115816024D01*
X115264279Y-115816024D01*
X115251959Y-115817237D01*
X115105347Y-115846400D01*
X115094000Y-115851100D01*
X115082653Y-115846400D01*
X114936041Y-115817237D01*
X114923721Y-115816024D01*
X114764279Y-115816024D01*
X114751959Y-115817237D01*
X114605347Y-115846400D01*
X114594000Y-115851100D01*
X114582653Y-115846400D01*
X114436041Y-115817237D01*
X114423721Y-115816024D01*
X114264279Y-115816024D01*
X114251959Y-115817237D01*
X114105347Y-115846400D01*
X114082416Y-115855898D01*
X113952953Y-115942404D01*
X113935404Y-115959953D01*
X113848898Y-116089416D01*
X113839400Y-116112347D01*
X113820771Y-116206000D01*
X113664000Y-116206000D01*
X113664000Y-116049229D01*
X113757653Y-116030600D01*
X113780584Y-116021102D01*
X113910047Y-115934596D01*
X113927596Y-115917047D01*
X114014102Y-115787584D01*
X114023600Y-115764653D01*
X114046555Y-115649252D01*
X114166708Y-115529099D01*
X114178366Y-115513053D01*
X114271211Y-115330835D01*
X114277339Y-115311973D01*
X114304841Y-115138339D01*
X114229392Y-115050000D01*
X113809171Y-115050000D01*
X113780584Y-115030898D01*
X113768758Y-115026000D01*
X113780584Y-115021101D01*
X113809169Y-115002001D01*
X114229392Y-115002001D01*
X114304840Y-114913662D01*
X114277339Y-114740027D01*
X114271211Y-114721165D01*
X114178366Y-114538947D01*
X114166708Y-114522901D01*
X114046555Y-114402748D01*
X114023600Y-114287347D01*
X114018900Y-114276000D01*
X114023600Y-114264653D01*
X114052763Y-114118041D01*
X114053976Y-114105721D01*
X114053976Y-113946279D01*
X114052763Y-113933959D01*
X114027056Y-113804720D01*
X114032441Y-113797974D01*
X114037457Y-113787574D01*
X114193804Y-113631228D01*
X114203848Y-113626405D01*
X114226057Y-113608740D01*
X114265049Y-113559983D01*
X114277994Y-113547038D01*
X114286814Y-113535980D01*
X114296244Y-113520977D01*
X114334841Y-113472714D01*
X114347206Y-113447107D01*
X114349806Y-113435756D01*
X114356036Y-113425843D01*
X114365417Y-113399059D01*
X114372440Y-113336929D01*
X114376415Y-113319573D01*
X114378010Y-113305463D01*
X114378010Y-113287658D01*
X114384979Y-113226016D01*
X114381816Y-113197815D01*
X114378010Y-113186916D01*
X114378010Y-113057665D01*
X114388398Y-113079741D01*
X114398863Y-113095403D01*
X114544300Y-113255237D01*
X114558909Y-113267130D01*
X114744914Y-113377133D01*
X114762373Y-113384205D01*
X114972501Y-113434652D01*
X114991268Y-113436278D01*
X115206941Y-113422709D01*
X115225356Y-113418744D01*
X115427505Y-113342359D01*
X115443940Y-113333154D01*
X115614692Y-113200706D01*
X115627694Y-113187076D01*
X115751952Y-113010275D01*
X115760372Y-112993424D01*
X115827227Y-112787665D01*
X115830326Y-112768580D01*
X115831774Y-112584231D01*
X116825455Y-111590551D01*
X116821059Y-111618305D01*
G37*
G04 #@! TD.AperFunction*
X120524000Y-109352783D02*
X120524000Y-109502771D01*
X120430347Y-109521400D01*
X120407416Y-109530898D01*
X120277953Y-109617404D01*
X120260404Y-109634953D01*
X120173898Y-109764416D01*
X120164400Y-109787347D01*
X120141445Y-109902748D01*
X120021292Y-110022901D01*
X120009634Y-110038947D01*
X119916789Y-110221165D01*
X119910661Y-110240027D01*
X119883159Y-110413661D01*
X119958608Y-110502000D01*
X120378829Y-110502000D01*
X120407416Y-110521102D01*
X120419242Y-110526000D01*
X120407416Y-110530899D01*
X120378831Y-110549999D01*
X119958608Y-110549999D01*
X119883160Y-110638338D01*
X119910661Y-110811973D01*
X119916789Y-110830835D01*
X120009634Y-111013053D01*
X120021292Y-111029099D01*
X120141445Y-111149252D01*
X120164400Y-111264653D01*
X120169100Y-111276000D01*
X120164400Y-111287347D01*
X120135237Y-111433959D01*
X120134024Y-111446279D01*
X120134024Y-111605721D01*
X120135237Y-111618041D01*
X120157488Y-111729904D01*
X118975395Y-110547811D01*
X118954136Y-110515994D01*
X118936585Y-110498443D01*
X118789921Y-110400446D01*
X118766991Y-110390948D01*
X118593989Y-110356536D01*
X118569169Y-110356536D01*
X118531645Y-110364000D01*
X116877934Y-110364000D01*
X116840410Y-110356536D01*
X116815590Y-110356536D01*
X116642588Y-110390948D01*
X116619658Y-110400446D01*
X116472994Y-110498443D01*
X116455443Y-110515994D01*
X116434186Y-110547808D01*
X115112528Y-111869467D01*
X115003641Y-111860897D01*
X114984851Y-111862228D01*
X114773957Y-111909368D01*
X114756388Y-111916165D01*
X114568679Y-112023233D01*
X114553886Y-112034895D01*
X114405956Y-112192424D01*
X114395245Y-112207920D01*
X114378010Y-112243101D01*
X114378010Y-110760675D01*
X114456941Y-110755709D01*
X114475356Y-110751744D01*
X114677505Y-110675359D01*
X114693940Y-110666154D01*
X114864692Y-110533706D01*
X114877694Y-110520076D01*
X115001952Y-110343275D01*
X115010372Y-110326424D01*
X115077227Y-110120665D01*
X115080326Y-110101580D01*
X115082108Y-109874691D01*
X115079309Y-109855560D01*
X115036028Y-109714874D01*
X115082653Y-109705600D01*
X115094000Y-109700900D01*
X115105347Y-109705600D01*
X115251959Y-109734763D01*
X115264279Y-109735976D01*
X115423721Y-109735976D01*
X115436041Y-109734763D01*
X115582653Y-109705600D01*
X115594000Y-109700900D01*
X115605347Y-109705600D01*
X115720748Y-109728555D01*
X115840901Y-109848708D01*
X115856947Y-109860366D01*
X116039165Y-109953211D01*
X116058027Y-109959339D01*
X116231661Y-109986841D01*
X116320000Y-109911392D01*
X116320000Y-109491171D01*
X116339102Y-109462584D01*
X116344000Y-109450758D01*
X116348899Y-109462584D01*
X116367999Y-109491169D01*
X116367999Y-109911392D01*
X116456338Y-109986840D01*
X116629973Y-109959339D01*
X116648835Y-109953211D01*
X116831053Y-109860366D01*
X116847099Y-109848708D01*
X116967252Y-109728555D01*
X117082653Y-109705600D01*
X117094000Y-109700900D01*
X117105347Y-109705600D01*
X117251959Y-109734763D01*
X117264279Y-109735976D01*
X117423721Y-109735976D01*
X117436041Y-109734763D01*
X117582653Y-109705600D01*
X117594000Y-109700900D01*
X117605347Y-109705600D01*
X117751959Y-109734763D01*
X117764279Y-109735976D01*
X117923721Y-109735976D01*
X117936041Y-109734763D01*
X118082653Y-109705600D01*
X118094000Y-109700900D01*
X118105347Y-109705600D01*
X118251959Y-109734763D01*
X118264279Y-109735976D01*
X118423721Y-109735976D01*
X118436041Y-109734763D01*
X118582653Y-109705600D01*
X118594000Y-109700900D01*
X118605347Y-109705600D01*
X118751959Y-109734763D01*
X118764279Y-109735976D01*
X118923721Y-109735976D01*
X118936041Y-109734763D01*
X119082653Y-109705600D01*
X119094000Y-109700900D01*
X119105347Y-109705600D01*
X119251959Y-109734763D01*
X119264279Y-109735976D01*
X119423721Y-109735976D01*
X119436041Y-109734763D01*
X119582653Y-109705600D01*
X119594000Y-109700900D01*
X119605347Y-109705600D01*
X119751959Y-109734763D01*
X119764279Y-109735976D01*
X119923721Y-109735976D01*
X119936041Y-109734763D01*
X120082653Y-109705600D01*
X120105584Y-109696102D01*
X120235047Y-109609596D01*
X120252596Y-109592047D01*
X120339102Y-109462584D01*
X120348600Y-109439653D01*
X120367229Y-109346000D01*
X120517218Y-109346000D01*
X120524000Y-109352783D01*
G04 #@! TA.AperFunction,Conductor*
G36*
X120524000Y-109352783D02*
G01*
X120524000Y-109502771D01*
X120430347Y-109521400D01*
X120407416Y-109530898D01*
X120277953Y-109617404D01*
X120260404Y-109634953D01*
X120173898Y-109764416D01*
X120164400Y-109787347D01*
X120141445Y-109902748D01*
X120021292Y-110022901D01*
X120009634Y-110038947D01*
X119916789Y-110221165D01*
X119910661Y-110240027D01*
X119883159Y-110413661D01*
X119958608Y-110502000D01*
X120378829Y-110502000D01*
X120407416Y-110521102D01*
X120419242Y-110526000D01*
X120407416Y-110530899D01*
X120378831Y-110549999D01*
X119958608Y-110549999D01*
X119883160Y-110638338D01*
X119910661Y-110811973D01*
X119916789Y-110830835D01*
X120009634Y-111013053D01*
X120021292Y-111029099D01*
X120141445Y-111149252D01*
X120164400Y-111264653D01*
X120169100Y-111276000D01*
X120164400Y-111287347D01*
X120135237Y-111433959D01*
X120134024Y-111446279D01*
X120134024Y-111605721D01*
X120135237Y-111618041D01*
X120157488Y-111729904D01*
X118975395Y-110547811D01*
X118954136Y-110515994D01*
X118936585Y-110498443D01*
X118789921Y-110400446D01*
X118766991Y-110390948D01*
X118593989Y-110356536D01*
X118569169Y-110356536D01*
X118531645Y-110364000D01*
X116877934Y-110364000D01*
X116840410Y-110356536D01*
X116815590Y-110356536D01*
X116642588Y-110390948D01*
X116619658Y-110400446D01*
X116472994Y-110498443D01*
X116455443Y-110515994D01*
X116434186Y-110547808D01*
X115112528Y-111869467D01*
X115003641Y-111860897D01*
X114984851Y-111862228D01*
X114773957Y-111909368D01*
X114756388Y-111916165D01*
X114568679Y-112023233D01*
X114553886Y-112034895D01*
X114405956Y-112192424D01*
X114395245Y-112207920D01*
X114378010Y-112243101D01*
X114378010Y-110760675D01*
X114456941Y-110755709D01*
X114475356Y-110751744D01*
X114677505Y-110675359D01*
X114693940Y-110666154D01*
X114864692Y-110533706D01*
X114877694Y-110520076D01*
X115001952Y-110343275D01*
X115010372Y-110326424D01*
X115077227Y-110120665D01*
X115080326Y-110101580D01*
X115082108Y-109874691D01*
X115079309Y-109855560D01*
X115036028Y-109714874D01*
X115082653Y-109705600D01*
X115094000Y-109700900D01*
X115105347Y-109705600D01*
X115251959Y-109734763D01*
X115264279Y-109735976D01*
X115423721Y-109735976D01*
X115436041Y-109734763D01*
X115582653Y-109705600D01*
X115594000Y-109700900D01*
X115605347Y-109705600D01*
X115720748Y-109728555D01*
X115840901Y-109848708D01*
X115856947Y-109860366D01*
X116039165Y-109953211D01*
X116058027Y-109959339D01*
X116231661Y-109986841D01*
X116320000Y-109911392D01*
X116320000Y-109491171D01*
X116339102Y-109462584D01*
X116344000Y-109450758D01*
X116348899Y-109462584D01*
X116367999Y-109491169D01*
X116367999Y-109911392D01*
X116456338Y-109986840D01*
X116629973Y-109959339D01*
X116648835Y-109953211D01*
X116831053Y-109860366D01*
X116847099Y-109848708D01*
X116967252Y-109728555D01*
X117082653Y-109705600D01*
X117094000Y-109700900D01*
X117105347Y-109705600D01*
X117251959Y-109734763D01*
X117264279Y-109735976D01*
X117423721Y-109735976D01*
X117436041Y-109734763D01*
X117582653Y-109705600D01*
X117594000Y-109700900D01*
X117605347Y-109705600D01*
X117751959Y-109734763D01*
X117764279Y-109735976D01*
X117923721Y-109735976D01*
X117936041Y-109734763D01*
X118082653Y-109705600D01*
X118094000Y-109700900D01*
X118105347Y-109705600D01*
X118251959Y-109734763D01*
X118264279Y-109735976D01*
X118423721Y-109735976D01*
X118436041Y-109734763D01*
X118582653Y-109705600D01*
X118594000Y-109700900D01*
X118605347Y-109705600D01*
X118751959Y-109734763D01*
X118764279Y-109735976D01*
X118923721Y-109735976D01*
X118936041Y-109734763D01*
X119082653Y-109705600D01*
X119094000Y-109700900D01*
X119105347Y-109705600D01*
X119251959Y-109734763D01*
X119264279Y-109735976D01*
X119423721Y-109735976D01*
X119436041Y-109734763D01*
X119582653Y-109705600D01*
X119594000Y-109700900D01*
X119605347Y-109705600D01*
X119751959Y-109734763D01*
X119764279Y-109735976D01*
X119923721Y-109735976D01*
X119936041Y-109734763D01*
X120082653Y-109705600D01*
X120105584Y-109696102D01*
X120235047Y-109609596D01*
X120252596Y-109592047D01*
X120339102Y-109462584D01*
X120348600Y-109439653D01*
X120367229Y-109346000D01*
X120517218Y-109346000D01*
X120524000Y-109352783D01*
G37*
G04 #@! TD.AperFunction*
M02*
