M48
; DRILL file {KiCad (5.99.0-2119-g1c72042fc)} date 07/24/20 21:57:33
; FORMAT={-:-/ absolute / inch / decimal}
; #@! TF.CreationDate,2020-07-24T21:57:33+02:00
; #@! TF.GenerationSoftware,Kicad,Pcbnew,(5.99.0-2119-g1c72042fc)
; #@! TF.FileFunction,Plated,1,2,PTH
FMAT,2
INCH
T1C0.0118
T2C0.0157
T3C0.0315
T4C0.0394
%
G90
G05
T1
X3.995Y-4.42
X4.002Y-4.314
X4.1886Y-4.3544
X4.195Y-4.398
X4.195Y-4.463
X4.229Y-4.114
X4.4062Y-4.3052
X4.41Y-4.26
X4.47Y-4.67
X4.48Y-4.7037
X4.535Y-4.209
X5.0295Y-4.215
X5.0581Y-4.195
T2
X3.966Y-4.101
X3.98Y-4.04
X4.03Y-4.532
X4.08Y-4.157
X4.1396Y-4.0319
X4.14Y-4.266
X4.15Y-4.0851
X4.205Y-4.625
X4.205Y-4.665
X4.215Y-4.428
X4.218Y-4.241
X4.245Y-4.625
X4.245Y-4.665
X4.2704Y-4.3282
X4.272Y-4.287
X4.3225Y-4.2013
X4.35Y-4.08
X4.35Y-4.3251
X4.3619Y-4.2274
X4.41Y-4.075
X4.42Y-4.2029
X4.5Y-4.33
X4.51Y-4.085
X4.525Y-4.39
X4.5295Y-4.435
X4.555Y-4.35
X4.62Y-4.4577
X4.6303Y-4.395
X4.6599Y-4.4567
X4.7Y-4.695
X4.74Y-4.695
X4.75Y-4.274
X4.78Y-4.305
X4.78Y-4.58
X4.8159Y-4.2292
X4.8302Y-4.3902
X4.8316Y-4.5823
X4.84Y-4.435
X4.87Y-4.645
X4.9Y-4.615
X4.935Y-4.46
X5.035Y-4.365
T3
X4.86Y-4.06
X4.96Y-4.06
T4
X5.04Y-4.4528
X5.04Y-4.5528
X5.04Y-4.6528
T0
M30
