M48
; DRILL file {KiCad (5.99.0-2119-g1c72042fc)} date 07/20/20 23:32:28
; FORMAT={-:-/ absolute / inch / decimal}
; #@! TF.CreationDate,2020-07-20T23:32:28+02:00
; #@! TF.GenerationSoftware,Kicad,Pcbnew,(5.99.0-2119-g1c72042fc)
; #@! TF.FileFunction,Plated,1,2,PTH
FMAT,2
INCH
T1C0.0118
T2C0.0157
T3C0.0315
T4C0.0394
%
G90
G05
T1
X4.0Y-4.28
X4.0Y-4.385
X4.2286Y-4.3564
X4.235Y-4.4
X4.235Y-4.465
X4.47Y-4.67
X4.48Y-4.7037
X5.0295Y-4.215
X5.0581Y-4.195
T2
X3.9961Y-4.0256
X4.1437Y-4.2913
X4.145Y-4.04
X4.15Y-4.0846
X4.205Y-4.625
X4.205Y-4.665
X4.245Y-4.26
X4.245Y-4.625
X4.245Y-4.665
X4.255Y-4.43
X4.305Y-4.311
X4.311Y-4.3504
X4.3225Y-4.2089
X4.35Y-4.08
X4.365Y-4.235
X4.405Y-4.305
X4.41Y-4.075
X4.41Y-4.26
X4.42Y-4.2029
X4.5Y-4.33
X4.51Y-4.085
X4.525Y-4.39
X4.5265Y-4.22
X4.5295Y-4.435
X4.555Y-4.35
X4.62Y-4.4577
X4.6303Y-4.395
X4.6599Y-4.4567
X4.7Y-4.695
X4.74Y-4.695
X4.755Y-4.28
X4.78Y-4.58
X4.8159Y-4.2292
X4.8302Y-4.3902
X4.8316Y-4.5823
X4.84Y-4.435
X4.87Y-4.645
X4.9Y-4.615
X4.935Y-4.46
X5.035Y-4.365
T3
X4.86Y-4.06
X4.96Y-4.06
T4
X5.04Y-4.4528
X5.04Y-4.5528
X5.04Y-4.6528
T0
M30
